<svg width="117" height="32" viewBox="0 0 117 32" fill="none" xmlns="http://www.w3.org/2000/svg">
<path d="M22.6835 15.612L24.8908 9.8965H9.88086L12.0882 5.5H25.9945L28.2018 7.69825V16.7111L22.6835 15.612Z" fill="#8B8B8B"/>
<mask id="path-2-outside-1_402_3883" maskUnits="userSpaceOnUse" x="7.88086" y="4.5" width="21" height="14" fill="black">
<rect fill="white" x="7.88086" y="4.5" width="21" height="14"/>
<path fill-rule="evenodd" clip-rule="evenodd" d="M28.2018 16.7111L23.5664 16.9309L17.8273 15.612L19.5932 12.3146H12.3089L9.88086 9.89652H24.8908V9.8965H9.88086L12.0882 5.5H25.9945L28.2018 7.69825V16.7111Z"/>
</mask>
<path d="M28.2018 16.7111L28.2306 17.3171L28.8085 17.2897V16.7111H28.2018ZM23.5664 16.9309L23.4305 17.5222L23.5118 17.5409L23.5951 17.5369L23.5664 16.9309ZM17.8273 15.612L17.2925 15.3255L16.9177 16.0254L17.6914 16.2032L17.8273 15.612ZM19.5932 12.3146L20.128 12.601L20.6063 11.7079H19.5932V12.3146ZM12.3089 12.3146L11.8808 12.7445L12.0584 12.9213H12.3089V12.3146ZM9.88086 9.89652V9.28982H8.41189L9.45275 10.3264L9.88086 9.89652ZM24.8908 9.89652V10.5032H25.4975V9.89652H24.8908ZM24.8908 9.8965H25.4975V9.28981H24.8908V9.8965ZM9.88086 9.8965L9.33867 9.62428L8.89739 10.5032H9.88086V9.8965ZM12.0882 5.5V4.89331H11.7139L11.546 5.22778L12.0882 5.5ZM25.9945 5.5L26.4226 5.07012L26.2451 4.89331H25.9945V5.5ZM28.2018 7.69825H28.8085V7.44622L28.6299 7.26837L28.2018 7.69825ZM28.1731 16.1051L23.5377 16.3249L23.5951 17.5369L28.2306 17.3171L28.1731 16.1051ZM23.7023 16.3396L17.9632 15.0207L17.6914 16.2032L23.4305 17.5222L23.7023 16.3396ZM18.3621 15.8984L20.128 12.601L19.0584 12.0282L17.2925 15.3255L18.3621 15.8984ZM19.5932 11.7079H12.3089V12.9213H19.5932V11.7079ZM12.737 11.8847L10.309 9.46663L9.45275 10.3264L11.8808 12.7445L12.737 11.8847ZM9.88086 10.5032H24.8908V9.28982H9.88086V10.5032ZM25.4975 9.89652V9.8965H24.2841V9.89652H25.4975ZM24.8908 9.28981H9.88086V10.5032H24.8908V9.28981ZM10.4231 10.1687L12.6304 5.77222L11.546 5.22778L9.33867 9.62428L10.4231 10.1687ZM12.0882 6.10669H25.9945V4.89331H12.0882V6.10669ZM25.5664 5.92988L27.7737 8.12813L28.6299 7.26837L26.4226 5.07012L25.5664 5.92988ZM27.5951 7.69825V16.7111H28.8085V7.69825H27.5951Z" fill="#8B8B8B" mask="url(#path-2-outside-1_402_3883)"/>
<path d="M8.77796 15.612L6.57061 21.3274H21.5806L19.3732 25.7239H5.46694L3.25959 23.5257V14.5129L8.77796 15.612Z" fill="#8B8B8B"/>
<mask id="path-5-outside-2_402_3883" maskUnits="userSpaceOnUse" x="2.58057" y="12.7239" width="21" height="14" fill="black">
<rect fill="white" x="2.58057" y="12.7239" width="21" height="14"/>
<path fill-rule="evenodd" clip-rule="evenodd" d="M3.25959 14.5129L7.89502 14.293L13.6341 15.612L11.8682 18.9093H19.1525L21.5806 21.3274H6.57061V21.3274H21.5806L19.3732 25.7239H5.46694L3.25959 23.5257V14.5129Z"/>
</mask>
<path d="M3.25959 14.5129L3.23085 13.9068L2.6529 13.9343V14.5129H3.25959ZM7.89502 14.293L8.03091 13.7017L7.9496 13.6831L7.86628 13.687L7.89502 14.293ZM13.6341 15.612L14.1689 15.8984L14.5438 15.1985L13.77 15.0207L13.6341 15.612ZM11.8682 18.9093L11.3334 18.6229L10.8551 19.516H11.8682V18.9093ZM19.1525 18.9093L19.5806 18.4795L19.4031 18.3027H19.1525V18.9093ZM21.5806 21.3274V21.9341H23.0495L22.0087 20.8975L21.5806 21.3274ZM6.57061 21.3274V20.7207H5.96392V21.3274H6.57061ZM6.57061 21.3274H5.96392V21.9341H6.57061V21.3274ZM21.5806 21.3274L22.1228 21.5997L22.564 20.7207H21.5806V21.3274ZM19.3732 25.7239V26.3306H19.7475L19.9154 25.9962L19.3732 25.7239ZM5.46694 25.7239L5.03883 26.1538L5.21637 26.3306H5.46694V25.7239ZM3.25959 23.5257H2.6529V23.7777L2.83148 23.9556L3.25959 23.5257ZM3.28833 15.1189L7.92376 14.899L7.86628 13.687L3.23085 13.9068L3.28833 15.1189ZM7.75913 14.8843L13.4982 16.2032L13.77 15.0207L8.03091 13.7017L7.75913 14.8843ZM13.0993 15.3256L11.3334 18.6229L12.4031 19.1958L14.1689 15.8984L13.0993 15.3256ZM11.8682 19.516H19.1525V18.3027H11.8682V19.516ZM18.7244 19.3392L21.1525 21.7573L22.0087 20.8975L19.5806 18.4795L18.7244 19.3392ZM21.5806 20.7207H6.57061V21.9341H21.5806V20.7207ZM5.96392 21.3274V21.3274H7.1773V21.3274H5.96392ZM6.57061 21.9341H21.5806V20.7207H6.57061V21.9341ZM21.0384 21.0552L18.831 25.4517L19.9154 25.9962L22.1228 21.5997L21.0384 21.0552ZM19.3732 25.1172H5.46694V26.3306H19.3732V25.1172ZM5.89505 25.2941L3.6877 23.0958L2.83148 23.9556L5.03883 26.1538L5.89505 25.2941ZM3.86628 23.5257V14.5129H2.6529V23.5257H3.86628Z" fill="#8B8B8B" mask="url(#path-5-outside-2_402_3883)"/>
<path d="M45.8619 22.6757C44.9247 22.6757 44.052 22.5234 43.2437 22.2189C42.4471 21.9026 41.7501 21.4633 41.1527 20.901C40.567 20.327 40.1101 19.6534 39.7821 18.8803C39.4541 18.1071 39.2901 17.2637 39.2901 16.3499C39.2901 15.4362 39.4541 14.5928 39.7821 13.8196C40.1101 13.0465 40.5728 12.3788 41.1703 11.8165C41.7677 11.2425 42.4647 10.8032 43.2613 10.4986C44.0579 10.1823 44.9306 10.0242 45.8795 10.0242C46.8869 10.0242 47.8065 10.1999 48.6382 10.5513C49.4699 10.891 50.1728 11.4006 50.7468 12.08L49.2708 13.4682C48.8256 12.9879 48.3278 12.6306 47.7772 12.3963C47.2266 12.1503 46.6292 12.0273 45.9849 12.0273C45.3406 12.0273 44.749 12.1328 44.2102 12.3436C43.683 12.5545 43.2203 12.8532 42.822 13.2398C42.4354 13.6263 42.1309 14.0832 41.9083 14.6104C41.6974 15.1375 41.592 15.7174 41.592 16.3499C41.592 16.9825 41.6974 17.5624 41.9083 18.0895C42.1309 18.6167 42.4354 19.0735 42.822 19.4601C43.2203 19.8467 43.683 20.1454 44.2102 20.3563C44.749 20.5671 45.3406 20.6726 45.9849 20.6726C46.6292 20.6726 47.2266 20.5554 47.7772 20.3211C48.3278 20.0751 48.8256 19.7061 49.2708 19.2141L50.7468 20.6198C50.1728 21.2876 49.4699 21.7971 48.6382 22.1486C47.8065 22.5 46.881 22.6757 45.8619 22.6757ZM52.9355 22.5V10.1999H57.9962C59.0856 10.1999 60.0169 10.3756 60.79 10.727C61.5749 11.0785 62.1782 11.5822 62.5999 12.2382C63.0216 12.8942 63.2325 13.6732 63.2325 14.5752C63.2325 15.4772 63.0216 16.2562 62.5999 16.9122C62.1782 17.5565 61.5749 18.0544 60.79 18.4058C60.0169 18.7455 59.0856 18.9154 57.9962 18.9154H54.2007L55.2199 17.8787V22.5H52.9355ZM60.9833 22.5L57.8732 18.0368H60.3156L63.4434 22.5H60.9833ZM55.2199 18.1247L54.2007 17.0352H57.8907C58.8982 17.0352 59.6538 16.8185 60.1575 16.3851C60.6729 15.9517 60.9306 15.3484 60.9306 14.5752C60.9306 13.7903 60.6729 13.1871 60.1575 12.7653C59.6538 12.3436 58.8982 12.1328 57.8907 12.1328H54.2007L55.2199 11.0082V18.1247ZM71.5517 22.6757C70.5911 22.6757 69.7067 22.5176 68.8984 22.2013C68.0901 21.885 67.3872 21.4457 66.7898 20.8834C66.1924 20.3094 65.7296 19.6417 65.4016 18.8803C65.0736 18.1071 64.9096 17.2637 64.9096 16.3499C64.9096 15.4362 65.0736 14.5986 65.4016 13.8372C65.7296 13.0641 66.1924 12.3963 66.7898 11.834C67.3872 11.26 68.0901 10.8149 68.8984 10.4986C69.7067 10.1823 70.5852 10.0242 71.5341 10.0242C72.4947 10.0242 73.3733 10.1823 74.1699 10.4986C74.9781 10.8149 75.681 11.26 76.2784 11.834C76.8759 12.3963 77.3386 13.0641 77.6666 13.8372C77.9946 14.5986 78.1586 15.4362 78.1586 16.3499C78.1586 17.2637 77.9946 18.1071 77.6666 18.8803C77.3386 19.6534 76.8759 20.3211 76.2784 20.8834C75.681 21.4457 74.9781 21.885 74.1699 22.2013C73.3733 22.5176 72.5006 22.6757 71.5517 22.6757ZM71.5341 20.6726C72.155 20.6726 72.729 20.5671 73.2561 20.3563C73.7833 20.1454 74.2401 19.8467 74.6267 19.4601C75.0133 19.0618 75.312 18.605 75.5229 18.0895C75.7454 17.5624 75.8567 16.9825 75.8567 16.3499C75.8567 15.7174 75.7454 15.1434 75.5229 14.6279C75.312 14.1008 75.0133 13.6439 74.6267 13.2573C74.2401 12.8591 73.7833 12.5545 73.2561 12.3436C72.729 12.1328 72.155 12.0273 71.5341 12.0273C70.9133 12.0273 70.3392 12.1328 69.8121 12.3436C69.2967 12.5545 68.8398 12.8591 68.4415 13.2573C68.0549 13.6439 67.7504 14.1008 67.5278 14.6279C67.3169 15.1434 67.2115 15.7174 67.2115 16.3499C67.2115 16.9708 67.3169 17.5448 67.5278 18.072C67.7504 18.5991 68.0549 19.0618 68.4415 19.4601C68.8281 19.8467 69.285 20.1454 69.8121 20.3563C70.3392 20.5671 70.9133 20.6726 71.5341 20.6726ZM83.0845 22.5L79.0079 10.1999H81.3801L85.0174 21.3227H83.8401L87.618 10.1999H89.7266L93.3991 21.3227H92.2569L95.9821 10.1999H98.161L94.0844 22.5H91.6595L88.3033 12.4666H88.9359L85.527 22.5H83.0845ZM100.022 22.5V10.1999H105.399C106.734 10.1999 107.906 10.4576 108.913 10.973C109.921 11.4885 110.705 12.203 111.268 13.1168C111.83 14.0305 112.111 15.1082 112.111 16.3499C112.111 17.58 111.83 18.6577 111.268 19.5831C110.705 20.4968 109.921 21.2114 108.913 21.7269C107.906 22.2423 106.734 22.5 105.399 22.5H100.022ZM102.306 20.5671H105.293C106.219 20.5671 107.015 20.3914 107.683 20.04C108.363 19.6885 108.884 19.1965 109.247 18.564C109.622 17.9314 109.809 17.1934 109.809 16.3499C109.809 15.4948 109.622 14.7568 109.247 14.1359C108.884 13.5033 108.363 13.0113 107.683 12.6599C107.015 12.3085 106.219 12.1328 105.293 12.1328H102.306V20.5671Z" fill="white"/>
</svg>
