<svg width="848" height="1593" viewBox="0 0 848 1593" fill="none" xmlns="http://www.w3.org/2000/svg">
<path opacity="0.4" fill-rule="evenodd" clip-rule="evenodd" d="M22.1076 0.0376286C23.7501 -0.254937 25.2693 1.19035 25.5009 3.26576C26.1103 8.72833 26.8391 14.3783 27.7071 20.159C28.0163 22.2182 26.9459 24.2043 25.3162 24.595C23.6865 24.9856 22.1148 23.6331 21.8056 21.5739C20.9188 15.6681 20.1747 9.89938 19.5528 4.32523C19.3213 2.24982 20.4651 0.330194 22.1076 0.0376286ZM30.3735 50.8577C31.9612 50.2507 33.6377 51.3849 34.1181 53.391C36.6776 64.0803 39.7797 74.8366 43.5299 85.355C44.2112 87.266 43.5375 89.513 42.0252 90.3739C40.5128 91.2348 38.7345 90.3836 38.0532 88.4726C34.1836 77.6192 30.9936 66.5515 28.3686 55.5891C27.8883 53.583 28.7859 51.4647 30.3735 50.8577ZM598.298 85.5758C598.334 87.6713 597.018 89.4063 595.36 89.4511C585.23 89.7245 574.834 90.4933 564.217 91.6891C562.565 91.8752 561.106 90.3337 560.959 88.246C560.811 86.1583 562.031 84.3151 563.684 84.129C574.418 82.92 584.951 82.1403 595.232 81.8628C596.89 81.818 598.263 83.4804 598.298 85.5758ZM623.664 86.2659C623.78 84.1751 625.216 82.5997 626.871 82.747C637.759 83.7167 648.274 85.4177 658.344 87.9573C659.971 88.3676 661.026 90.3663 660.702 92.4217C660.377 94.4771 658.795 95.8108 657.169 95.4006C647.379 92.9316 637.118 91.2684 626.449 90.3183C624.794 90.1709 623.547 88.3566 623.664 86.2659ZM535.704 91.9533C535.935 94.0289 534.79 95.9477 533.148 96.239C523.002 98.0387 512.71 100.145 502.311 102.503C500.678 102.873 499.117 101.501 498.824 99.4382C498.531 97.3752 499.617 95.4027 501.25 95.0325C511.715 92.6595 522.082 90.5374 532.313 88.7227C533.955 88.4313 535.474 89.8777 535.704 91.9533ZM685.081 101.239C685.683 99.2865 687.425 98.3205 688.97 99.0818C699.104 104.074 708.586 110.267 717.307 117.815C718.675 118.999 719.025 121.361 718.088 123.09C717.15 124.819 715.281 125.261 713.912 124.077C705.605 116.887 696.536 110.955 686.788 106.154C685.243 105.392 684.478 103.192 685.081 101.239ZM473.9 105.587C474.24 107.639 473.199 109.65 471.576 110.079C461.432 112.763 451.225 115.628 440.988 118.626C439.372 119.099 437.758 117.827 437.384 115.785C437.009 113.744 438.015 111.705 439.631 111.232C449.904 108.223 460.154 105.346 470.345 102.65C471.968 102.221 473.56 103.536 473.9 105.587ZM52.2826 114.09C53.6658 112.933 55.5293 113.412 56.4447 115.16C61.3407 124.508 66.9208 133.358 73.2767 141.45C74.4452 142.937 74.4381 145.34 73.2608 146.817C72.0835 148.293 70.1819 148.284 69.0134 146.796C62.3527 138.317 56.5275 129.071 51.4354 119.349C50.52 117.601 50.8993 115.246 52.2826 114.09ZM412.701 123.282C413.099 125.316 412.118 127.374 410.508 127.878C400.36 131.054 390.216 134.312 380.107 137.605C378.501 138.129 376.863 136.907 376.449 134.878C376.035 132.848 377.001 130.779 378.607 130.256C388.73 126.958 398.893 123.694 409.063 120.51C410.673 120.006 412.302 121.247 412.701 123.282ZM351.873 142.971C352.294 144.998 351.334 147.073 349.73 147.604C347.131 148.465 344.536 149.326 341.946 150.185C334.376 152.695 326.849 155.191 319.381 157.651C317.776 158.18 316.136 156.964 315.717 154.936C315.299 152.908 316.261 150.835 317.866 150.306C325.33 147.848 332.852 145.353 340.423 142.843C343.012 141.984 345.606 141.124 348.206 140.263C349.81 139.731 351.452 140.943 351.873 142.971ZM736.963 144.445C738.222 143.08 740.119 143.264 741.198 144.855C744.634 149.917 747.86 155.328 750.863 161.102C753.791 166.731 756.556 172.501 759.159 178.393C759.967 180.223 759.449 182.534 758 183.556C756.552 184.578 754.722 183.922 753.914 182.092C751.38 176.356 748.69 170.743 745.843 165.271C742.978 159.763 739.907 154.61 736.639 149.796C735.559 148.205 735.704 145.809 736.963 144.445ZM291.106 162.94C291.513 164.972 290.538 167.035 288.93 167.549C278.582 170.851 268.388 174.024 258.391 177.008C256.777 177.49 255.159 176.227 254.777 174.188C254.396 172.148 255.395 170.104 257.01 169.622C266.97 166.648 277.132 163.485 287.459 160.19C289.067 159.676 290.7 160.908 291.106 162.94ZM89.9003 163.787C90.7894 162.017 92.6454 161.494 94.0457 162.617C101.28 168.421 109.245 173.4 118.016 177.35C119.579 178.054 120.394 180.225 119.837 182.199C119.28 184.173 117.562 185.203 116 184.5C106.804 180.359 98.436 175.13 90.8259 169.025C89.4256 167.901 89.0112 165.556 89.9003 163.787ZM230.045 181.19C230.385 183.242 229.344 185.253 227.72 185.682C222.509 187.06 217.368 188.364 212.304 189.583C207.636 190.706 203.075 191.653 198.621 192.429C196.977 192.715 195.462 191.264 195.235 189.188C195.008 187.111 196.157 185.196 197.8 184.91C202.15 184.152 206.609 183.227 211.18 182.127C216.205 180.917 221.311 179.623 226.49 178.253C228.113 177.824 229.705 179.139 230.045 181.19ZM140.61 188.627C140.851 186.553 142.377 185.119 144.018 185.423C152.355 186.968 161.276 187.719 170.821 187.563C172.48 187.536 173.842 189.213 173.863 191.308C173.885 193.404 172.558 195.125 170.899 195.152C161.055 195.314 151.816 194.539 143.146 192.933C141.505 192.629 140.37 190.701 140.61 188.627ZM768.897 212.777C770.442 212.012 772.185 212.973 772.79 214.924C776.681 227.453 779.932 240.314 782.544 253.355C782.951 255.387 781.978 257.451 780.37 257.965C778.761 258.479 777.128 257.249 776.721 255.217C774.169 242.477 770.995 229.92 767.199 217.696C766.593 215.745 767.353 213.543 768.897 212.777ZM785.119 289.71C786.764 289.446 788.267 290.918 788.476 292.997C789.825 306.437 790.517 319.911 790.551 333.261C790.556 335.357 789.216 337.062 787.557 337.068C785.898 337.075 784.549 335.382 784.544 333.286C784.511 320.249 783.835 307.086 782.517 293.952C782.308 291.873 783.473 289.974 785.119 289.71ZM786.002 369.312C787.647 369.578 788.81 371.479 788.6 373.558C787.226 387.132 785.125 400.401 782.294 413.18C781.846 415.198 780.189 416.376 778.592 415.811C776.994 415.246 776.062 413.152 776.509 411.133C779.258 398.728 781.303 385.822 782.642 372.595C782.852 370.516 784.357 369.046 786.002 369.312ZM219.145 441.305C219.172 439.209 220.539 437.538 222.198 437.573C232.413 437.786 242.774 438.636 253.249 440.019C254.899 440.237 256.096 442.104 255.924 444.188C255.752 446.273 254.274 447.786 252.625 447.568C242.303 446.205 232.118 445.371 222.098 445.162C220.44 445.127 219.117 443.4 219.145 441.305ZM194.27 442.477C194.431 444.563 193.222 446.418 191.571 446.621C181.334 447.877 171.318 449.947 161.554 452.943C159.942 453.437 158.318 452.187 157.926 450.15C157.535 448.113 158.524 446.061 160.136 445.567C170.2 442.48 180.497 440.354 190.991 439.067C192.641 438.864 194.11 440.391 194.27 442.477ZM280.606 448.563C280.888 446.497 282.441 445.112 284.076 445.468C294.139 447.659 304.283 450.237 314.482 453.118C316.1 453.575 317.119 455.604 316.758 457.649C316.396 459.695 314.79 460.982 313.171 460.525C303.054 457.667 293.008 455.114 283.056 452.947C281.421 452.591 280.325 450.628 280.606 448.563ZM769.7 446.098C771.198 446.997 771.835 449.261 771.123 451.154C766.441 463.602 760.905 475.269 754.508 485.919C753.505 487.589 751.621 487.915 750.3 486.648C748.978 485.381 748.72 483 749.723 481.331C755.852 471.126 761.178 459.911 765.698 447.896C766.41 446.003 768.202 445.198 769.7 446.098ZM134.33 459.998C134.982 461.925 134.274 464.156 132.749 464.979C128.113 467.483 123.547 470.25 119.055 473.295C114.829 476.159 110.795 479.453 106.955 483.135C105.633 484.402 103.749 484.075 102.747 482.406C101.744 480.736 102.002 478.355 103.324 477.088C107.404 473.176 111.702 469.666 116.215 466.607C120.866 463.454 125.592 460.59 130.388 458C131.913 457.176 133.678 458.071 134.33 459.998ZM340.966 465.102C341.386 463.074 343.026 461.859 344.631 462.389C354.553 465.663 364.507 469.142 374.469 472.752C376.064 473.33 376.986 475.432 376.529 477.446C376.071 479.461 374.408 480.626 372.814 480.048C362.886 476.451 352.979 472.988 343.114 469.733C341.509 469.203 340.547 467.13 340.966 465.102ZM400.404 486.353C400.883 484.346 402.558 483.21 404.146 483.815C413.33 487.315 422.508 490.864 431.656 494.401L433.717 495.198C435.303 495.811 436.195 497.933 435.71 499.937C435.224 501.942 433.545 503.069 431.959 502.456L429.902 501.66C420.751 498.122 411.584 494.577 402.412 491.082C400.824 490.477 399.925 488.36 400.404 486.353ZM86.0582 503.682C87.3749 504.956 87.6244 507.338 86.6155 509.002C80.8677 518.481 75.833 529.042 71.5395 540.406C70.8249 542.297 69.0321 543.099 67.5352 542.196C66.0383 541.293 65.4041 539.028 66.1187 537.136C70.574 525.343 75.8211 514.323 81.8475 504.386C82.8563 502.722 84.7415 502.407 86.0582 503.682ZM459.519 509.086C459.995 507.079 461.67 505.939 463.258 506.542C473.193 510.307 483.071 513.98 492.871 517.482C494.468 518.053 495.396 520.15 494.944 522.167C494.493 524.184 492.833 525.356 491.237 524.786C481.396 521.269 471.486 517.585 461.532 513.812C459.944 513.209 459.042 511.094 459.519 509.086ZM732.572 509.869C733.612 511.502 733.409 513.891 732.117 515.206C727.93 519.467 723.517 523.395 718.877 526.957C714.345 530.436 709.699 533.556 704.946 536.337C703.441 537.218 701.656 536.39 700.959 534.488C700.262 532.586 700.917 530.331 702.422 529.45C706.975 526.786 711.422 523.8 715.758 520.47C720.167 517.085 724.364 513.351 728.349 509.295C729.641 507.98 731.531 508.237 732.572 509.869ZM518.977 530.347C519.384 528.315 521.017 527.085 522.625 527.599C532.739 530.834 542.738 533.794 552.598 536.391C554.222 536.819 555.264 538.829 554.925 540.881C554.587 542.933 552.996 544.249 551.372 543.822C541.415 541.199 531.332 538.213 521.151 534.957C519.543 534.443 518.569 532.379 518.977 530.347ZM677.424 544.584C677.799 546.625 676.793 548.665 675.178 549.139C665.169 552.074 654.817 553.892 644.174 554.757C642.518 554.891 641.09 553.305 640.984 551.213C640.877 549.122 642.133 547.317 643.788 547.183C654.143 546.341 664.167 544.576 673.819 541.745C675.435 541.271 677.049 542.542 677.424 544.584ZM579.397 546.416C579.635 544.341 581.159 542.904 582.801 543.205C593.179 545.109 603.354 546.475 613.296 547.193C614.952 547.312 616.217 549.106 616.123 551.198C616.028 553.291 614.609 554.89 612.953 554.771C602.813 554.038 592.462 552.647 581.938 550.716C580.296 550.415 579.159 548.49 579.397 546.416ZM59.2135 570.284C60.8089 570.858 61.7339 572.958 61.2798 574.973C58.6386 586.695 56.6632 598.857 55.3718 611.225C55.1549 613.303 53.6459 614.765 52.0014 614.491C50.3569 614.217 49.1996 612.31 49.4166 610.232C50.7449 597.511 52.7783 584.986 55.5025 572.895C55.9567 570.879 57.6182 569.71 59.2135 570.284ZM50.5385 644.431C52.1972 644.415 53.5521 646.101 53.5648 648.197C53.64 660.611 54.4027 672.989 55.8669 685.102C56.1174 687.173 54.9912 689.11 53.3514 689.426C51.7117 689.743 50.1794 688.319 49.929 686.248C48.4198 673.763 47.6354 661.021 47.5581 648.255C47.5454 646.159 48.8798 644.447 50.5385 644.431ZM614.067 708.59C614.139 710.684 612.854 712.455 611.196 712.546C602.184 713.04 592.911 714.233 583.525 715.98C581.884 716.285 580.358 714.852 580.116 712.778C579.875 710.704 581.009 708.776 582.65 708.471C592.207 706.692 601.686 705.47 610.936 704.963C612.593 704.872 613.995 706.496 614.067 708.59ZM636.163 709.321C636.345 707.238 637.829 705.735 639.477 705.964C649.397 707.343 658.835 709.907 667.538 713.925C669.096 714.644 669.898 716.823 669.328 718.792C668.759 720.76 667.035 721.773 665.477 721.054C657.309 717.283 648.356 714.834 638.82 713.508C637.172 713.279 635.982 711.404 636.163 709.321ZM558.378 717.933C558.74 719.979 557.722 722.008 556.103 722.466C546.993 725.042 537.919 727.996 529.015 731.191C527.419 731.763 525.758 730.593 525.305 728.577C524.852 726.561 525.778 724.462 527.374 723.89C536.373 720.661 545.557 717.671 554.791 715.059C556.41 714.601 558.016 715.888 558.378 717.933ZM58.7593 718.624C60.3372 717.978 62.031 719.071 62.5424 721.064C65.5969 732.973 69.4371 744.32 74.0745 754.849C74.8811 756.681 74.36 758.992 72.9106 760.011C71.4611 761.03 69.6323 760.372 68.8257 758.54C63.9828 747.544 59.9921 735.74 56.8282 723.404C56.3168 721.411 57.1814 719.27 58.7593 718.624ZM688.476 732.617C689.56 731.03 691.456 730.854 692.712 732.224C699.852 740.012 705.841 749.657 710.408 761.397C711.139 763.278 710.526 765.552 709.037 766.477C707.549 767.402 705.749 766.626 705.017 764.746C700.802 753.912 695.31 745.084 688.787 737.969C687.531 736.6 687.392 734.203 688.476 732.617ZM504.174 736.845C504.699 738.833 503.848 740.983 502.275 741.646C497.776 743.542 493.365 745.467 489.063 747.401C484.654 749.382 480.139 751.387 475.528 753.41C473.961 754.097 472.25 753.049 471.706 751.069C471.162 749.089 471.991 746.926 473.558 746.239C478.155 744.223 482.656 742.224 487.051 740.249C491.388 738.3 495.836 736.359 500.374 734.446C501.948 733.783 503.649 734.857 504.174 736.845ZM450.214 760.258C450.734 762.248 449.877 764.394 448.302 765.05C439.4 768.758 430.25 772.47 420.911 776.143C419.327 776.765 417.644 775.648 417.151 773.647C416.658 771.645 417.542 769.518 419.126 768.895C428.431 765.237 437.549 761.537 446.422 757.842C447.997 757.185 449.695 758.267 450.214 760.258ZM395.409 781.928C395.873 783.94 394.958 786.047 393.365 786.633C384.23 789.996 374.977 793.283 365.659 796.454C364.058 796.999 362.409 795.8 361.978 793.777C361.547 791.753 362.495 789.67 364.097 789.125C373.373 785.968 382.586 782.695 391.685 779.346C393.278 778.76 394.945 779.916 395.409 781.928ZM86.7463 784.357C87.9622 782.932 89.8626 783.022 90.9908 784.558C94.2777 789.034 97.7852 793.216 101.515 797.069C104.966 800.633 108.786 803.83 112.955 806.677C114.414 807.674 114.957 809.976 114.169 811.82C113.38 813.664 111.558 814.351 110.098 813.354C105.626 810.3 101.484 806.84 97.7137 802.946C93.7626 798.865 90.0549 794.443 86.5874 789.721C85.4592 788.184 85.5303 785.783 86.7463 784.357ZM715.412 793.151C717.051 792.823 718.589 794.235 718.849 796.306C719.568 802.048 720.061 808.1 720.317 814.473C720.59 821.268 720.696 828.062 720.63 834.835C720.609 836.931 719.248 838.609 717.59 838.583C715.931 838.557 714.603 836.837 714.623 834.742C714.688 828.13 714.585 821.495 714.318 814.858C714.072 808.734 713.6 802.951 712.916 797.492C712.656 795.422 713.774 793.478 715.412 793.151ZM339.986 800.926C340.381 802.962 339.394 805.016 337.782 805.514C328.428 808.404 319.058 811.142 309.723 813.689C308.102 814.131 306.504 812.829 306.154 810.78C305.803 808.731 306.834 806.712 308.455 806.27C317.733 803.739 327.05 801.016 336.356 798.141C337.967 797.643 339.592 798.89 339.986 800.926ZM283.886 816.396C284.183 818.458 283.1 820.434 281.469 820.809C271.87 823.016 262.364 824.974 253.007 826.637C251.365 826.929 249.846 825.483 249.615 823.408C249.384 821.332 250.528 819.413 252.171 819.121C261.44 817.473 270.866 815.533 280.393 813.342C282.025 812.967 283.589 814.334 283.886 816.396ZM135.463 821.663C135.85 819.625 137.471 818.369 139.084 818.858C147.668 821.46 156.998 823.229 166.957 824.251C168.61 824.42 169.841 826.251 169.707 828.34C169.573 830.429 168.124 831.985 166.471 831.816C156.263 830.769 146.62 828.948 137.683 826.239C136.07 825.75 135.076 823.701 135.463 821.663ZM227.068 826.71C227.214 828.798 225.993 830.64 224.341 830.824C214.456 831.927 204.818 832.619 195.506 832.84C193.847 832.879 192.478 831.212 192.447 829.116C192.416 827.021 193.735 825.29 195.393 825.251C204.549 825.034 214.047 824.353 223.812 823.263C225.465 823.079 226.922 824.622 227.068 826.71ZM715.57 871.14C717.21 871.448 718.343 873.377 718.1 875.451C716.506 889.045 714.151 902.374 711 915.251C710.51 917.254 708.828 918.375 707.244 917.756C705.659 917.137 704.772 915.011 705.262 913.009C708.317 900.523 710.606 887.573 712.158 874.338C712.401 872.265 713.929 870.833 715.57 871.14ZM697.518 948.004C698.991 948.967 699.567 951.257 698.804 953.119C693.808 965.315 687.913 976.821 681.081 987.423C680.034 989.048 678.142 989.293 676.856 987.969C675.57 986.646 675.376 984.256 676.423 982.63C682.979 972.457 688.651 961.392 693.47 949.629C694.232 947.768 696.044 947.04 697.518 948.004ZM292.998 958.197C293.11 956.106 294.543 954.526 296.197 954.667C305.921 955.498 315.464 957.371 324.878 960.032C326.497 960.49 327.515 962.519 327.153 964.564C326.791 966.609 325.185 967.896 323.566 967.439C314.41 964.851 305.173 963.041 295.792 962.24C294.137 962.098 292.886 960.288 292.998 958.197ZM270.467 958.795C270.653 960.877 269.468 962.756 267.82 962.992C258.873 964.269 249.738 966.591 240.369 970.148C238.78 970.751 237.105 969.613 236.628 967.605C236.151 965.598 237.052 963.482 238.64 962.879C248.353 959.192 257.841 956.778 267.145 955.45C268.794 955.214 270.281 956.712 270.467 958.795ZM348.834 972.429C349.371 970.446 351.078 969.388 352.648 970.065C361.65 973.954 370.592 978.358 379.518 983.045C381.05 983.849 381.776 986.07 381.139 988.006C380.503 989.941 378.745 990.858 377.213 990.054C368.364 985.408 359.549 981.067 350.705 977.248C349.135 976.57 348.298 974.412 348.834 972.429ZM215.624 977.978C216.341 979.868 215.709 982.134 214.213 983.04C210.094 985.534 205.925 988.275 201.702 991.279C197.013 994.613 192.603 998.125 188.464 1001.79C187.106 1003 185.233 1002.58 184.28 1000.87C183.328 999.153 183.656 996.786 185.014 995.582C189.321 991.763 193.899 988.118 198.756 984.664C203.09 981.582 207.376 978.763 211.617 976.195C213.113 975.29 214.907 976.088 215.624 977.978ZM401.832 999.366C402.505 997.45 404.28 996.587 405.796 997.438C407.147 998.196 408.499 998.956 409.852 999.716C417.164 1003.82 424.502 1007.95 431.918 1011.97C433.442 1012.8 434.146 1015.03 433.491 1016.96C432.835 1018.89 431.069 1019.78 429.545 1018.95C422.094 1014.9 414.717 1010.76 407.407 1006.65C406.055 1005.89 404.705 1005.13 403.358 1004.37C401.842 1003.52 401.158 1001.28 401.832 999.366ZM658.422 1010.81C659.441 1012.47 659.206 1014.85 657.897 1016.14C649.548 1024.35 640.318 1031.53 630.178 1037.49C628.674 1038.37 626.888 1037.55 626.188 1035.65C625.488 1033.75 626.14 1031.49 627.644 1030.61C637.372 1024.89 646.215 1018.01 654.207 1010.15C655.516 1008.86 657.403 1009.16 658.422 1010.81ZM164.975 1022.42C166.215 1023.81 166.327 1026.21 165.226 1027.78C158.075 1037.95 152.34 1048.81 147.914 1060.13C147.18 1062.01 145.378 1062.78 143.891 1061.85C142.404 1060.92 141.794 1058.64 142.529 1056.76C147.194 1044.83 153.23 1033.41 160.735 1022.74C161.837 1021.17 163.735 1021.03 164.975 1022.42ZM454.389 1027.72C454.975 1025.76 456.708 1024.77 458.259 1025.51C467.062 1029.7 475.995 1033.58 485.106 1036.94C486.698 1037.53 487.612 1039.64 487.146 1041.65C486.681 1043.66 485.013 1044.82 483.421 1044.23C474.134 1040.8 465.054 1036.86 456.139 1032.61C454.587 1031.87 453.803 1029.68 454.389 1027.72ZM601.759 1046.25C602.141 1048.29 601.143 1050.34 599.528 1050.82C594.391 1052.36 589.081 1053.63 583.595 1054.63C578.732 1055.52 573.934 1056.19 569.198 1056.66C567.545 1056.82 566.1 1055.26 565.971 1053.17C565.843 1051.08 567.079 1049.25 568.733 1049.09C573.337 1048.64 578.004 1047.99 582.736 1047.12C588.05 1046.15 593.185 1044.92 598.144 1043.43C599.759 1042.95 601.377 1044.21 601.759 1046.25ZM509.085 1048.29C509.383 1046.22 510.947 1044.86 512.579 1045.23C521.688 1047.33 531.003 1048.8 540.567 1049.47C542.223 1049.59 543.49 1051.38 543.398 1053.47C543.306 1055.56 541.888 1057.17 540.232 1057.05C530.401 1056.36 520.836 1054.85 511.502 1052.7C509.87 1052.32 508.788 1050.35 509.085 1048.29ZM135.762 1092.73C137.393 1093.12 138.466 1095.1 138.161 1097.16C136.255 1110 135.71 1123.12 136.415 1136.22C136.528 1138.31 135.277 1140.12 133.623 1140.27C131.968 1140.41 130.535 1138.83 130.422 1136.74C129.685 1123.03 130.252 1109.27 132.257 1095.76C132.563 1093.7 134.132 1092.34 135.762 1092.73ZM738.255 1166.64C728.458 1165.5 718.151 1165.3 707.401 1165.91C705.744 1166.01 704.34 1164.39 704.265 1162.29C704.19 1160.2 705.473 1158.43 707.13 1158.33C718.107 1157.7 728.693 1157.9 738.806 1159.08C740.458 1159.27 741.674 1161.12 741.521 1163.21C741.369 1165.3 739.907 1166.83 738.255 1166.64ZM679.088 1165.32C679.315 1167.39 678.167 1169.31 676.524 1169.6C666.568 1171.33 656.342 1173.58 645.892 1176.26C644.267 1176.68 642.681 1175.35 642.352 1173.3C642.022 1171.24 643.072 1169.24 644.698 1168.82C655.252 1166.12 665.603 1163.84 675.703 1162.08C677.346 1161.79 678.862 1163.24 679.088 1165.32ZM766.366 1169.14C766.854 1167.14 768.534 1166.01 770.12 1166.63C780.575 1170.69 790.282 1176.31 799.101 1183.72C800.482 1184.88 800.857 1187.24 799.938 1188.98C799.02 1190.73 797.155 1191.2 795.774 1190.04C787.488 1183.08 778.317 1177.76 768.353 1173.88C766.768 1173.27 765.878 1171.14 766.366 1169.14ZM138.325 1172.29C139.913 1171.68 141.589 1172.81 142.07 1174.82C145.054 1187.28 149.114 1199.46 154.141 1211.09C154.936 1212.93 154.4 1215.23 152.944 1216.24C151.488 1217.24 149.664 1216.57 148.869 1214.73C143.649 1202.65 139.427 1189.99 136.32 1177.02C135.84 1175.01 136.737 1172.89 138.325 1172.29ZM617.626 1180.41C618.028 1182.45 617.049 1184.51 615.439 1185.01C605.521 1188.14 595.459 1191.55 585.288 1195.18C583.692 1195.75 582.032 1194.57 581.582 1192.56C581.131 1190.54 582.06 1188.44 583.657 1187.87C593.876 1184.23 603.998 1180.8 613.985 1177.65C615.595 1177.14 617.225 1178.38 617.626 1180.41ZM557.334 1201.58C557.818 1203.58 556.923 1205.7 555.336 1206.31C545.439 1210.12 535.477 1214.07 525.483 1218.08C523.902 1218.72 522.213 1217.62 521.71 1215.62C521.207 1213.62 522.081 1211.49 523.662 1210.85C533.672 1206.83 543.658 1202.87 553.586 1199.05C555.173 1198.44 556.851 1199.57 557.334 1201.58ZM818.384 1210.68C819.693 1209.4 821.58 1209.69 822.599 1211.35C825.811 1216.56 828.792 1222.2 831.531 1228.29C834.246 1233.88 836.605 1239.44 838.62 1244.97C839.314 1246.87 838.655 1249.13 837.148 1250C835.642 1250.88 833.858 1250.05 833.164 1248.14C831.248 1242.89 828.994 1237.57 826.385 1232.21L826.359 1232.15L826.333 1232.09C823.726 1226.29 820.897 1220.94 817.859 1216.01C816.84 1214.36 817.076 1211.97 818.384 1210.68ZM497.62 1225.42C498.131 1227.41 497.266 1229.55 495.688 1230.2C493.006 1231.3 490.323 1232.39 487.64 1233.49C480.386 1236.47 473.135 1239.44 465.905 1242.38C464.326 1243.02 462.633 1241.93 462.125 1239.93C461.616 1237.94 462.483 1235.8 464.062 1235.16C471.281 1232.22 478.518 1229.25 485.764 1226.28C488.454 1225.18 491.145 1224.08 493.837 1222.98C495.415 1222.33 497.108 1223.42 497.62 1225.42ZM167.478 1243.15C168.749 1241.8 170.644 1242.01 171.709 1243.62C175.042 1248.65 178.579 1253.48 182.307 1258.09C185.945 1262.58 189.857 1266.58 194.029 1270.1C195.408 1271.26 195.779 1273.62 194.857 1275.36C193.935 1277.11 192.07 1277.58 190.691 1276.41C186.217 1272.63 182.014 1268.34 178.106 1263.51C174.235 1258.73 170.564 1253.71 167.104 1248.49C166.039 1246.89 166.206 1244.49 167.478 1243.15ZM438.016 1249.63C438.511 1251.63 437.629 1253.76 436.046 1254.39C425.958 1258.37 415.937 1262.25 406.02 1265.94C404.429 1266.53 402.759 1265.38 402.29 1263.37C401.821 1261.36 402.731 1259.25 404.322 1258.66C414.2 1254.98 424.188 1251.12 434.253 1247.14C435.836 1246.52 437.52 1247.63 438.016 1249.63ZM377.925 1272.04C378.352 1274.07 377.398 1276.15 375.795 1276.68C365.476 1280.16 355.31 1283.35 345.342 1286.18C343.723 1286.64 342.117 1285.35 341.753 1283.31C341.389 1281.26 342.407 1279.23 344.025 1278.77C353.904 1275.97 363.993 1272.8 374.25 1269.35C375.853 1268.81 377.498 1270.02 377.925 1272.04ZM843.725 1278.06C845.371 1277.8 846.874 1279.27 847.082 1281.35C848.386 1294.38 847.788 1307.07 845.498 1319.34C845.118 1321.38 843.5 1322.64 841.886 1322.16C840.271 1321.68 839.271 1319.64 839.652 1317.6C841.78 1306.19 842.335 1294.41 841.122 1282.3C840.914 1280.22 842.08 1278.32 843.725 1278.06ZM217.901 1288.35C218.344 1286.33 220 1285.15 221.598 1285.71C230.905 1288.98 240.985 1290.92 251.751 1291.71C253.407 1291.83 254.671 1293.63 254.575 1295.72C254.478 1297.81 253.058 1299.41 251.402 1299.29C240.291 1298.47 229.78 1296.46 219.991 1293.02C218.393 1292.46 217.457 1290.37 217.901 1288.35ZM316.889 1289.49C317.158 1291.56 316.049 1293.51 314.413 1293.85C303.649 1296.08 293.186 1297.75 283.087 1298.72C281.433 1298.88 279.99 1297.32 279.864 1295.23C279.738 1293.14 280.976 1291.31 282.63 1291.16C292.527 1290.2 302.815 1288.57 313.438 1286.36C315.075 1286.02 316.62 1287.42 316.889 1289.49ZM832.956 1349.14C834.376 1350.23 834.832 1352.56 833.975 1354.35C829.021 1364.72 822.843 1374.64 815.619 1384.07C814.466 1385.57 812.564 1385.61 811.372 1384.15C810.181 1382.7 810.15 1380.29 811.304 1378.79C818.255 1369.72 824.143 1360.24 828.833 1350.43C829.69 1348.64 831.536 1348.06 832.956 1349.14ZM205.978 1372.15C215.725 1372.05 225.64 1372.54 235.68 1373.64C237.332 1373.83 238.555 1375.67 238.411 1377.75C238.266 1379.84 236.809 1381.39 235.157 1381.21C225.306 1380.12 215.583 1379.64 206.031 1379.74C204.372 1379.76 203.016 1378.08 203.001 1375.98C202.987 1373.89 204.32 1372.17 205.978 1372.15ZM179.512 1377.75C179.697 1379.83 178.51 1381.71 176.862 1381.94C167.025 1383.33 157.435 1385.37 148.142 1388.03C146.524 1388.49 144.916 1387.21 144.55 1385.17C144.184 1383.12 145.199 1381.09 146.817 1380.63C156.331 1377.91 166.141 1375.82 176.193 1374.4C177.841 1374.17 179.327 1375.67 179.512 1377.75ZM261.742 1381.71C262.037 1379.64 263.599 1378.27 265.231 1378.64C274.821 1380.83 284.486 1383.58 294.192 1386.91C295.793 1387.45 296.738 1389.54 296.304 1391.56C295.869 1393.58 294.219 1394.78 292.619 1394.23C283.079 1390.96 273.583 1388.26 264.165 1386.11C262.533 1385.74 261.448 1383.77 261.742 1381.71ZM121.99 1393.43C122.55 1395.4 121.738 1397.57 120.177 1398.28C110.858 1402.5 101.95 1407.41 93.5155 1412.96C92.0444 1413.93 90.2306 1413.21 89.4642 1411.35C88.6979 1409.49 89.2692 1407.2 90.7403 1406.23C99.4252 1400.51 108.584 1395.47 118.149 1391.14C119.71 1390.43 121.43 1391.46 121.99 1393.43ZM318.704 1400.54C319.27 1398.57 320.993 1397.55 322.552 1398.27C331.732 1402.48 340.918 1407.22 350.083 1412.52C351.592 1413.39 352.256 1415.64 351.567 1417.54C350.877 1419.45 349.095 1420.29 347.587 1419.42C338.567 1414.21 329.53 1409.54 320.501 1405.4C318.942 1404.68 318.138 1402.51 318.704 1400.54ZM793.849 1403.42C794.841 1405.1 794.568 1407.47 793.239 1408.73C785.628 1415.91 777.37 1422.72 768.565 1429.13C767.128 1430.17 765.291 1429.55 764.463 1427.73C763.635 1425.92 764.129 1423.6 765.566 1422.55C774.186 1416.27 782.243 1409.63 789.646 1402.65C790.975 1401.39 792.857 1401.74 793.849 1403.42ZM69.5127 1426.97C70.4943 1428.66 70.206 1431.04 68.8689 1432.28C60.96 1439.61 53.6701 1447.64 47.0747 1456.32C45.9256 1457.83 44.0244 1457.88 42.8281 1456.43C41.6318 1454.98 41.5935 1452.57 42.7425 1451.06C49.5873 1442.06 57.1394 1433.74 65.3143 1426.16C66.6515 1424.92 68.5312 1425.28 69.5127 1426.97ZM372.492 1430.89C373.295 1429.06 375.123 1428.4 376.574 1429.41C380.894 1432.43 385.202 1435.58 389.496 1438.86C393.566 1441.97 397.752 1444.92 402.044 1447.71C403.519 1448.68 404.098 1450.96 403.337 1452.83C402.577 1454.69 400.766 1455.42 399.292 1454.46C394.884 1451.59 390.58 1448.56 386.39 1445.36C382.16 1442.13 377.917 1439.03 373.664 1436.05C372.213 1435.04 371.688 1432.73 372.492 1430.89ZM743.788 1441.12C744.477 1443.03 743.813 1445.28 742.305 1446.15C733.573 1451.2 724.471 1455.9 715.066 1460.25C713.508 1460.97 711.784 1459.95 711.214 1457.99C710.644 1456.02 711.446 1453.84 713.004 1453.12C722.27 1448.84 731.227 1444.21 739.808 1439.25C741.316 1438.38 743.098 1439.22 743.788 1441.12ZM424.565 1464.63C425.145 1462.66 426.875 1461.67 428.429 1462.4C437.321 1466.59 446.531 1470.24 455.997 1473.38C457.602 1473.91 458.562 1475.98 458.142 1478.01C457.721 1480.04 456.08 1481.25 454.475 1480.72C444.826 1477.52 435.422 1473.8 426.33 1469.51C424.776 1468.78 423.986 1466.59 424.565 1464.63ZM689.128 1467.09C689.589 1469.1 688.671 1471.21 687.078 1471.79C677.779 1475.19 668.271 1478.25 658.607 1480.97C656.988 1481.42 655.383 1480.13 655.023 1478.09C654.664 1476.04 655.685 1474.01 657.304 1473.56C666.847 1470.88 676.234 1467.85 685.408 1464.5C687.002 1463.92 688.667 1465.07 689.128 1467.09ZM28.2279 1479.64C29.6203 1480.78 30.0183 1483.13 29.1168 1484.89C23.896 1495.08 19.4808 1505.9 15.9532 1517.31C15.3498 1519.26 13.6081 1520.23 12.063 1519.47C10.5179 1518.7 9.75454 1516.5 10.358 1514.55C14.0359 1502.65 18.6378 1491.37 24.0745 1480.76C24.9759 1479 26.8355 1478.5 28.2279 1479.64ZM632.205 1483.59C632.467 1485.66 631.351 1487.6 629.713 1487.93C620.078 1489.88 610.348 1491.48 600.572 1492.71C598.922 1492.92 597.45 1491.39 597.286 1489.31C597.121 1487.22 598.326 1485.36 599.976 1485.16C609.633 1483.94 619.246 1482.36 628.765 1480.44C630.402 1480.11 631.943 1481.52 632.205 1483.59ZM480.835 1484.17C481.115 1482.1 482.667 1480.71 484.302 1481.07C493.721 1483.1 503.314 1484.68 513.025 1485.83C514.676 1486.03 515.89 1487.88 515.736 1489.96C515.581 1492.05 514.117 1493.58 512.466 1493.39C502.61 1492.22 492.866 1490.62 483.289 1488.55C481.654 1488.19 480.555 1486.23 480.835 1484.17ZM574.13 1491.34C574.195 1493.44 572.904 1495.2 571.246 1495.28C561.427 1495.76 551.613 1495.86 541.855 1495.56C540.197 1495.51 538.886 1493.77 538.926 1491.67C538.967 1489.58 540.344 1487.92 542.003 1487.97C551.63 1488.27 561.317 1488.17 571.013 1487.7C572.67 1487.62 574.066 1489.25 574.13 1491.34ZM5.78052 1548.05C7.415 1548.41 8.5109 1550.37 8.22827 1552.43C6.6348 1564.08 5.87672 1576.21 6.02509 1588.78C6.04982 1590.88 4.72534 1592.6 3.06678 1592.63C1.40823 1592.66 0.0436513 1590.99 0.0189218 1588.89C-0.134878 1575.86 0.650728 1563.26 2.30927 1551.14C2.5919 1549.08 4.14603 1547.69 5.78052 1548.05Z" fill="url(#paint0_linear_462_4538)"/>
<defs>
<linearGradient id="paint0_linear_462_4538" x1="253.002" y1="113.999" x2="471.001" y2="1543" gradientUnits="userSpaceOnUse">
<stop stop-color="#B17B3B"/>
<stop offset="1" stop-color="white"/>
</linearGradient>
</defs>
</svg>
