<svg width="50" height="37" viewBox="0 0 50 37" fill="none" xmlns="http://www.w3.org/2000/svg">
<g clip-path="url(#clip0_830_1118)">
<path d="M43.1955 18.5C43.1955 8.55888 35.049 0.500011 24.9999 0.500011C14.9507 0.500011 6.8042 8.55888 6.8042 18.5C6.8042 27.4843 13.4581 34.931 22.1568 36.2813V23.7031H17.5368V18.5H22.1568V14.5344C22.1568 10.0231 24.8733 7.53126 29.0296 7.53126C31.0203 7.53126 33.1026 7.88282 33.1026 7.88282V12.3125H30.8082C28.5478 12.3125 27.8429 13.7 27.8429 15.1235V18.5H32.8894L32.0827 23.7031H27.8429V36.2813C36.5416 34.931 43.1955 27.4843 43.1955 18.5Z" fill="#1877F2"/>
<path d="M32.0827 23.7031L32.8894 18.5H27.843V15.1235C27.843 13.7 28.5479 12.3125 30.8082 12.3125H33.1027V7.88281C33.1027 7.88281 31.0204 7.53125 29.0296 7.53125C24.8733 7.53125 22.1569 10.0231 22.1569 14.5344V18.5H17.5369V23.7031H22.1569V36.2813C23.0832 36.4251 24.0327 36.5 24.9999 36.5C25.9671 36.5 26.9166 36.4251 27.843 36.2813V23.7031H32.0827Z" fill="white"/>
</g>
<defs>
<clipPath id="clip0_830_1118">
<rect width="48.5217" height="36" fill="white" transform="translate(0.739014 0.5)"/>
</clipPath>
</defs>
</svg>
