<svg width="50" height="37" viewBox="0 0 50 37" fill="none" xmlns="http://www.w3.org/2000/svg">
<g clip-path="url(#clip0_830_632)">
<path d="M28.1043 18.6076C28.1043 25.9685 22.045 31.9355 14.5708 31.9355C7.09666 31.9355 1.03687 25.9685 1.03687 18.6076C1.03687 11.2468 7.0962 5.27927 14.5708 5.27927C22.0455 5.27927 28.1043 11.2468 28.1043 18.6076Z" fill="white"/>
<path d="M42.9507 18.6077C42.9507 25.5363 39.9211 31.1553 36.1837 31.1553C32.4464 31.1553 29.4167 25.5363 29.4167 18.6077C29.4167 11.679 32.446 6.06003 36.1833 6.06003C39.9206 6.06003 42.9503 11.6772 42.9503 18.6077" fill="white"/>
<path d="M49.0236 18.6076C49.0236 24.814 47.9583 29.8483 46.6437 29.8483C45.3291 29.8483 44.2642 24.8153 44.2642 18.6076C44.2642 12.3999 45.3295 7.36691 46.6437 7.36691C47.9578 7.36691 49.0236 12.3995 49.0236 18.6076Z" fill="white"/>
</g>
<defs>
<clipPath id="clip0_830_632">
<rect width="48.5217" height="36" fill="white" transform="translate(0.739014 0.5)"/>
</clipPath>
</defs>
</svg>
