<svg width="55" height="76" viewBox="0 0 55 76" fill="none" xmlns="http://www.w3.org/2000/svg">
<rect x="15.8196" y="0.81543" width="25.1044" height="40.3463" rx="12.5522" stroke="white" stroke-width="1.5217"/>
<path d="M28.3718 9.03418L28.3718 15.0114" stroke="#919191" stroke-width="1.5217" stroke-linecap="round"/>
<path d="M9.14414 60.8617C8.68915 60.8617 8.28032 60.7826 7.91765 60.6243C7.56157 60.4595 7.28132 60.2353 7.07691 59.9517C6.87249 59.6616 6.76698 59.3286 6.76039 58.9527H7.71982C7.75279 59.2758 7.88468 59.5495 8.11547 59.7737C8.35285 59.9913 8.69574 60.1001 9.14414 60.1001C9.57275 60.1001 9.90905 59.9946 10.153 59.7836C10.4036 59.566 10.5289 59.289 10.5289 58.9527C10.5289 58.689 10.4564 58.4747 10.3113 58.3098C10.1662 58.145 9.98488 58.0197 9.76728 57.934C9.54967 57.8482 9.25624 57.7559 8.88697 57.657C8.43198 57.5383 8.06601 57.4196 7.78906 57.3009C7.51871 57.1822 7.28462 56.9976 7.0868 56.747C6.89557 56.4899 6.79996 56.147 6.79996 55.7184C6.79996 55.3425 6.89557 55.0095 7.0868 54.7194C7.27802 54.4292 7.54508 54.205 7.88797 54.0468C8.23746 53.8885 8.6364 53.8094 9.08479 53.8094C9.73101 53.8094 10.2585 53.9709 10.6674 54.294C11.0828 54.6172 11.3169 55.0458 11.3696 55.5799H10.3805C10.3476 55.3161 10.2091 55.0853 9.9651 54.8875C9.72112 54.6831 9.39801 54.5809 8.99577 54.5809C8.61991 54.5809 8.31329 54.6798 8.0759 54.8776C7.83852 55.0688 7.71982 55.3392 7.71982 55.6887C7.71982 55.9393 7.78906 56.1437 7.92754 56.3019C8.07261 56.4602 8.24735 56.5822 8.45176 56.6679C8.66277 56.747 8.95621 56.8393 9.33207 56.9449C9.78706 57.0701 10.153 57.1954 10.43 57.3207C10.7069 57.4394 10.9443 57.6273 11.1421 57.8845C11.34 58.1351 11.4389 58.478 11.4389 58.9132C11.4389 59.2495 11.3498 59.566 11.1718 59.8627C10.9938 60.1595 10.73 60.4001 10.3805 60.5848C10.031 60.7694 9.61891 60.8617 9.14414 60.8617ZM12.4271 58.0724C12.4271 57.5119 12.5392 57.024 12.7634 56.6086C12.9876 56.1865 13.2975 55.8601 13.6932 55.6293C14.0954 55.3986 14.5537 55.2832 15.068 55.2832C15.734 55.2832 16.2813 55.4447 16.71 55.7678C17.1452 56.0909 17.432 56.5393 17.5705 57.113H16.6012C16.5088 56.7833 16.3275 56.5228 16.0571 56.3316C15.7934 56.1404 15.4637 56.0448 15.068 56.0448C14.5537 56.0448 14.1383 56.2228 13.8218 56.5789C13.5053 56.9284 13.347 57.4262 13.347 58.0724C13.347 58.7252 13.5053 59.2297 13.8218 59.5858C14.1383 59.9418 14.5537 60.1199 15.068 60.1199C15.4637 60.1199 15.7934 60.0276 16.0571 59.8429C16.3209 59.6583 16.5022 59.3945 16.6012 59.0517H17.5705C17.4254 59.6056 17.1353 60.0507 16.7001 60.3869C16.2649 60.7166 15.7209 60.8815 15.068 60.8815C14.5537 60.8815 14.0954 60.7661 13.6932 60.5353C13.2975 60.3045 12.9876 59.9781 12.7634 59.5561C12.5392 59.1341 12.4271 58.6395 12.4271 58.0724ZM19.6716 56.2525C19.8298 55.9426 20.054 55.7019 20.3442 55.5304C20.6409 55.359 21.0003 55.2733 21.4223 55.2733V56.203H21.1849C20.176 56.203 19.6716 56.7503 19.6716 57.8449V60.7925H18.7715V55.3722H19.6716V56.2525ZM24.8253 60.8815C24.3175 60.8815 23.8559 60.7661 23.4405 60.5353C23.0317 60.3045 22.7086 59.9781 22.4712 59.5561C22.2404 59.1275 22.125 58.6329 22.125 58.0724C22.125 57.5185 22.2437 57.0306 22.4811 56.6086C22.7251 56.1799 23.0548 55.8535 23.4702 55.6293C23.8856 55.3986 24.3505 55.2832 24.8648 55.2832C25.3792 55.2832 25.8441 55.3986 26.2595 55.6293C26.6749 55.8535 27.0013 56.1766 27.2387 56.5987C27.4827 57.0207 27.6047 57.5119 27.6047 58.0724C27.6047 58.6329 27.4794 59.1275 27.2288 59.5561C26.9848 59.9781 26.6518 60.3045 26.2298 60.5353C25.8078 60.7661 25.3396 60.8815 24.8253 60.8815ZM24.8253 60.0902C25.1484 60.0902 25.4517 60.0144 25.7352 59.8627C26.0188 59.7111 26.2463 59.4836 26.4177 59.1802C26.5958 58.8769 26.6848 58.5076 26.6848 58.0724C26.6848 57.6372 26.5991 57.268 26.4276 56.9646C26.2562 56.6613 26.032 56.4371 25.755 56.292C25.4781 56.1404 25.1781 56.0645 24.8549 56.0645C24.5252 56.0645 24.2219 56.1404 23.945 56.292C23.6746 56.4371 23.457 56.6613 23.2922 56.9646C23.1273 57.268 23.0449 57.6372 23.0449 58.0724C23.0449 58.5142 23.124 58.8868 23.2823 59.1901C23.4471 59.4935 23.6647 59.7209 23.9351 59.8726C24.2054 60.0177 24.5022 60.0902 24.8253 60.0902ZM29.6882 53.4731V60.7925H28.7881V53.4731H29.6882ZM32.1223 53.4731V60.7925H31.2222V53.4731H32.1223ZM38.4991 56.114H37.3616V60.7925H36.4615V56.114H35.7592V55.3722H36.4615V54.9864C36.4615 54.3798 36.6165 53.938 36.9264 53.661C37.2429 53.3775 37.7473 53.2357 38.4397 53.2357V53.9874C38.0441 53.9874 37.7638 54.0666 37.599 54.2248C37.4407 54.3765 37.3616 54.6303 37.3616 54.9864V55.3722H38.4991V56.114ZM41.9125 60.8815C41.4047 60.8815 40.9432 60.7661 40.5277 60.5353C40.1189 60.3045 39.7958 59.9781 39.5584 59.5561C39.3276 59.1275 39.2122 58.6329 39.2122 58.0724C39.2122 57.5185 39.3309 57.0306 39.5683 56.6086C39.8123 56.1799 40.142 55.8535 40.5574 55.6293C40.9728 55.3986 41.4377 55.2832 41.952 55.2832C42.4664 55.2832 42.9313 55.3986 43.3467 55.6293C43.7621 55.8535 44.0885 56.1766 44.3259 56.5987C44.5699 57.0207 44.6919 57.5119 44.6919 58.0724C44.6919 58.6329 44.5666 59.1275 44.316 59.5561C44.072 59.9781 43.739 60.3045 43.317 60.5353C42.895 60.7661 42.4268 60.8815 41.9125 60.8815ZM41.9125 60.0902C42.2356 60.0902 42.5389 60.0144 42.8225 59.8627C43.106 59.7111 43.3335 59.4836 43.5049 59.1802C43.683 58.8769 43.772 58.5076 43.772 58.0724C43.772 57.6372 43.6863 57.268 43.5148 56.9646C43.3434 56.6613 43.1192 56.4371 42.8422 56.292C42.5653 56.1404 42.2653 56.0645 41.9422 56.0645C41.6125 56.0645 41.3091 56.1404 41.0322 56.292C40.7618 56.4371 40.5442 56.6613 40.3794 56.9646C40.2145 57.268 40.1321 57.6372 40.1321 58.0724C40.1321 58.5142 40.2112 58.8868 40.3695 59.1901C40.5343 59.4935 40.7519 59.7209 41.0223 59.8726C41.2926 60.0177 41.5894 60.0902 41.9125 60.0902ZM46.7754 56.2525C46.9337 55.9426 47.1579 55.7019 47.448 55.5304C47.7447 55.359 48.1041 55.2733 48.5261 55.2733V56.203H48.2887C47.2799 56.203 46.7754 56.7503 46.7754 57.8449V60.7925H45.8753V55.3722H46.7754V56.2525ZM6.09282 67.2733C6.75223 67.2733 7.28634 67.4744 7.69518 67.8766C8.10401 68.2723 8.30842 68.8459 8.30842 69.5977V72.7925H7.41823V69.7262C7.41823 69.1855 7.28305 68.7734 7.01269 68.4899C6.74234 68.1997 6.37307 68.0547 5.90489 68.0547C5.43012 68.0547 5.05096 68.203 4.76742 68.4998C4.49047 68.7965 4.35199 69.2284 4.35199 69.7955V72.7925H3.45191V67.3722H4.35199V68.1437C4.53003 67.8667 4.77072 67.6524 5.07404 67.5008C5.38396 67.3491 5.72356 67.2733 6.09282 67.2733ZM14.7242 69.8746C14.7242 70.0461 14.7144 70.2274 14.6946 70.4186H10.3623C10.3953 70.9527 10.5766 71.3715 10.9063 71.6748C11.2426 71.9715 11.6481 72.1199 12.1229 72.1199C12.5119 72.1199 12.8351 72.0309 13.0922 71.8528C13.356 71.6682 13.5406 71.4242 13.6461 71.1209H14.6154C14.4704 71.6418 14.1802 72.0671 13.745 72.3968C13.3098 72.7199 12.7691 72.8815 12.1229 72.8815C11.6086 72.8815 11.147 72.7661 10.7381 72.5353C10.3359 72.3045 10.0194 71.9781 9.7886 71.5561C9.55781 71.1275 9.44242 70.6329 9.44242 70.0724C9.44242 69.5119 9.55452 69.0207 9.77871 68.5987C10.0029 68.1766 10.3161 67.8535 10.7184 67.6293C11.1272 67.3986 11.5954 67.2832 12.1229 67.2832C12.6372 67.2832 13.0922 67.3953 13.4879 67.6195C13.8835 67.8436 14.1868 68.1536 14.3978 68.5492C14.6154 68.9383 14.7242 69.3801 14.7242 69.8746ZM13.7945 69.6867C13.7945 69.3438 13.7187 69.0504 13.567 68.8064C13.4153 68.5558 13.2076 68.3679 12.9439 68.2426C12.6867 68.1107 12.3998 68.0448 12.0833 68.0448C11.6283 68.0448 11.2393 68.1898 10.9162 68.48C10.5997 68.7701 10.4183 69.1723 10.3722 69.6867H13.7945ZM18.7412 72.7925L17.4553 70.7747L16.219 72.7925H15.2793L17.03 70.1021L15.2793 67.3722H16.2981L17.5839 69.3801L18.8104 67.3722H19.7501L18.0092 70.0527L19.76 72.7925H18.7412ZM21.7433 68.114V71.3088C21.7433 71.5726 21.7993 71.7605 21.9114 71.8726C22.0235 71.9781 22.218 72.0309 22.495 72.0309H23.1577V72.7925H22.3466C21.8455 72.7925 21.4696 72.6771 21.219 72.4463C20.9685 72.2155 20.8432 71.8363 20.8432 71.3088V68.114H20.1409V67.3722H20.8432V66.0072H21.7433V67.3722H23.1577V68.114H21.7433ZM27.7853 68.3712C27.9634 68.0613 28.2271 67.8041 28.5766 67.5997C28.9327 67.3887 29.3448 67.2832 29.813 67.2832C30.2944 67.2832 30.7296 67.3986 31.1186 67.6293C31.5143 67.8601 31.8242 68.1865 32.0484 68.6086C32.2726 69.024 32.3847 69.5086 32.3847 70.0625C32.3847 70.6099 32.2726 71.0978 32.0484 71.5264C31.8242 71.955 31.5143 72.288 31.1186 72.5254C30.7296 72.7628 30.2944 72.8815 29.813 72.8815C29.3514 72.8815 28.9426 72.7793 28.5865 72.5749C28.237 72.3639 27.97 72.1034 27.7853 71.7935V75.3642H26.8852V67.3722H27.7853V68.3712ZM31.4648 70.0625C31.4648 69.6537 31.3824 69.2976 31.2175 68.9943C31.0527 68.691 30.8285 68.4602 30.5449 68.3019C30.268 68.1437 29.9614 68.0645 29.6251 68.0645C29.2954 68.0645 28.9887 68.147 28.7052 68.3118C28.4282 68.4701 28.2041 68.7042 28.0326 69.0141C27.8678 69.3174 27.7853 69.6702 27.7853 70.0724C27.7853 70.4813 27.8678 70.8406 28.0326 71.1506C28.2041 71.4539 28.4282 71.688 28.7052 71.8528C28.9887 72.0111 29.2954 72.0902 29.6251 72.0902C29.9614 72.0902 30.268 72.0111 30.5449 71.8528C30.8285 71.688 31.0527 71.4539 31.2175 71.1506C31.3824 70.8406 31.4648 70.478 31.4648 70.0625ZM33.2331 70.0625C33.2331 69.5086 33.3452 69.024 33.5694 68.6086C33.7936 68.1865 34.1003 67.8601 34.4893 67.6293C34.885 67.3986 35.3235 67.2832 35.8048 67.2832C36.2796 67.2832 36.6917 67.3854 37.0412 67.5898C37.3907 67.7942 37.6512 68.0514 37.8226 68.3613V67.3722H38.7326V72.7925H37.8226V71.7836C37.6446 72.1001 37.3775 72.3639 37.0214 72.5749C36.6719 72.7793 36.2631 72.8815 35.7949 72.8815C35.3136 72.8815 34.8784 72.7628 34.4893 72.5254C34.1003 72.288 33.7936 71.955 33.5694 71.5264C33.3452 71.0978 33.2331 70.6099 33.2331 70.0625ZM37.8226 70.0724C37.8226 69.6636 37.7402 69.3075 37.5753 69.0042C37.4105 68.7009 37.1863 68.4701 36.9027 68.3118C36.6258 68.147 36.3192 68.0645 35.9829 68.0645C35.6466 68.0645 35.3399 68.1437 35.063 68.3019C34.786 68.4602 34.5651 68.691 34.4003 68.9943C34.2354 69.2976 34.153 69.6537 34.153 70.0625C34.153 70.478 34.2354 70.8406 34.4003 71.1506C34.5651 71.4539 34.786 71.688 35.063 71.8528C35.3399 72.0111 35.6466 72.0902 35.9829 72.0902C36.3192 72.0902 36.6258 72.0111 36.9027 71.8528C37.1863 71.688 37.4105 71.4539 37.5753 71.1506C37.7402 70.8406 37.8226 70.4813 37.8226 70.0724ZM42.489 67.2832C42.9572 67.2832 43.366 67.3854 43.7155 67.5898C44.0716 67.7942 44.3354 68.0514 44.5068 68.3613V67.3722H45.4168V72.9112C45.4168 73.4057 45.3113 73.8442 45.1003 74.2267C44.8893 74.6157 44.5859 74.9191 44.1903 75.1367C43.8012 75.3543 43.3462 75.4631 42.8253 75.4631C42.1132 75.4631 41.5197 75.2949 41.0449 74.9586C40.5702 74.6223 40.2899 74.164 40.2042 73.5838H41.0944C41.1933 73.9135 41.3977 74.1772 41.7076 74.3751C42.0175 74.5795 42.3901 74.6817 42.8253 74.6817C43.3199 74.6817 43.7221 74.5267 44.032 74.2168C44.3485 73.9069 44.5068 73.4717 44.5068 72.9112V71.7737C44.3288 72.0902 44.065 72.354 43.7155 72.565C43.366 72.776 42.9572 72.8815 42.489 72.8815C42.0077 72.8815 41.5692 72.7628 41.1735 72.5254C40.7845 72.288 40.4778 71.955 40.2536 71.5264C40.0294 71.0978 39.9173 70.6099 39.9173 70.0625C39.9173 69.5086 40.0294 69.024 40.2536 68.6086C40.4778 68.1865 40.7845 67.8601 41.1735 67.6293C41.5692 67.3986 42.0077 67.2832 42.489 67.2832ZM44.5068 70.0724C44.5068 69.6636 44.4244 69.3075 44.2595 69.0042C44.0947 68.7009 43.8705 68.4701 43.5869 68.3118C43.31 68.147 43.0034 68.0645 42.6671 68.0645C42.3308 68.0645 42.0241 68.1437 41.7472 68.3019C41.4702 68.4602 41.2493 68.691 41.0845 68.9943C40.9196 69.2976 40.8372 69.6537 40.8372 70.0625C40.8372 70.478 40.9196 70.8406 41.0845 71.1506C41.2493 71.4539 41.4702 71.688 41.7472 71.8528C42.0241 72.0111 42.3308 72.0902 42.6671 72.0902C43.0034 72.0902 43.31 72.0111 43.5869 71.8528C43.8705 71.688 44.0947 71.4539 44.2595 71.1506C44.4244 70.8406 44.5068 70.4813 44.5068 70.0724ZM51.8834 69.8746C51.8834 70.0461 51.8735 70.2274 51.8537 70.4186H47.5214C47.5544 70.9527 47.7357 71.3715 48.0654 71.6748C48.4017 71.9715 48.8072 72.1199 49.282 72.1199C49.6711 72.1199 49.9942 72.0309 50.2513 71.8528C50.5151 71.6682 50.6997 71.4242 50.8052 71.1209H51.7746C51.6295 71.6418 51.3394 72.0671 50.9042 72.3968C50.4689 72.7199 49.9282 72.8815 49.282 72.8815C48.7677 72.8815 48.3061 72.7661 47.8973 72.5353C47.495 72.3045 47.1785 71.9781 46.9477 71.5561C46.7169 71.1275 46.6015 70.6329 46.6015 70.0724C46.6015 69.5119 46.7136 69.0207 46.9378 68.5987C47.162 68.1766 47.4753 67.8535 47.8775 67.6293C48.2863 67.3986 48.7545 67.2832 49.282 67.2832C49.7964 67.2832 50.2513 67.3953 50.647 67.6195C51.0426 67.8436 51.346 68.1536 51.557 68.5492C51.7746 68.9383 51.8834 69.3801 51.8834 69.8746ZM50.9536 69.6867C50.9536 69.3438 50.8778 69.0504 50.7261 68.8064C50.5745 68.5558 50.3667 68.3679 50.103 68.2426C49.8458 68.1107 49.559 68.0448 49.2425 68.0448C48.7875 68.0448 48.3984 68.1898 48.0753 68.48C47.7588 68.7701 47.5775 69.1723 47.5313 69.6867H50.9536Z" fill="white"/>
</svg>
