<svg width="111" height="24" viewBox="0 0 111 24" fill="none" xmlns="http://www.w3.org/2000/svg">
<g clip-path="url(#clip0_417_20531)">
<path d="M0.469238 1.69971C0.811163 1.22968 1.28581 1.15778 1.83787 1.1587C11.4486 1.16976 21.0594 1.17256 30.6701 1.16703C30.8231 1.16703 30.977 1.16703 31.131 1.16703C31.7678 1.17808 32.0756 1.48591 32.0765 2.13289C32.0765 5.97118 32.0765 9.80945 32.0765 13.6477C32.0765 13.9703 32.0812 14.2929 32.0765 14.6145C32.0646 15.1472 31.8507 15.397 31.3199 15.4781C31.1216 15.4999 30.922 15.507 30.7227 15.4993C21.0972 15.4993 11.471 15.5017 1.8443 15.5067C1.30054 15.5067 0.807478 15.4606 0.471083 14.9703L0.469238 1.69971ZM25.6362 4.92541H26.2214C27.2352 4.92541 28.249 4.92541 29.2628 4.92541C29.3928 4.92541 29.6315 4.88118 29.6315 4.83879C29.6683 4.47566 29.7024 4.1015 29.6398 3.74759C29.6241 3.66004 29.2499 3.58995 29.0407 3.58995C24.3711 3.58073 19.7031 3.5786 15.0365 3.58351C14.1545 3.58351 14.1711 3.58352 14.1711 4.46829C14.1711 4.83694 14.3084 4.94199 14.6605 4.93554C15.689 4.91803 16.7176 4.92818 17.7461 4.93095C17.9074 4.93095 18.0687 4.94937 18.2687 4.96227V13.3307C18.4595 13.3445 18.6088 13.3657 18.759 13.3657C20.8787 13.3657 22.9985 13.3556 25.1182 13.3768C25.5597 13.3814 25.6472 13.2219 25.6445 12.8173C25.6279 10.3916 25.6353 7.96586 25.6353 5.53644L25.6362 4.92541ZM5.68014 13.3371C5.88658 13.3482 6.03681 13.3629 6.18611 13.3629C8.27361 13.3629 10.362 13.3528 12.4486 13.3731C12.8744 13.3731 12.9536 13.2219 12.9518 12.8376C12.9383 9.93633 12.9383 7.03533 12.9518 4.13465C12.9518 3.66738 12.7831 3.56876 12.362 3.57244C10.3209 3.5878 8.27945 3.5878 6.23773 3.57244C5.79074 3.56784 5.66538 3.70977 5.66815 4.15031C5.68566 7.03593 5.67737 9.92157 5.67737 12.8072L5.68014 13.3371Z" fill="white"/>
<path d="M99.8524 7.94208C100.162 8.10429 100.36 8.20383 100.555 8.31074C101.248 8.68953 101.609 9.29688 101.624 10.0618C101.657 11.6885 101.639 13.317 101.654 14.9465C101.654 15.246 101.554 15.352 101.254 15.3474C100.41 15.3336 99.5649 15.328 98.7207 15.3474C98.3603 15.3566 98.2792 15.1981 98.2811 14.8801C98.2903 13.4989 98.2903 12.1164 98.2811 10.7328C98.2734 10.3344 98.2426 9.93682 98.1889 9.54202C98.1364 9.11807 97.7087 8.82133 97.3216 8.96695C97.2156 9.00658 97.1327 9.25078 97.1318 9.40193C97.1189 11.1678 97.1235 12.9346 97.1226 14.7004C97.1226 15.3382 97.1226 15.3391 96.5005 15.3391C95.6867 15.3391 94.871 15.3161 94.0591 15.3492C93.6121 15.3667 93.483 15.2165 93.4849 14.7769C93.5006 11.3669 93.4932 7.95684 93.4932 4.54681C93.4932 3.56343 93.5033 2.58097 93.4886 1.5976C93.484 1.25751 93.5992 1.13675 93.9429 1.15334C95.6756 1.21785 97.4101 1.2409 99.1409 1.32385C100.389 1.38376 101.261 2.2455 101.486 3.46574C101.686 4.4582 101.693 5.47991 101.506 6.47486C101.36 7.21861 100.953 7.64073 100.236 7.7974C100.106 7.83894 99.9776 7.88722 99.8524 7.94208V7.94208ZM97.1318 3.60214C97.1318 4.58552 97.1318 5.5744 97.1391 6.56423C97.1488 6.60608 97.1681 6.64515 97.1954 6.67826C97.2228 6.71138 97.2575 6.73766 97.2968 6.75503C97.564 6.86287 98.1493 6.57068 98.1714 6.28774C98.2221 5.63523 98.2755 4.97446 98.2239 4.32563C98.176 3.71643 97.8636 3.54316 97.1318 3.60214V3.60214Z" fill="white"/>
<path d="M83.6733 8.21026C83.6733 6.93657 83.6429 5.66285 83.6798 4.39008C83.7323 2.627 84.8438 1.39389 86.5728 1.02708C88.0529 0.712801 89.4344 0.856537 90.6888 1.74868C91.0159 1.97813 91.2911 2.27393 91.4964 2.61675C91.7017 2.95958 91.8326 3.34178 91.8805 3.73851C91.9931 4.61918 92.0518 5.5059 92.0565 6.39373C92.0798 8.0969 92.074 9.80035 92.039 11.5041C92.0309 12.0552 91.9516 12.6029 91.803 13.1336C91.4233 14.4534 90.4648 15.2054 89.1672 15.492C87.9137 15.7685 86.6659 15.7215 85.4899 15.1114C84.3516 14.5207 83.76 13.5446 83.6955 12.305C83.6254 10.9438 83.6798 9.57519 83.6798 8.21026H83.6733ZM87.2244 8.28951H87.2308C87.2308 9.62311 87.2308 10.9558 87.2308 12.2894C87.2308 12.4866 87.2115 12.7226 87.3082 12.8719C87.4234 13.0497 87.6566 13.2635 87.8336 13.2589C88.0105 13.2543 88.2437 13.0193 88.3119 12.8331C88.4151 12.5566 88.4225 12.2313 88.4234 11.9272C88.4308 9.41299 88.4308 6.89909 88.4234 4.38549C88.4234 4.14403 88.4151 3.87765 88.3165 3.66659C88.2354 3.49333 88.0179 3.28228 87.8557 3.27675C87.6935 3.27122 87.429 3.45464 87.3516 3.62146C87.241 3.85832 87.229 4.15506 87.2271 4.42694C87.2188 5.71446 87.2244 7.00199 87.2244 8.28951Z" fill="white"/>
<path d="M57.4206 7.93906C57.7118 8.08652 57.8971 8.18236 58.0833 8.2736C58.7284 8.58879 59.1376 9.10306 59.1607 9.81548C59.216 11.5481 59.2288 13.2817 59.2353 15.0153C59.2353 15.1241 59.0289 15.324 58.9136 15.3268C58.0086 15.3526 57.1026 15.3342 56.1967 15.3453C55.8391 15.3453 55.8603 15.1232 55.8603 14.8844C55.8603 13.3803 55.8603 11.8762 55.8603 10.3685C55.8603 10.0634 55.8603 9.74361 55.7681 9.45975C55.7277 9.35892 55.6678 9.26707 55.5917 9.18956C55.5156 9.11204 55.4249 9.05037 55.3248 9.00811C54.8447 8.82378 54.6797 8.9648 54.6797 9.47815C54.6797 11.244 54.6659 13.0089 54.6861 14.7748C54.6917 15.2144 54.5608 15.3664 54.1129 15.3499C53.2539 15.3185 52.3931 15.3296 51.5323 15.3499C51.2088 15.3554 51.066 15.278 51.0669 14.9167C51.0767 10.4652 51.0767 6.01344 51.0669 1.56135C51.0669 1.26459 51.1591 1.15309 51.4604 1.16323C53.2539 1.2259 55.0483 1.25536 56.8409 1.33738C58.0151 1.3936 58.9607 2.33277 59.0998 3.6249C59.1878 4.49162 59.1989 5.36441 59.133 6.23309C59.0648 7.24228 58.7432 7.55379 57.7644 7.82106C57.6897 7.83949 57.6206 7.86901 57.4206 7.93906ZM54.7009 5.15202C54.7009 5.48934 54.7009 5.82574 54.7009 6.16582C54.7055 6.79529 54.935 6.95567 55.4815 6.6377C55.6658 6.53172 55.8114 6.23218 55.8326 6.00822C55.8843 5.4617 55.8584 4.90778 55.852 4.35757C55.8474 3.89675 55.5755 3.6728 55.1525 3.57972C54.8677 3.51612 54.7046 3.60459 54.7046 3.9161L54.7009 5.15202Z" fill="white"/>
<path d="M67.1711 7.95478C67.2061 8.00547 67.2181 8.04695 67.2411 8.05248C68.4946 8.49302 68.8881 9.43491 68.8503 10.6856C68.8079 12.0809 68.83 13.479 68.8503 14.8753C68.8558 15.2393 68.7443 15.3601 68.3803 15.3499C67.5831 15.3278 66.784 15.325 65.984 15.3499C65.5841 15.3628 65.49 15.196 65.4937 14.8338C65.5079 13.4679 65.5079 12.1018 65.4937 10.7353C65.5009 10.3213 65.4604 9.90785 65.373 9.5031C65.3356 9.39425 65.276 9.29435 65.198 9.20978C65.1199 9.12521 65.0251 9.05781 64.9196 9.01187C64.4468 8.82754 64.3205 8.94369 64.3196 9.45428C64.3196 11.2505 64.3104 13.0486 64.326 14.8421C64.326 15.2163 64.2237 15.3601 63.8339 15.349C62.9602 15.326 62.0828 15.3297 61.21 15.349C60.8588 15.3564 60.7178 15.2504 60.7188 14.8808C60.728 10.457 60.728 6.03593 60.7188 1.61763C60.7188 1.29045 60.8109 1.14855 61.163 1.16145C62.8947 1.22596 64.6283 1.24807 66.3591 1.33286C67.5646 1.39184 68.4356 2.22315 68.6752 3.40099C68.8802 4.40899 68.8952 5.44638 68.7194 6.45988C68.5876 7.24234 68.1499 7.64416 67.4208 7.81006C67.3613 7.82401 67.3033 7.84378 67.2476 7.86906C67.2236 7.88011 67.2089 7.91147 67.1711 7.95478ZM64.3196 5.15853V6.35665C64.3196 6.37231 64.314 6.39077 64.3196 6.40183C64.3988 6.52625 64.4578 6.72715 64.5647 6.75756C64.9085 6.85433 65.3564 6.57879 65.3877 6.22673C65.4439 5.60647 65.4403 4.97973 65.4495 4.35579C65.4435 4.23273 65.4121 4.11225 65.3573 4.0019C65.1942 3.63325 64.8504 3.55305 64.5168 3.59544C64.4246 3.6065 64.3426 3.95399 64.3242 4.15306C64.2956 4.483 64.3186 4.82213 64.3196 5.15853V5.15853Z" fill="white"/>
<path d="M43.6742 8.2435C43.6742 6.07859 43.6871 3.91181 43.6641 1.74875C43.6641 1.2778 43.8042 1.15064 44.2677 1.15801C45.9267 1.18566 47.5856 1.17737 49.2445 1.15801C49.5994 1.15801 49.7422 1.25018 49.7284 1.61883C49.7044 2.24738 49.7044 2.87683 49.7284 3.50723C49.7422 3.87588 49.5975 3.98834 49.2436 3.97268C48.722 3.94871 48.1994 3.97267 47.6768 3.96345C47.4234 3.95792 47.3128 4.04729 47.3156 4.30627C47.3239 4.98183 47.3257 5.65738 47.3156 6.33386C47.31 6.64629 47.463 6.72651 47.7423 6.72006C48.2178 6.71085 48.6943 6.73018 49.1699 6.72465C49.4408 6.72465 49.5588 6.83065 49.5542 7.10807C49.5441 7.73754 49.545 8.36699 49.5542 8.99646C49.5542 9.26097 49.4344 9.34486 49.1856 9.34117C48.7091 9.3338 48.2326 9.35221 47.757 9.33654C47.4492 9.32732 47.3073 9.42873 47.3119 9.75591C47.3236 10.5547 47.3236 11.3534 47.3119 12.1521C47.3119 12.4627 47.4188 12.5954 47.7423 12.5862C48.3404 12.5687 48.9404 12.5917 49.5385 12.5779C49.8408 12.5705 49.9892 12.6498 49.9782 12.989C49.957 13.6341 49.9643 14.2793 49.9782 14.9244C49.9782 15.2009 49.9155 15.3474 49.5957 15.3456C47.769 15.3354 45.9414 15.3327 44.1148 15.3456C43.7083 15.3456 43.6733 15.1373 43.6742 14.8239C43.6779 12.6317 43.6779 10.4382 43.6742 8.2435Z" fill="white"/>
<path d="M106.574 6.34275C106.721 5.51329 106.862 4.6912 107.018 3.86727C107.174 3.04333 107.328 2.24706 107.509 1.4434C107.534 1.37803 107.575 1.31984 107.628 1.27415C107.681 1.22845 107.744 1.19665 107.813 1.18162C108.807 1.16135 109.803 1.16965 110.864 1.16965C110.651 1.92631 110.461 2.62766 110.256 3.32441C109.887 4.58336 109.499 5.83862 109.125 7.09756C108.848 8.03394 108.572 8.97124 108.305 9.91038C108.244 10.114 108.211 10.3248 108.206 10.5371C108.198 11.95 108.177 13.3638 108.214 14.7766C108.227 15.2697 108.06 15.3738 107.614 15.3535C106.894 15.3213 106.169 15.3194 105.449 15.3535C104.989 15.3757 104.825 15.2411 104.841 14.7637C104.874 13.7665 104.795 12.7638 104.865 11.7702C104.957 10.5122 104.621 9.34268 104.29 8.16392C103.824 6.50498 103.344 4.84605 102.869 3.18711C102.685 2.54197 102.5 1.90601 102.284 1.17055H104.66C105.64 1.17055 105.635 1.17058 105.789 2.12355C106.016 3.52719 106.249 4.92898 106.483 6.33078L106.574 6.34275Z" fill="white"/>
<path d="M36.975 9.65523C36.975 7.93639 36.9648 6.21755 36.9814 4.4941C36.9814 4.10333 36.8801 3.93098 36.4626 3.96047C36.0193 3.99088 35.5723 3.9605 35.128 3.9688C34.8755 3.97433 34.7704 3.87663 34.775 3.61765C34.7861 2.91168 34.787 2.20479 34.775 1.4979C34.775 1.22694 34.8912 1.15967 35.1363 1.15967C37.5608 1.16397 39.986 1.16397 42.4117 1.15967C42.6651 1.15967 42.7739 1.25644 42.772 1.51081C42.7665 2.20204 42.7619 2.89324 42.772 3.58354C42.7785 3.89505 42.631 3.97891 42.349 3.9697C41.9499 3.95587 41.5472 3.99826 41.1509 3.95863C40.6633 3.90886 40.5647 4.11254 40.5666 4.56137C40.5832 7.92348 40.5758 11.2847 40.5758 14.6459C40.5758 15.338 40.5758 15.339 39.868 15.339C39.1003 15.339 38.3316 15.3131 37.5639 15.3481C37.1031 15.3693 36.9519 15.2403 36.9593 14.762C36.9916 13.0634 36.975 11.3593 36.975 9.65523Z" fill="white"/>
<path d="M74.8623 1.16705H78.2548C79.6207 1.16705 80.9865 1.17718 82.3524 1.15967C82.6934 1.15967 82.8132 1.25827 82.8031 1.60388C82.781 2.24779 82.781 2.89293 82.8031 3.5393C82.8151 3.89229 82.6768 4.00014 82.3423 3.97802C81.9598 3.95498 81.5709 4.0084 81.1921 3.96416C80.6935 3.9061 80.617 4.12731 80.6197 4.56601C80.6354 7.83503 80.628 11.104 80.628 14.373C80.628 15.3454 80.628 15.3454 79.6539 15.3454C78.9636 15.3454 78.2714 15.3214 77.582 15.3537C77.1378 15.3749 77.006 15.2238 77.0088 14.7823C77.0245 11.4644 77.0171 8.15207 77.0171 4.83696C77.0171 4.68397 77.0088 4.53006 77.0171 4.37615C77.0328 4.08491 76.9129 3.95863 76.6116 3.96785C76.1369 3.98352 75.6595 3.98535 75.1858 3.96047C75.0724 3.95494 74.8734 3.82593 74.8715 3.74851C74.854 2.90891 74.8623 2.0684 74.8623 1.16705Z" fill="white"/>
<path d="M73.9325 1.16895V14.74C73.9325 15.3418 73.9325 15.3427 73.327 15.3436C72.4827 15.3436 71.6367 15.327 70.7925 15.35C70.4238 15.3611 70.3252 15.222 70.3252 14.869C70.3344 10.4451 70.3372 6.02132 70.3335 1.59749C70.3335 1.41317 70.2727 1.16895 70.5943 1.16895H73.9325Z" fill="white"/>
<path d="M15.8291 22.4999C16.2272 21.6281 16.5931 20.8244 16.9618 20.0217C17.2032 19.4954 17.4788 18.9821 17.6834 18.4411C17.8511 17.9978 18.1147 17.8881 18.5608 18.0402C18.5719 18.1535 18.593 18.2724 18.593 18.3904C18.593 19.7876 18.6013 21.1839 18.5848 22.5801C18.5848 22.7175 18.4419 22.8566 18.3663 22.9893C18.2963 22.8483 18.1682 22.7128 18.1663 22.5672C18.1516 21.417 18.1663 20.2632 18.1617 19.1148C18.1617 18.9544 18.1451 18.7932 18.1359 18.6328L18.0216 18.6097C17.7636 19.1627 17.5 19.7212 17.2484 20.2816C16.9046 21.0484 16.5857 21.8263 16.2217 22.5857C16.1387 22.7589 15.9249 22.9543 15.7526 22.9718C15.6245 22.9866 15.407 22.7645 15.3286 22.6032C14.7572 21.4051 14.2107 20.195 13.654 18.9895C13.5897 18.8395 13.489 18.7081 13.3609 18.607C13.3526 18.7646 13.3361 18.9222 13.337 19.0798C13.337 20.2466 13.3527 21.4124 13.337 22.582C13.337 22.7202 13.1978 22.8584 13.1241 22.9939C13.0587 22.8474 12.9398 22.7018 12.9398 22.5553C12.925 21.1894 12.925 19.8235 12.9398 18.4577C12.9398 18.3029 13.0494 18.0521 13.1628 18.0153C13.4052 17.9351 13.6808 17.9535 13.8153 18.2706C14.0614 18.8466 14.3213 19.4171 14.5757 19.9885C14.9111 20.7424 15.2448 21.4963 15.5895 22.2465C15.6217 22.3138 15.7046 22.3682 15.8291 22.4999Z" fill="white"/>
<path d="M65.5633 22.3866C65.6366 22.2474 65.7019 22.1039 65.7586 21.9571C66.1445 20.7609 66.5261 19.5627 66.9033 18.3628C66.9844 18.1056 67.0793 17.902 67.4563 18.0504C67.2075 18.8144 66.9614 19.5664 66.719 20.3185C66.4766 21.0705 66.236 21.8032 65.9973 22.5461C65.9209 22.7866 65.8379 23.0723 65.5255 22.9774C65.4302 22.9372 65.3444 22.8776 65.2735 22.8023C65.2026 22.7271 65.1481 22.638 65.1135 22.5405C64.7448 21.3728 64.4075 20.1932 64.0536 19.0199C64.0149 18.8927 63.932 18.7775 63.814 18.5471C63.5735 19.2909 63.3532 19.9296 63.1596 20.5812C62.9504 21.2687 62.7781 21.9682 62.5514 22.6493C62.5143 22.7301 62.4591 22.8013 62.3901 22.8572C62.321 22.9132 62.24 22.9524 62.1532 22.9719C62.038 22.9875 61.8196 22.8216 61.7763 22.6954C61.2897 21.242 60.827 19.7803 60.3616 18.3195C60.3416 18.2325 60.3293 18.144 60.3247 18.055C60.6583 17.8974 60.7385 18.0946 60.8141 18.3397C61.1932 19.5686 61.5772 20.7974 61.9661 22.0263C62.0039 22.1488 62.0583 22.265 62.1118 22.3839L62.2408 22.3903C62.3569 22.0383 62.4822 21.688 62.5882 21.3332C62.8822 20.3489 63.1569 19.3591 63.4712 18.384C63.5219 18.2245 63.7357 18.1176 63.8739 17.9858C63.9928 18.1149 64.1744 18.2246 64.2223 18.3766C64.6121 19.6015 64.9771 20.8337 65.3504 22.0632C65.3799 22.1618 65.414 22.2594 65.4425 22.358L65.5633 22.3866Z" fill="white"/>
<path d="M34.0708 18.6161C34.0708 19.8576 34.08 21.099 34.0625 22.3405C34.0625 22.5543 33.9454 22.7681 33.8828 22.981C33.8127 22.7746 33.6855 22.569 33.6828 22.3608C33.6643 21.0705 33.6643 19.7802 33.6828 18.4899C33.6828 18.3194 33.7934 18.0494 33.9187 18.0024C34.186 17.9028 34.4136 17.9913 34.5583 18.3268C35.1574 19.7166 35.7952 21.0916 36.4578 22.5579C36.5447 22.4294 36.6249 22.2965 36.6984 22.1598C37.2513 20.9497 37.7933 19.7332 38.3573 18.5286C38.4688 18.2899 38.5094 17.9406 38.9259 17.9756C39.1481 17.9922 39.2688 18.0484 39.2679 18.2936C39.2679 19.7525 39.2678 21.2105 39.2586 22.6695C39.2586 22.7745 39.1434 22.8787 39.0826 22.9829C39.0135 22.8732 38.8854 22.7644 38.8845 22.6538C38.8706 21.5184 38.8771 20.382 38.878 19.2438V18.7019L38.7619 18.6558C38.6673 18.7915 38.5815 18.9332 38.5047 19.0797C37.9665 20.265 37.4412 21.4566 36.891 22.6363C36.8218 22.7856 36.632 22.9653 36.4919 22.9699C36.3518 22.9745 36.1481 22.804 36.079 22.6593C35.5362 21.5294 35.0219 20.3857 34.4938 19.2493C34.3869 19.0189 34.2597 18.7996 34.1418 18.5747L34.0708 18.6161Z" fill="white"/>
<path d="M5.18969 22.1184C4.54916 23.1165 3.669 23.2244 2.76857 23.0659C2.30596 22.9724 1.87598 22.7591 1.5216 22.4474C0.679228 21.7028 0.5502 20.1277 1.15295 18.9913C1.60178 18.1508 2.77411 17.6568 3.81555 17.8697C4.85699 18.0826 5.41917 18.6282 5.50857 19.6097C5.30028 19.4955 5.09107 19.4521 5.02287 19.3332C4.44501 18.2927 3.22938 17.9379 2.2119 18.536C1.31423 19.0641 1.00457 20.2005 1.40824 21.4779C1.66261 22.2843 2.56672 22.8013 3.54642 22.7018C4.40998 22.6096 5.06711 21.9995 5.13531 21.2374C5.16296 20.9249 5.06528 20.7765 4.73441 20.7904C4.44291 20.8042 4.15084 20.8005 3.85979 20.7793C3.77868 20.7728 3.7031 20.6751 3.62569 20.6189C3.70863 20.5544 3.78881 20.4346 3.87452 20.4346C4.34916 20.4063 4.82513 20.4094 5.29936 20.4438C5.41733 20.4549 5.5989 20.6853 5.60719 20.8235C5.64129 21.4207 5.633 22.0217 5.61365 22.618C5.61365 22.7414 5.49568 22.8603 5.42932 22.982C5.36718 22.862 5.31119 22.739 5.26158 22.6133C5.22719 22.45 5.20317 22.2847 5.18969 22.1184Z" fill="white"/>
<path d="M46.7349 20.5011C46.7349 19.796 46.7451 19.0892 46.7303 18.3813C46.7239 18.0919 46.8077 17.9629 47.1174 17.9721C47.8077 17.9915 48.4999 17.9611 49.1883 17.9952C50.4058 18.0569 51.1145 18.7325 51.2159 19.949C51.2525 20.4225 51.2355 20.8987 51.1652 21.3684C51.0353 22.2669 50.2869 22.9204 49.3496 22.9664C48.5994 23.0033 47.8464 22.9812 47.0953 23.0015C46.8068 23.0088 46.7266 22.8844 46.7312 22.6162C46.7432 21.913 46.7349 21.2071 46.7349 20.5011ZM47.1718 20.467C47.1718 21.0485 47.1792 21.6301 47.1718 22.2116C47.1718 22.4688 47.264 22.5674 47.5211 22.5618C48.0879 22.5489 48.6556 22.5747 49.2206 22.5425C50.0841 22.4936 50.6758 21.9315 50.7717 21.0744C50.8111 20.7091 50.8151 20.3409 50.7836 19.9748C50.7044 19.0182 50.1496 18.4707 49.1874 18.4081C48.6529 18.3721 48.1155 18.4007 47.5801 18.3767C47.2492 18.3629 47.1598 18.5085 47.1699 18.8154C47.1838 19.3638 47.1709 19.9158 47.1718 20.467Z" fill="white"/>
<path d="M101.204 18.0199C102.222 18.0199 103.173 17.9839 104.119 18.0337C104.627 18.0604 105.09 18.3305 105.219 18.8705C105.373 19.5157 105.279 20.1295 104.558 20.5166C105.521 21.1239 105.082 22.1147 105.346 22.9211C104.978 23.075 104.836 22.9432 104.804 22.6059C104.762 22.1829 104.761 21.7423 104.635 21.3442C104.569 21.1377 104.283 20.8834 104.074 20.8622C103.371 20.8009 102.665 20.7842 101.96 20.8124C101.854 20.8124 101.675 21.0299 101.665 21.1553C101.631 21.6603 101.665 22.169 101.639 22.675C101.633 22.7828 101.495 22.8851 101.417 22.9902C101.346 22.898 101.214 22.8059 101.213 22.7137C101.204 21.1617 101.204 19.6134 101.204 18.0199ZM102.931 18.3572V18.3922C102.61 18.3771 102.289 18.3814 101.969 18.4051C101.855 18.4189 101.677 18.5821 101.67 18.6871C101.639 19.1597 101.639 19.6339 101.67 20.1065C101.675 20.2078 101.845 20.383 101.939 20.383C102.672 20.383 103.407 20.3829 104.135 20.3147C104.596 20.2705 104.812 19.9258 104.818 19.4309C104.825 18.8779 104.642 18.5747 104.161 18.477C103.757 18.3941 103.341 18.3932 102.931 18.3572Z" fill="white"/>
<path d="M27.5293 23.1139C26.5606 23.1139 25.8178 22.9296 25.4501 22.0522C25.3923 21.9289 25.3609 21.7948 25.3579 21.6587C25.3579 21.561 25.4501 21.466 25.4971 21.3693C25.5957 21.4375 25.7496 21.4845 25.7846 21.5776C26.2086 22.6973 27.5689 23.1158 28.5071 22.3554C28.7311 22.1711 28.92 21.7738 28.8868 21.5038C28.8573 21.2651 28.5329 20.96 28.2749 20.8725C27.6859 20.6716 27.0537 20.6015 26.4454 20.4495C25.8372 20.2974 25.5634 19.9886 25.5081 19.4688C25.4436 18.8486 25.6823 18.3739 26.2058 18.0864C26.9763 17.6606 28.2399 17.7758 28.7938 18.3537C28.9606 18.55 29.0924 18.7735 29.1836 19.0145C29.214 19.0855 29.1126 19.2126 29.0721 19.3149C28.9725 19.2679 28.8278 19.2495 28.779 19.1721C28.2057 18.2394 27.4242 17.9804 26.4749 18.4274C26.1063 18.6007 25.9017 18.8883 25.9219 19.2984C25.9422 19.7085 26.2233 19.902 26.5597 19.9933C27.0611 20.1297 27.5735 20.2292 28.0878 20.3159C28.9707 20.4661 29.3716 20.8292 29.3873 21.5305C29.4048 22.337 28.9265 22.913 28.097 23.0632C27.9088 23.0905 27.7193 23.1075 27.5293 23.1139V23.1139Z" fill="white"/>
<path d="M90.2754 20.4787C90.2754 19.7727 90.2828 19.0668 90.2754 18.3589C90.2754 18.0825 90.3676 17.9728 90.6505 17.9746C91.6643 17.9829 92.6781 17.9747 93.6919 17.9866C93.797 17.9866 93.9002 18.1018 94.0034 18.1636C93.8965 18.2373 93.7905 18.3737 93.6818 18.3756C92.8541 18.394 92.0247 18.3964 91.1934 18.3829C90.8496 18.3774 90.6736 18.4751 90.7049 18.8539C90.7312 19.1445 90.7312 19.4369 90.7049 19.7276C90.6662 20.1147 90.8561 20.2022 91.1915 20.1976C91.9123 20.1875 92.6348 20.1829 93.3555 20.2068C93.4993 20.2114 93.6394 20.3516 93.7813 20.429C93.6449 20.4907 93.5104 20.6022 93.3721 20.6059C92.6514 20.6234 91.9298 20.6271 91.2081 20.6059C90.8257 20.5967 90.6819 20.7488 90.7058 21.1248C90.7262 21.4624 90.7262 21.8009 90.7058 22.1386C90.6883 22.4593 90.8164 22.5773 91.1325 22.5727C91.8846 22.5607 92.6366 22.5727 93.3887 22.5727C93.4951 22.558 93.6031 22.5612 93.7085 22.5819C93.8155 22.6374 93.9147 22.7068 94.0034 22.7883C93.9113 22.8583 93.8191 22.9846 93.7159 22.9892C93.2551 23.0123 92.7943 23.0012 92.3334 23.0012C91.7805 23.0012 91.2275 22.9911 90.6745 23.0012C90.3759 23.0086 90.2671 22.8906 90.2727 22.5939C90.2846 21.8907 90.2754 21.1847 90.2754 20.4787Z" fill="white"/>
<path d="M52.7506 20.4622C52.7506 19.771 52.7598 19.0797 52.7506 18.3894C52.745 18.0982 52.8427 17.9729 53.1478 17.9756C54.1303 17.9858 55.1136 17.9756 56.097 17.9885C56.2233 17.9885 56.3458 18.1249 56.4703 18.1977C56.3366 18.2613 56.2039 18.3765 56.0684 18.382C55.2697 18.3999 54.471 18.4014 53.6722 18.3867C53.3201 18.3793 53.1718 18.4964 53.181 18.8622C53.2224 20.4511 52.9386 20.1673 54.4602 20.1977C54.8897 20.2069 55.321 20.182 55.7505 20.2096C55.9044 20.2189 56.0509 20.3368 56.2002 20.405C56.0436 20.476 55.8878 20.6032 55.7284 20.6087C55.0381 20.6308 54.3459 20.6281 53.6565 20.6142C53.3266 20.6078 53.1718 20.7276 53.1847 21.0686C53.1985 21.4373 53.1976 21.8059 53.1847 22.1746C53.1745 22.4732 53.3035 22.5828 53.5966 22.5791C54.4104 22.569 55.2242 22.5663 56.0371 22.5865C56.1836 22.5865 56.3274 22.7183 56.473 22.7893C56.3302 22.8603 56.1892 22.9921 56.0454 22.9948C55.109 23.0133 54.1727 22.9893 53.2363 23.0114C52.8381 23.0206 52.7386 22.8547 52.7487 22.4916C52.7644 21.8133 52.7506 21.1368 52.7506 20.4622Z" fill="white"/>
<path d="M20.32 20.5009C20.32 19.794 20.3283 19.088 20.32 18.3811C20.3145 18.0881 20.4122 17.971 20.7191 17.9747C21.7016 17.9867 22.684 17.9747 23.6683 17.9886C23.7817 17.9886 23.8932 18.1157 24.0066 18.1839C23.8923 18.2521 23.7798 18.3756 23.6646 18.3784C22.8813 18.3959 22.0979 18.4079 21.3163 18.3784C20.9034 18.3646 20.732 18.4871 20.7422 18.9175C20.779 20.4576 20.5449 20.1618 21.99 20.1931C22.4665 20.2032 22.943 20.1802 23.4177 20.2069C23.5439 20.2134 23.6628 20.3507 23.7863 20.4272C23.6674 20.4889 23.5494 20.6014 23.4296 20.6041C22.6923 20.6216 21.955 20.6262 21.2177 20.6041C20.8749 20.5958 20.7643 20.7368 20.7449 21.0649C20.6528 22.5718 20.6528 22.5709 22.1274 22.5709C22.649 22.5709 23.1716 22.5589 23.6941 22.5838C23.8001 22.5884 23.9006 22.734 24.0038 22.8151C23.8988 22.8759 23.7946 22.9884 23.6886 22.9902C22.6905 23.0031 21.6924 22.9902 20.6952 23.0022C20.4104 23.0022 20.3191 22.8833 20.3265 22.6161C20.3265 21.9119 20.321 21.2059 20.32 20.5009Z" fill="white"/>
<path d="M75.8716 20.4723C75.8716 19.7663 75.8605 19.0594 75.8817 18.3526C75.8817 18.2318 76.0264 18.1139 76.1038 17.995C76.1693 18.1111 76.2882 18.2254 76.2882 18.3443C76.3112 18.7885 76.3057 19.2346 76.2955 19.6788C76.2891 19.9424 76.3711 20.0797 76.6596 20.076C77.4884 20.0674 78.3179 20.0674 79.148 20.076C79.4337 20.076 79.5277 19.9461 79.5259 19.6862C79.5259 19.2254 79.5148 18.7645 79.5434 18.3037C79.5498 18.195 79.6964 18.0954 79.7784 17.9922C79.8429 18.0954 79.9627 18.1977 79.9627 18.3009C79.9756 19.7577 79.9756 21.2155 79.9627 22.6741C79.9627 22.7764 79.8374 22.8768 79.7701 22.9782C79.6908 22.8713 79.547 22.7672 79.5415 22.6575C79.5166 22.1045 79.5166 21.5515 79.5305 20.9986C79.5397 20.64 79.43 20.464 79.0328 20.476C78.2669 20.499 77.4983 20.4898 76.7287 20.476C76.4181 20.476 76.2845 20.5847 76.2937 20.9082C76.3103 21.475 76.3112 22.0437 76.2863 22.6105C76.2817 22.7349 76.1435 22.8529 76.066 22.9736C76.0006 22.8575 75.8817 22.7432 75.8771 22.6252C75.8587 21.9146 75.8716 21.193 75.8716 20.4723Z" fill="white"/>
<path d="M84.4296 20.4714C84.4296 19.7645 84.4186 19.0585 84.4398 18.3517C84.4398 18.23 84.5799 18.112 84.6545 17.9922C84.7199 18.1092 84.8342 18.2235 84.8388 18.3443C84.8628 18.7728 84.86 19.2042 84.8462 19.6346C84.8361 19.9442 84.9522 20.0825 85.2729 20.0788C86.0867 20.0686 86.9005 20.0705 87.7143 20.0788C88.0037 20.0788 88.1355 19.9728 88.1272 19.6714C88.1143 19.2272 88.1106 18.7811 88.1346 18.3369C88.141 18.2199 88.2618 18.1083 88.3309 17.995C88.4083 18.0982 88.5521 18.2014 88.553 18.3056C88.5678 19.7642 88.5678 21.2228 88.553 22.6815C88.553 22.7838 88.4028 22.8842 88.3235 22.9847C88.2572 22.8842 88.1392 22.7856 88.1392 22.6824C88.1198 22.0999 88.1189 21.5156 88.1318 20.9313C88.1392 20.617 88.0129 20.4843 87.6996 20.4871C86.9008 20.4944 86.1021 20.4944 85.3033 20.4871C84.9669 20.4871 84.8425 20.6327 84.849 20.9635C84.8628 21.5165 84.8656 22.0695 84.8407 22.6225C84.8352 22.7469 84.696 22.8649 84.6195 22.9856C84.5559 22.8695 84.4416 22.7534 84.4352 22.6354C84.4296 21.9147 84.4296 21.193 84.4296 20.4714Z" fill="white"/>
<path d="M11.5289 23.0412C11.3906 22.9232 11.2155 22.8283 11.1224 22.6818C10.9821 22.463 10.8779 22.2231 10.8137 21.9712C10.7105 21.5426 10.4561 21.4228 10.0423 21.4431C9.45983 21.4698 8.87551 21.4652 8.2912 21.4431C7.96586 21.432 7.776 21.5601 7.65711 21.8504C7.54001 22.1648 7.40048 22.4703 7.23961 22.7647C7.17048 22.8836 6.98616 22.9343 6.85437 23.0163L6.76221 22.8937C7.34468 21.5856 7.92684 20.2785 8.50869 18.9722C8.59978 18.7298 8.71173 18.4957 8.84326 18.2727C8.92897 18.1445 9.10314 18.0109 9.24415 18.0026C9.35935 17.9962 9.54 18.1464 9.59714 18.2708C10.0764 19.3095 10.5326 20.3592 10.9962 21.4043L11.6597 22.9029L11.5289 23.0412ZM9.29577 18.4791L9.15476 18.4607L8.06261 20.9297H10.3667C9.98053 20.056 9.63677 19.2671 9.29208 18.4791H9.29577Z" fill="white"/>
<path d="M95.0361 22.8973C95.6125 21.6027 96.1885 20.3085 96.7642 19.0145C96.8877 18.738 97.0112 18.456 97.1559 18.185C97.3116 17.8975 97.7181 17.8855 97.8499 18.185C98.5411 19.7518 99.212 21.3232 99.8885 22.8936C99.8931 22.9038 99.8802 22.9213 99.8341 23.066C99.6636 22.9139 99.4941 22.8199 99.4093 22.6752C99.2406 22.3867 99.1447 22.0531 98.9632 21.7747C98.9098 21.6946 98.8407 21.6262 98.7601 21.5736C98.6794 21.521 98.5889 21.4853 98.4941 21.4688C97.8351 21.4338 97.1734 21.4614 96.5135 21.4494C96.2306 21.4448 96.0527 21.5416 95.9541 21.8181C95.8347 22.1486 95.6879 22.4686 95.5154 22.7747C95.4481 22.8908 95.2629 22.9388 95.1311 23.0171L95.0361 22.8973ZM98.6489 20.9352C98.26 20.0541 97.9116 19.2615 97.5614 18.4679L97.4333 18.4606L96.3384 20.9352H98.6489Z" fill="white"/>
<path d="M45.4274 23.0816C45.2191 22.9443 45.091 22.8853 44.9989 22.7904C44.9304 22.7077 44.8846 22.6086 44.8661 22.5028C44.6662 21.5674 44.0643 21.3047 43.1796 21.4448C42.8349 21.4983 42.4745 21.4669 42.1215 21.4513C41.7685 21.4356 41.5464 21.5434 41.4414 21.9121C41.3495 22.205 41.2222 22.4857 41.0626 22.748C40.9925 22.8696 40.8368 22.9415 40.7207 23.0355L40.5806 22.9176C40.8119 22.3784 41.0359 21.8356 41.2746 21.3001C41.7289 20.2789 42.1842 19.2587 42.657 18.2476C42.6969 18.1825 42.7506 18.1269 42.8143 18.0847C42.878 18.0425 42.9501 18.0148 43.0257 18.0034C43.0968 18.0049 43.1665 18.0237 43.2287 18.058C43.291 18.0924 43.344 18.1413 43.3832 18.2007C44.0606 19.7121 44.7187 21.231 45.3786 22.7498C45.4039 22.8589 45.4202 22.9699 45.4274 23.0816V23.0816ZM43.1141 18.4947L42.9538 18.4845C42.6229 19.2329 42.2865 19.9775 41.9722 20.7324C41.9529 20.7803 42.1059 20.972 42.1842 20.9748C42.7372 20.9978 43.2846 21.0024 43.833 20.9748C43.9132 20.9748 44.0726 20.7342 44.045 20.6651C43.7519 19.9305 43.4293 19.2108 43.1141 18.4901V18.4947Z" fill="white"/>
<path d="M108.22 20.6985C108.22 20.0534 108.21 19.4082 108.224 18.7631C108.231 18.4811 108.118 18.3797 107.846 18.387C107.447 18.3981 107.046 18.4046 106.648 18.3788C106.531 18.3714 106.422 18.2469 106.31 18.1769C106.427 18.1115 106.544 17.9926 106.662 17.9926C107.859 17.979 109.057 17.979 110.256 17.9926C110.363 17.9926 110.468 18.1041 110.573 18.164C110.468 18.2396 110.366 18.3732 110.256 18.3806C109.873 18.4064 109.489 18.4092 109.105 18.3889C108.771 18.3723 108.645 18.4884 108.652 18.8368C108.67 19.9427 108.659 21.0487 108.658 22.1547C108.671 22.2613 108.67 22.3692 108.654 22.4754C108.602 22.6533 108.528 22.9657 108.449 22.9703C108.094 22.9924 108.233 22.68 108.228 22.4994C108.208 21.8957 108.221 21.2966 108.22 20.6985Z" fill="white"/>
<path d="M72.3564 20.7102C72.3564 20.0964 72.3462 19.4817 72.3564 18.8669C72.3646 18.5213 72.2559 18.3545 71.879 18.3821C71.5106 18.4057 71.1411 18.4039 70.773 18.3767C70.6689 18.3702 70.5712 18.2531 70.4707 18.1877C70.5629 18.1186 70.6624 17.9896 70.7601 17.9887C71.957 17.9751 73.1551 17.9751 74.3544 17.9887C74.4567 17.9887 74.5581 18.1066 74.6595 18.173C74.5508 18.2449 74.4457 18.3702 74.3323 18.3785C73.9803 18.4058 73.6267 18.4083 73.2743 18.3858C72.8983 18.3619 72.7536 18.4992 72.7591 18.8845C72.7757 20.0356 72.7591 21.1886 72.7591 22.3397C72.7718 22.4625 72.7683 22.5864 72.749 22.7083C72.7051 22.8089 72.6461 22.9022 72.5739 22.9848C72.5001 22.8926 72.3665 22.8005 72.3637 22.6991C72.3444 22.0392 72.3536 21.3784 72.3536 20.7185L72.3564 20.7102Z" fill="white"/>
<path d="M69.2442 20.4956C69.2442 21.2016 69.2525 21.9085 69.2359 22.6154C69.2359 22.738 69.1216 22.8587 69.0608 22.9841C68.9889 22.8587 68.8553 22.7343 68.8543 22.608C68.8387 21.1952 68.8405 19.7823 68.8543 18.3685C68.8543 18.2469 68.9668 18.1271 69.0276 18.0063C69.1004 18.1308 69.2322 18.2533 69.2359 18.3805C69.2543 19.0828 69.2442 19.7888 69.2442 20.4956Z" fill="white"/>
</g>
<defs>
<clipPath id="clip0_417_20531">
<rect width="110.395" height="22.25" fill="white" transform="translate(0.469238 0.875)"/>
</clipPath>
</defs>
</svg>
