<svg width="61" height="46" viewBox="0 0 61 46" fill="none" xmlns="http://www.w3.org/2000/svg">
<g clip-path="url(#clip0_313_3115)">
<path d="M60.9303 18.9383H55.9345C55.8567 18.3226 55.7875 17.7094 55.7017 17.098C54.8755 11.2215 50.1519 6.41345 44.2363 5.42131C36.7968 4.17333 29.8449 8.66485 28.0227 15.9012C26.1646 23.2815 30.8234 30.8622 38.311 32.6548C40.5866 33.1994 42.8963 33.2697 45.2183 33.2619C48.1783 33.2573 51.1386 33.2573 54.0992 33.2619H54.6086C49.0203 38.5088 40.303 40.01 32.2903 35.6382C24.0238 31.1285 20.4695 21.2574 23.77 12.5189C27.0328 3.88021 36.3277 -1.28602 45.3461 0.505724C54.0537 2.23936 60.75 9.46532 60.9303 18.9383Z" fill="white"/>
<path d="M52.3625 21.5565H36.1822C36.5752 22.4758 37.201 23.2791 37.9991 23.8885C39.0538 24.7159 40.2835 25.0896 41.6016 25.1894C42.5459 25.2588 43.4938 25.3039 44.4408 25.3065C49.415 25.318 54.3889 25.3198 59.3625 25.3117H60.0137C59.5236 26.3593 59.1035 27.3202 58.6273 28.2525C58.318 28.8253 57.9749 29.3796 57.5998 29.9125C57.5499 29.9761 57.487 30.0287 57.4152 30.0666C57.3435 30.1046 57.2644 30.1271 57.1832 30.1327C52.4281 30.1379 47.6721 30.1579 42.917 30.111C41.051 30.092 39.1912 29.8778 37.4425 29.1458C35.2802 28.2497 33.4647 26.6904 32.2626 24.6966C31.0605 22.7029 30.5352 20.3798 30.7636 18.0684C31.2196 13.3548 34.759 9.47389 39.4984 8.49042C45.4132 7.26413 51.3805 11.1971 52.4771 17.0832C52.7663 18.5649 52.7271 20.0912 52.3625 21.5565V21.5565ZM47.3387 16.9531C46.6604 14.6982 44.075 13.0418 41.4747 13.1519C39.1115 13.2516 36.5576 15.0737 36.1638 16.9531H47.3387Z" fill="white"/>
<path d="M6.7002 5.36397V0H19.524V38.3326H14.172V5.35963L6.7002 5.36397Z" fill="white"/>
<path d="M11.2015 38.3472H6.06215V12.8118H0.403809V7.64209H11.2015V38.3472Z" fill="white"/>
<path d="M46.6116 45.9152H45.711C45.4776 45.0127 45.2442 44.1111 45.0108 43.2103L44.9346 43.2215V45.9014H43.978V41.9614H45.5429C45.7349 42.6899 45.9269 43.4196 46.1188 44.1504L46.2064 44.1443C46.3954 43.4149 46.5853 42.6847 46.7726 41.964H48.3437V45.8987H47.3984V43.238L47.3039 43.2224C47.079 44.1053 46.8505 44.9916 46.6116 45.9152Z" fill="white"/>
<path d="M17.0189 45.9264C16.7117 45.9264 16.4325 45.9524 16.1621 45.916C16.0025 45.8916 15.8576 45.8097 15.7551 45.6862C15.335 45.1051 14.942 44.505 14.4493 43.9317V45.9038H13.3193V41.9422C13.6461 41.9289 13.9733 41.933 14.2996 41.9544C14.4107 41.9665 14.5289 42.1061 14.6042 42.2145C15.0076 42.7956 15.3989 43.3845 15.8811 43.9629V41.9613H17.0189V45.9264Z" fill="white"/>
<path d="M42.0689 41.9542H43.2155V45.9262C42.8928 45.939 42.5697 45.9353 42.2475 45.9149C42.1328 45.9037 42.0033 45.784 41.9298 45.6799C41.5167 45.0945 41.1193 44.4978 40.6414 43.7945V45.8907H39.5098V41.9368C39.8169 41.9246 40.1246 41.9281 40.4314 41.9473C40.5644 41.9786 40.6805 42.0589 40.7561 42.1719C41.1709 42.7607 41.57 43.3617 42.0689 43.9497V41.9542Z" fill="white"/>
<path d="M54.115 43.9205V45.9039H53.0034V41.937C53.3167 41.9243 53.6305 41.9281 53.9434 41.9483C54.0581 41.9605 54.1867 42.0827 54.2611 42.1877C54.6812 42.7878 55.0865 43.4018 55.5801 43.9829V41.9613H56.6986V45.9264C56.3719 45.9393 56.0447 45.9352 55.7184 45.9143C55.6055 45.9021 55.4829 45.7694 55.4085 45.6628C55.0016 45.0826 54.6095 44.4928 54.2121 43.9066L54.115 43.9205Z" fill="white"/>
<path d="M28.4057 44.1096L29.4945 45.9239C28.9886 45.9239 28.5904 45.9361 28.193 45.9144C28.1055 45.91 28.0049 45.799 27.955 45.7114C27.7598 45.3732 27.6049 45.0133 27.3905 44.6863C27.2802 44.5129 27.0868 44.3984 26.931 44.2571L26.8102 44.3386V45.8996H25.6094V41.9814C26.4618 41.9814 27.3178 41.9449 28.1694 41.9935C28.7313 42.0265 29.0228 42.3456 29.0963 42.8148C29.1838 43.3829 28.9983 43.7835 28.5151 44.055C28.4801 44.0759 28.4435 44.0941 28.4057 44.1096V44.1096ZM26.8172 43.6561C27.2058 43.5372 27.5261 43.4601 27.822 43.3291C27.8718 43.3065 27.8535 42.9371 27.8018 42.9198C27.4782 42.8282 27.1494 42.7555 26.8172 42.7021V43.6561Z" fill="white"/>
<path d="M49.0688 45.8986V41.9717H52.2888V42.7921H50.309V43.4139H52.1558V44.2291H50.3117V45.0097H52.3527V45.8986H49.0688Z" fill="white"/>
<path d="M24.8981 41.9761V42.7904H22.9105V43.414H24.7555V44.2275H22.9175V45.008H24.9576V45.8978H21.686V41.9778L24.8981 41.9761Z" fill="white"/>
<path d="M9.42383 41.9595H12.6193V42.7842H10.6465V43.413H12.4757V44.2369H10.6378V45.0122H12.6788V45.889H9.42383V41.9595Z" fill="white"/>
<path d="M35.6238 41.937C36.099 43.2128 36.5673 44.4668 37.032 45.7217C37.0468 45.7889 37.0538 45.8576 37.053 45.9264C36.7029 45.9264 36.3677 45.955 36.0421 45.9117C35.9257 45.896 35.7796 45.7235 35.741 45.5951C35.664 45.3497 35.5485 45.2265 35.2816 45.2655C35.1941 45.2717 35.1064 45.2717 35.019 45.2655C34.2987 45.2655 34.2987 45.2656 34.0387 45.9091H32.8213C33.0375 45.328 33.2431 44.7816 33.4471 44.2283C33.6921 43.5666 33.9425 42.9066 34.1753 42.2406C34.2523 42.0194 34.3573 41.9145 34.6129 41.9327C34.9437 41.9578 35.2789 41.937 35.6238 41.937ZM34.5394 44.3714H35.3638C35.2317 43.9378 35.1126 43.5467 34.9927 43.1573L34.8947 43.1711C34.7774 43.5597 34.6654 43.9482 34.5394 44.374V44.3714Z" fill="white"/>
<path d="M7.06319 43.1217C6.85489 43.1694 6.66935 43.2006 6.48993 43.2544C6.22736 43.3342 6.03217 43.3723 5.83612 43.0636C5.73372 42.9031 5.36263 42.8034 5.1552 42.8468C4.94778 42.8901 4.66945 43.139 4.63007 43.3394C4.54732 43.7464 4.54732 44.1656 4.63007 44.5726C4.6712 44.7625 4.95652 44.9646 5.1727 45.0383C5.46415 45.1372 5.74773 45.0106 5.90702 44.7148C5.96829 44.6012 6.01467 44.4798 6.09169 44.3098L7.0947 44.6073C6.93891 45.5613 6.25798 46.0504 5.19196 45.9949C4.0139 45.9333 3.36624 45.2647 3.30235 44.0462C3.24108 42.8754 3.8091 42.0888 4.83487 41.9206C6.00592 41.728 6.78662 42.1339 7.06319 43.1217Z" fill="white"/>
<path d="M33.0942 41.9673V42.9273H31.8969V45.9029H30.6716V42.9421H29.4463V41.9673H33.0942Z" fill="white"/>
<path d="M57.1973 42.9307V41.9629H60.8443V42.9169H59.6514V45.8889H58.4165V42.9273L57.1973 42.9307Z" fill="white"/>
<path d="M19.9721 45.9063H18.7468V42.9473H17.5215V41.9673H21.1686V42.9152H19.9651L19.9721 45.9063Z" fill="white"/>
<path d="M1.60615 45.9013V43.349L0.537502 43.8502C0.35633 43.14 0.407969 43.0368 0.975116 42.7228C1.17467 42.6118 1.41886 42.4834 1.51251 42.2979C1.78208 41.7636 2.21268 41.8547 2.68793 41.9033V45.9056L1.60615 45.9013Z" fill="white"/>
<path d="M38.646 45.9134H37.4907V41.9683H38.6434L38.646 45.9134Z" fill="white"/>
<path d="M58.6762 0.387699C58.9427 0.381831 59.2078 0.428493 59.456 0.524965C59.7042 0.621437 59.9306 0.765799 60.122 0.949678C60.3135 1.13356 60.4661 1.3533 60.5712 1.59612C60.6762 1.83894 60.7315 2.1 60.7339 2.36417C60.74 2.63202 60.6916 2.89835 60.5916 3.14726C60.4916 3.39618 60.342 3.62258 60.1518 3.81295C59.9615 4.00332 59.7345 4.15376 59.4843 4.2553C59.2341 4.35684 58.9658 4.4074 58.6955 4.40396C58.4295 4.40578 58.1657 4.3556 57.9193 4.25629C57.673 4.15699 57.4487 4.01051 57.2596 3.82523C57.0704 3.63995 56.9199 3.41952 56.8169 3.17655C56.7138 2.93358 56.6601 2.67284 56.6588 2.40927C56.656 2.14493 56.7061 1.88267 56.8063 1.63764C56.9064 1.3926 57.0545 1.16964 57.2421 0.981671C57.4297 0.793696 57.653 0.644424 57.8992 0.542475C58.1453 0.440526 58.4094 0.387914 58.6762 0.387699V0.387699ZM58.6762 4.14118C58.9088 4.14427 59.1398 4.10181 59.3559 4.01623C59.5719 3.93065 59.7688 3.80364 59.9351 3.64248C60.1015 3.48133 60.2341 3.28919 60.3254 3.07712C60.4167 2.86504 60.4647 2.6372 60.4669 2.40667C60.4695 1.94783 60.2895 1.50647 59.966 1.17822C59.6424 0.849975 59.2013 0.661291 58.7383 0.653084C58.5053 0.64581 58.2732 0.684416 58.0553 0.766657C57.8374 0.848897 57.6382 0.973132 57.4691 1.13219C57.3001 1.29125 57.1645 1.48198 57.0704 1.6933C56.9762 1.90462 56.9252 2.13234 56.9205 2.36331C56.9171 2.59406 56.9598 2.82319 57.046 3.03757C57.1323 3.25194 57.2604 3.44734 57.423 3.61252C57.5857 3.77771 57.7796 3.90944 57.9938 4.00016C58.2079 4.09088 58.4381 4.1388 58.6709 4.14118H58.6762Z" fill="white"/>
<path d="M59.0448 2.67893C59.2329 2.96512 59.3949 3.21574 59.5629 3.46725L59.5104 3.57134C59.394 3.5167 59.2478 3.4898 59.1682 3.40307C59.0325 3.25651 58.9599 3.04924 58.8181 2.90961C58.6763 2.76998 58.4907 2.69193 58.222 2.52195C58.222 2.90007 58.2343 3.11515 58.2159 3.32676C58.2089 3.40395 58.1284 3.4742 58.082 3.54705C58.0304 3.4768 57.935 3.40741 57.9341 3.33629C57.9227 2.6607 57.9271 1.98511 57.9271 1.25488C58.2483 1.25488 58.5336 1.25488 58.8198 1.25488C59.1699 1.25488 59.45 1.3711 59.5568 1.73274C59.6635 2.09439 59.5506 2.3832 59.2128 2.57313C59.1638 2.59914 59.1174 2.6321 59.0448 2.67893ZM58.2571 1.42315V2.48293C58.5881 2.38032 58.9133 2.25987 59.2312 2.12214C59.2819 2.09785 59.2749 1.77525 59.2198 1.74663C58.9052 1.62025 58.5835 1.51224 58.2562 1.42315H58.2571Z" fill="white"/>
</g>
<defs>
<clipPath id="clip0_313_3115">
<rect width="60.5263" height="46" fill="white" transform="translate(0.403809)"/>
</clipPath>
</defs>
</svg>
