<svg width="66" height="50" viewBox="0 0 66 50" fill="none" xmlns="http://www.w3.org/2000/svg">
<path d="M47.3848 12.4207L58.5344 0.0152525L65.8829 8.18925L37.7745 39.4641L30.4261 31.2901L40.0253 20.6087L36.1768 16.3121L26.5721 26.9979L17.0068 16.3583L7.40654 27.0402L0.117676 18.9314L17.1198 0.0135671L26.6645 10.6315C29.8577 7.0792 33.0287 3.55084 36.2208 -0.00146484L47.3848 12.4207Z" fill="white"/>
<path d="M4.46062 42.0962L7.33932 46.9289C8.30742 45.3039 9.24768 43.7251 10.218 42.0973C11.1226 44.7049 12.0106 47.2629 12.913 49.8638C12.4064 49.8638 11.9304 49.8711 11.4556 49.8538C11.3999 49.8538 11.3242 49.7219 11.2941 49.6384C10.8465 48.3832 10.4023 47.1263 9.96138 45.8678C9.93744 45.7994 9.90905 45.7331 9.86451 45.6207C9.01833 47.0369 8.19441 48.4181 7.33987 49.8443L4.80689 45.6095C4.29528 47.0619 3.80482 48.4543 3.3127 49.8544H1.76953C2.66359 47.2779 3.55432 44.7132 4.46062 42.0962Z" fill="white"/>
<path d="M42.0638 42.0967L44.9431 46.9289L47.8218 42.0973L50.5162 49.8643C50.0152 49.8643 49.5431 49.8738 49.0755 49.8538C49.0092 49.851 48.9224 49.714 48.8912 49.6233C48.4703 48.4069 48.0562 47.1877 47.6436 45.9697C47.5963 45.8316 47.5445 45.6958 47.4711 45.4931L44.9431 49.8437L42.4118 45.4898C42.2821 45.8633 42.1707 46.1818 42.0616 46.5008C41.7059 47.5435 41.3474 48.585 40.9989 49.63C40.9404 49.8053 40.863 49.8799 40.6649 49.871C40.249 49.8526 39.8298 49.8654 39.3672 49.8654L42.0638 42.0967Z" fill="white"/>
<path d="M29.9001 42.8059C29.7448 43.2412 29.5995 43.6482 29.477 43.9906C28.7104 43.8196 27.9795 43.6237 27.2368 43.5012C26.5551 43.3885 25.8555 43.4635 25.2132 43.7183C24.0798 44.1609 23.5142 45.0494 23.5771 46.2792C23.6328 47.3402 24.3197 48.1586 25.4504 48.457C26.4625 48.7236 27.4706 48.624 28.4822 48.3584V46.8654H26.0065V45.5343H29.9591C29.9669 45.6172 29.9786 45.6891 29.9786 45.7609C29.9786 46.8559 29.983 47.9509 29.973 49.0454C29.973 49.1423 29.9062 49.2976 29.8311 49.3276C28.0663 50.033 26.2576 50.264 24.4311 49.6255C22.5194 48.9574 21.8552 47.3191 22.0707 45.5911C22.3128 43.6471 23.7324 42.3539 25.751 42.1395C27.1355 41.992 28.4655 42.2086 29.7492 42.7357C29.7887 42.7519 29.8305 42.7725 29.9001 42.8059Z" fill="white"/>
<path d="M51.2344 42.1646H56.793V43.5006H52.7107V45.2676H53.0197C54.0491 45.2676 55.0795 45.2776 56.1077 45.2609C56.3744 45.257 56.4417 45.345 56.425 45.5916C56.4061 45.9256 56.4206 46.2596 56.4206 46.626H52.7107V48.5148H56.847V49.8509H51.2344V42.1646Z" fill="white"/>
<path d="M64.0677 42.9075L63.511 44.0465C62.9621 43.8795 62.4443 43.6623 61.9054 43.5677C61.4211 43.4825 60.9128 43.5081 60.4163 43.5287C60.2147 43.5371 60.0065 43.6401 59.8206 43.7364C59.5617 43.8711 59.4348 44.1055 59.451 44.4044C59.4666 44.6828 59.6235 44.896 59.8757 44.9706C60.3439 45.1092 60.8221 45.2055 61.3025 45.3096C61.8086 45.421 62.3269 45.4855 62.8218 45.6314C63.5422 45.8435 64.0688 46.2839 64.1979 47.0738C64.3321 47.8911 64.1267 48.6014 63.4909 49.1575C62.8997 49.6741 62.1827 49.8812 61.4228 49.9503C60.2259 50.0616 59.0746 49.903 58.0058 49.3145C57.8944 49.2522 57.7859 49.1793 57.645 49.0919C57.8677 48.6927 58.0904 48.3035 58.2825 47.9584C58.8286 48.1527 59.3296 48.3726 59.8529 48.5062C60.5036 48.6746 61.1876 48.6646 61.8331 48.4773C62.038 48.4208 62.2298 48.3245 62.3976 48.1939C62.8875 47.7986 62.7906 47.1423 62.1922 46.9558C61.6911 46.7999 61.1606 46.7487 60.6451 46.6385C60.1663 46.5366 59.6781 46.4564 59.2172 46.2994C58.3821 46.015 57.9401 45.4087 57.9178 44.518C57.8972 43.7113 58.1789 43.0455 58.8787 42.6018C59.5378 42.1832 60.2782 42.083 61.0392 42.0964C62.1003 42.1142 63.1085 42.3508 64.0677 42.9075Z" fill="white"/>
<path d="M30.4912 49.8656C31.923 47.2547 33.3259 44.6972 34.7533 42.0957C36.1796 44.6966 37.5847 47.2586 39.0143 49.8645C38.4576 49.8645 37.9421 49.8695 37.4282 49.8578C37.3687 49.8578 37.2941 49.7721 37.2568 49.708C37.0514 49.3556 36.8487 49.0016 36.6605 48.6397C36.5809 48.4866 36.4796 48.4343 36.3104 48.4365C35.2527 48.4505 34.1949 48.451 33.1372 48.4699C33.0824 48.4768 33.0297 48.4952 32.9826 48.524C32.9355 48.5528 32.895 48.5913 32.8639 48.6369C32.6495 48.9832 32.4641 49.3473 32.2515 49.6947C32.2075 49.7687 32.109 49.855 32.0327 49.8572C31.5384 49.8717 31.0401 49.8656 30.4912 49.8656ZM34.7522 45.2277C34.3692 45.9202 34.0073 46.5738 33.6332 47.2485H35.8789L34.7522 45.2277Z" fill="white"/>
<path d="M16.2922 49.8533H14.812V49.5449C14.812 48.7655 14.8198 47.9861 14.8053 47.2067C14.8002 47.044 14.7493 46.8859 14.6583 46.7508C13.6562 45.3229 12.6464 43.9033 11.6382 42.4815C11.5742 42.3913 11.5141 42.2983 11.4155 42.1475C11.7317 42.1475 12.0073 42.1831 12.2701 42.1402C12.9186 42.035 13.3116 42.2933 13.6579 42.8483C14.2358 43.7747 14.9049 44.6437 15.5624 45.5762C15.6309 45.4854 15.686 45.4186 15.7339 45.3474C16.4019 44.3564 17.0766 43.3678 17.738 42.3701C17.8493 42.2031 17.9662 42.138 18.1655 42.1447C18.6198 42.1592 19.0741 42.1491 19.5896 42.1491C19.5116 42.271 19.4587 42.3596 19.4003 42.4447C18.411 43.8799 17.4184 45.3129 16.4358 46.7525C16.3521 46.8816 16.3057 47.0313 16.3017 47.1851C16.2861 48.0658 16.2922 48.9459 16.2922 49.8533Z" fill="white"/>
<path d="M20.8676 48.7027L19.6373 49.9275C19.2114 49.5027 18.7811 49.0741 18.373 48.6682L19.605 47.4385L20.8676 48.7027Z" fill="white"/>
<path d="M56.0804 27.1581C55.9251 27.1604 55.7708 27.1316 55.6268 27.0735C55.4827 27.0153 55.3517 26.9289 55.2416 26.8193C55.1314 26.7098 55.0442 26.5793 54.9852 26.4356C54.9262 26.2918 54.8966 26.1377 54.898 25.9824C54.8967 25.8268 54.9264 25.6726 54.9854 25.5287C55.0444 25.3848 55.1316 25.2541 55.2417 25.1443C55.3519 25.0344 55.4829 24.9477 55.627 24.8892C55.7711 24.8306 55.9254 24.8014 56.081 24.8033C56.3948 24.8024 56.6962 24.9262 56.9189 25.1474C57.1415 25.3686 57.2673 25.6691 57.2684 25.9829C57.2683 26.1383 57.2374 26.2921 57.1775 26.4355C57.1175 26.5788 57.0298 26.7089 56.9194 26.8182C56.8089 26.9274 56.6779 27.0137 56.5339 27.0721C56.3899 27.1304 56.2358 27.1597 56.0804 27.1581V27.1581ZM56.0749 26.9956C56.2097 26.9966 56.3434 26.971 56.4683 26.9202C56.5932 26.8693 56.7068 26.7943 56.8026 26.6994C56.8984 26.6045 56.9746 26.4917 57.0266 26.3673C57.0786 26.2429 57.1056 26.1094 57.1059 25.9746C57.1008 25.7074 56.9916 25.4527 56.8015 25.2648C56.6114 25.0769 56.3555 24.9706 56.0882 24.9686C55.8211 24.9662 55.5637 25.0689 55.3716 25.2544C55.1795 25.44 55.068 25.6937 55.0611 25.9607C55.0593 26.2316 55.165 26.4922 55.355 26.6854C55.5451 26.8785 55.8039 26.9885 56.0749 26.9911V26.9956Z" fill="white"/>
<path d="M56.4572 25.9782C56.5129 26.168 56.5636 26.3194 56.5942 26.4753C56.6014 26.5115 56.5341 26.5621 56.5012 26.6056C56.4645 26.5655 56.4049 26.5298 56.3943 26.4836C56.3119 26.1201 56.2574 26.08 55.8282 26.1296C55.8348 26.2363 55.8332 26.3433 55.8232 26.4497C55.8148 26.5054 55.7564 26.5538 55.7207 26.605C55.6818 26.5566 55.6094 26.5093 55.6094 26.4597C55.5999 26.0912 55.6038 25.7226 55.6038 25.3251C55.8215 25.3251 56.0191 25.2968 56.2034 25.3346C56.3414 25.3625 56.5146 25.446 56.578 25.5573C56.6002 25.5923 56.6147 25.6315 56.6206 25.6724C56.6265 25.7134 56.6236 25.7551 56.6122 25.7949C56.6008 25.8346 56.5811 25.8715 56.5544 25.9031C56.5276 25.9347 56.4946 25.9603 56.4572 25.9782V25.9782ZM55.8449 25.9865C56.0342 25.9309 56.1973 25.8997 56.3431 25.8301C56.3765 25.8139 56.376 25.6074 56.3431 25.5918C56.1962 25.5228 56.0319 25.4916 55.8454 25.4382L55.8449 25.9865Z" fill="white"/>
</svg>
