<svg width="1122" height="426" viewBox="0 0 1122 426" fill="none" xmlns="http://www.w3.org/2000/svg">
<path d="M0.648508 268.006V265.78H4.52651V276H2.03451V268.006H0.648508ZM15.319 270.96C15.8883 271.081 16.3456 271.366 16.691 271.814C17.0363 272.253 17.209 272.757 17.209 273.326C17.209 274.147 16.9196 274.801 16.341 275.286C15.7716 275.762 14.9736 276 13.947 276H9.36898V266.172H13.793C14.7916 266.172 15.571 266.401 16.131 266.858C16.7003 267.315 16.985 267.936 16.985 268.72C16.985 269.299 16.831 269.779 16.523 270.162C16.2243 270.545 15.823 270.811 15.319 270.96ZM11.763 270.148H13.331C13.723 270.148 14.0216 270.064 14.227 269.896C14.4416 269.719 14.549 269.462 14.549 269.126C14.549 268.79 14.4416 268.533 14.227 268.356C14.0216 268.179 13.723 268.09 13.331 268.09H11.763V270.148ZM13.527 274.068C13.9283 274.068 14.2363 273.979 14.451 273.802C14.675 273.615 14.787 273.349 14.787 273.004C14.787 272.659 14.6703 272.388 14.437 272.192C14.213 271.996 13.9003 271.898 13.499 271.898H11.763V274.068H13.527Z" fill="white"/>
<path d="M0.949336 398.75C0.949336 397.145 1.25734 395.88 1.87334 394.956C2.49867 394.032 3.502 393.57 4.88334 393.57C6.26467 393.57 7.26334 394.032 7.87934 394.956C8.50467 395.88 8.81734 397.145 8.81734 398.75C8.81734 400.374 8.50467 401.648 7.87934 402.572C7.26334 403.496 6.26467 403.958 4.88334 403.958C3.502 403.958 2.49867 403.496 1.87334 402.572C1.25734 401.648 0.949336 400.374 0.949336 398.75ZM6.46534 398.75C6.46534 397.807 6.36267 397.084 6.15734 396.58C5.952 396.067 5.52734 395.81 4.88334 395.81C4.23934 395.81 3.81467 396.067 3.60934 396.58C3.404 397.084 3.30134 397.807 3.30134 398.75C3.30134 399.385 3.33867 399.912 3.41334 400.332C3.488 400.743 3.63734 401.079 3.86134 401.34C4.09467 401.592 4.43534 401.718 4.88334 401.718C5.33134 401.718 5.66734 401.592 5.89134 401.34C6.12467 401.079 6.27867 400.743 6.35334 400.332C6.428 399.912 6.46534 399.385 6.46534 398.75ZM16.2701 398.96C16.8395 399.081 17.2968 399.366 17.6421 399.814C17.9875 400.253 18.1601 400.757 18.1601 401.326C18.1601 402.147 17.8708 402.801 17.2921 403.286C16.7228 403.762 15.9248 404 14.8981 404H10.3201V394.172H14.7441C15.7428 394.172 16.5221 394.401 17.0821 394.858C17.6515 395.315 17.9361 395.936 17.9361 396.72C17.9361 397.299 17.7821 397.779 17.4741 398.162C17.1755 398.545 16.7741 398.811 16.2701 398.96ZM12.7141 398.148H14.2821C14.6741 398.148 14.9728 398.064 15.1781 397.896C15.3928 397.719 15.5001 397.462 15.5001 397.126C15.5001 396.79 15.3928 396.533 15.1781 396.356C14.9728 396.179 14.6741 396.09 14.2821 396.09H12.7141V398.148ZM14.4781 402.068C14.8795 402.068 15.1875 401.979 15.4021 401.802C15.6261 401.615 15.7381 401.349 15.7381 401.004C15.7381 400.659 15.6215 400.388 15.3881 400.192C15.1641 399.996 14.8515 399.898 14.4501 399.898H12.7141V402.068H14.4781Z" fill="white"/>
<path d="M0.94932 148.082C1.26665 147.83 1.41132 147.713 1.38332 147.732C2.29799 146.976 3.01665 146.355 3.53932 145.87C4.07132 145.385 4.51932 144.876 4.88332 144.344C5.24732 143.812 5.42932 143.294 5.42932 142.79C5.42932 142.407 5.34065 142.109 5.16332 141.894C4.98599 141.679 4.71999 141.572 4.36532 141.572C4.01065 141.572 3.73065 141.707 3.52532 141.978C3.32932 142.239 3.23132 142.613 3.23132 143.098H0.92132C0.939987 142.305 1.10799 141.642 1.42532 141.11C1.75199 140.578 2.17665 140.186 2.69932 139.934C3.23132 139.682 3.81932 139.556 4.46332 139.556C5.57399 139.556 6.40932 139.841 6.96932 140.41C7.53865 140.979 7.82332 141.721 7.82332 142.636C7.82332 143.635 7.48265 144.563 6.80132 145.422C6.11999 146.271 5.25199 147.102 4.19732 147.914H7.97732V149.86H0.94932V148.082ZM18.1862 144.96C18.7555 145.081 19.2128 145.366 19.5582 145.814C19.9035 146.253 20.0762 146.757 20.0762 147.326C20.0762 148.147 19.7868 148.801 19.2082 149.286C18.6388 149.762 17.8408 150 16.8142 150H12.2362V140.172H16.6602C17.6588 140.172 18.4382 140.401 18.9982 140.858C19.5675 141.315 19.8522 141.936 19.8522 142.72C19.8522 143.299 19.6982 143.779 19.3902 144.162C19.0915 144.545 18.6902 144.811 18.1862 144.96ZM14.6302 144.148H16.1982C16.5902 144.148 16.8888 144.064 17.0942 143.896C17.3088 143.719 17.4162 143.462 17.4162 143.126C17.4162 142.79 17.3088 142.533 17.0942 142.356C16.8888 142.179 16.5902 142.09 16.1982 142.09H14.6302V144.148ZM16.3942 148.068C16.7955 148.068 17.1035 147.979 17.3182 147.802C17.5422 147.615 17.6542 147.349 17.6542 147.004C17.6542 146.659 17.5375 146.388 17.3042 146.192C17.0802 145.996 16.7675 145.898 16.3662 145.898H14.6302V148.068H16.3942Z" fill="white"/>
<path d="M0.878063 7.664C0.915396 6.66533 1.24206 5.89533 1.85806 5.354C2.47406 4.81267 3.3094 4.542 4.36406 4.542C5.06406 4.542 5.6614 4.66333 6.15606 4.906C6.66006 5.14867 7.03806 5.48 7.29006 5.9C7.5514 6.32 7.68206 6.79133 7.68206 7.314C7.68206 7.93 7.52806 8.434 7.22006 8.826C6.91206 9.20867 6.55273 9.47 6.14206 9.61V9.666C6.67406 9.84333 7.09406 10.1373 7.40206 10.548C7.71006 10.9587 7.86406 11.486 7.86406 12.13C7.86406 12.7087 7.72873 13.222 7.45806 13.67C7.19673 14.1087 6.8094 14.454 6.29606 14.706C5.79206 14.958 5.19006 15.084 4.49006 15.084C3.37006 15.084 2.47406 14.8087 1.80206 14.258C1.1394 13.7073 0.789396 12.8767 0.752063 11.766H3.07606C3.0854 12.1767 3.20206 12.5033 3.42606 12.746C3.65006 12.9793 3.97673 13.096 4.40606 13.096C4.77006 13.096 5.05006 12.9933 5.24606 12.788C5.4514 12.5733 5.55406 12.2933 5.55406 11.948C5.55406 11.5 5.4094 11.178 5.12006 10.982C4.84006 10.7767 4.3874 10.674 3.76206 10.674H3.31406V8.728H3.76206C4.23806 8.728 4.62073 8.64867 4.91006 8.49C5.20873 8.322 5.35806 8.028 5.35806 7.608C5.35806 7.272 5.26473 7.01067 5.07806 6.824C4.8914 6.63733 4.63473 6.544 4.30806 6.544C3.9534 6.544 3.6874 6.65133 3.51006 6.866C3.34206 7.08067 3.24406 7.34667 3.21606 7.664H0.878063ZM18.4254 9.96C18.9948 10.0813 19.4521 10.366 19.7974 10.814C20.1428 11.2527 20.3154 11.7567 20.3154 12.326C20.3154 13.1473 20.0261 13.8007 19.4474 14.286C18.8781 14.762 18.0801 15 17.0534 15H12.4754V5.172H16.8994C17.8981 5.172 18.6774 5.40067 19.2374 5.858C19.8068 6.31533 20.0914 6.936 20.0914 7.72C20.0914 8.29867 19.9374 8.77933 19.6294 9.162C19.3308 9.54467 18.9294 9.81067 18.4254 9.96ZM14.8694 9.148H16.4374C16.8294 9.148 17.1281 9.064 17.3334 8.896C17.5481 8.71867 17.6554 8.462 17.6554 8.126C17.6554 7.79 17.5481 7.53333 17.3334 7.356C17.1281 7.17867 16.8294 7.09 16.4374 7.09H14.8694V9.148ZM16.6334 13.068C17.0348 13.068 17.3428 12.9793 17.5574 12.802C17.7814 12.6153 17.8934 12.3493 17.8934 12.004C17.8934 11.6587 17.7768 11.388 17.5434 11.192C17.3194 10.996 17.0068 10.898 16.6054 10.898H14.8694V13.068H16.6334Z" fill="white"/>
<path d="M49.063 411.172V413.09H46.459V421H44.065V413.09H41.461V411.172H49.063ZM56.7885 414.28C56.6112 413.953 56.3545 413.706 56.0185 413.538C55.6918 413.361 55.3045 413.272 54.8565 413.272C54.0818 413.272 53.4612 413.529 52.9945 414.042C52.5278 414.546 52.2945 415.223 52.2945 416.072C52.2945 416.977 52.5372 417.687 53.0225 418.2C53.5172 418.704 54.1938 418.956 55.0525 418.956C55.6405 418.956 56.1352 418.807 56.5365 418.508C56.9472 418.209 57.2458 417.78 57.4325 417.22H54.3945V415.456H59.6025V417.682C59.4252 418.279 59.1218 418.835 58.6925 419.348C58.2725 419.861 57.7358 420.277 57.0825 420.594C56.4292 420.911 55.6918 421.07 54.8705 421.07C53.8998 421.07 53.0318 420.86 52.2665 420.44C51.5105 420.011 50.9178 419.418 50.4885 418.662C50.0685 417.906 49.8585 417.043 49.8585 416.072C49.8585 415.101 50.0685 414.238 50.4885 413.482C50.9178 412.717 51.5105 412.124 52.2665 411.704C53.0225 411.275 53.8858 411.06 54.8565 411.06C56.0325 411.06 57.0218 411.345 57.8245 411.914C58.6365 412.483 59.1732 413.272 59.4345 414.28H56.7885ZM63.3225 413.09V415.078H66.5285V416.926H63.3225V419.082H66.9485V421H60.9285V411.172H66.9485V413.09H63.3225Z" fill="white"/>
<path d="M137.352 411.172V421H134.958V415.106L132.76 421H130.828L128.616 415.092V421H126.222V411.172H129.05L131.808 417.976L134.538 411.172H137.352ZM141.858 419.18V417.248L146.282 410.92H148.956V417.108H150.104V419.18H148.956V421H146.562V419.18H141.858ZM146.73 413.552L144.378 417.108H146.73V413.552Z" fill="white"/>
<path d="M235.05 411.172V421H232.656V415.106L230.458 421H228.526L226.314 415.092V421H223.92V411.172H226.748L229.506 417.976L232.236 411.172H235.05ZM241.18 415.512C240.303 415.045 239.864 414.313 239.864 413.314C239.864 412.81 239.995 412.353 240.256 411.942C240.517 411.522 240.914 411.191 241.446 410.948C241.978 410.696 242.631 410.57 243.406 410.57C244.181 410.57 244.829 410.696 245.352 410.948C245.884 411.191 246.281 411.522 246.542 411.942C246.803 412.353 246.934 412.81 246.934 413.314C246.934 413.818 246.813 414.257 246.57 414.63C246.337 415.003 246.019 415.297 245.618 415.512C246.122 415.755 246.509 416.091 246.78 416.52C247.051 416.94 247.186 417.435 247.186 418.004C247.186 418.667 247.018 419.241 246.682 419.726C246.346 420.202 245.889 420.566 245.31 420.818C244.741 421.07 244.106 421.196 243.406 421.196C242.706 421.196 242.067 421.07 241.488 420.818C240.919 420.566 240.466 420.202 240.13 419.726C239.794 419.241 239.626 418.667 239.626 418.004C239.626 417.425 239.761 416.926 240.032 416.506C240.303 416.077 240.685 415.745 241.18 415.512ZM244.61 413.678C244.61 413.295 244.498 413.001 244.274 412.796C244.059 412.581 243.77 412.474 243.406 412.474C243.042 412.474 242.748 412.581 242.524 412.796C242.309 413.011 242.202 413.309 242.202 413.692C242.202 414.056 242.314 414.345 242.538 414.56C242.762 414.765 243.051 414.868 243.406 414.868C243.761 414.868 244.05 414.761 244.274 414.546C244.498 414.331 244.61 414.042 244.61 413.678ZM243.406 416.548C242.967 416.548 242.613 416.669 242.342 416.912C242.071 417.145 241.936 417.472 241.936 417.892C241.936 418.284 242.067 418.606 242.328 418.858C242.599 419.11 242.958 419.236 243.406 419.236C243.854 419.236 244.204 419.11 244.456 418.858C244.717 418.606 244.848 418.284 244.848 417.892C244.848 417.481 244.713 417.155 244.442 416.912C244.181 416.669 243.835 416.548 243.406 416.548Z" fill="white"/>
<path d="M333.458 411.172V421H331.064V415.106L328.866 421H326.934L324.722 415.092V421H322.328V411.172H325.156L327.914 417.976L330.644 411.172H333.458ZM337.656 413.006V410.78H341.534V421H339.042V413.006H337.656ZM343.088 419.082C343.405 418.83 343.55 418.713 343.522 418.732C344.437 417.976 345.155 417.355 345.678 416.87C346.21 416.385 346.658 415.876 347.022 415.344C347.386 414.812 347.568 414.294 347.568 413.79C347.568 413.407 347.479 413.109 347.302 412.894C347.125 412.679 346.859 412.572 346.504 412.572C346.149 412.572 345.869 412.707 345.664 412.978C345.468 413.239 345.37 413.613 345.37 414.098H343.06C343.079 413.305 343.247 412.642 343.564 412.11C343.891 411.578 344.315 411.186 344.838 410.934C345.37 410.682 345.958 410.556 346.602 410.556C347.713 410.556 348.548 410.841 349.108 411.41C349.677 411.979 349.962 412.721 349.962 413.636C349.962 414.635 349.621 415.563 348.94 416.422C348.259 417.271 347.391 418.102 346.336 418.914H350.116V420.86H343.088V419.082Z" fill="white"/>
<path d="M429 411.172V421H426.606V415.106L424.408 421H422.476L420.264 415.092V421H417.87V411.172H420.698L423.456 417.976L426.186 411.172H429ZM433.198 413.006V410.78H437.076V421H434.584V413.006H433.198ZM443.768 413.538C443.693 413.193 443.563 412.936 443.376 412.768C443.189 412.591 442.923 412.502 442.578 412.502C442.046 412.502 441.663 412.735 441.43 413.202C441.197 413.659 441.075 414.387 441.066 415.386C441.271 415.059 441.565 414.803 441.948 414.616C442.34 414.429 442.769 414.336 443.236 414.336C444.151 414.336 444.883 414.625 445.434 415.204C445.994 415.783 446.274 416.59 446.274 417.626C446.274 418.307 446.134 418.905 445.854 419.418C445.583 419.931 445.182 420.333 444.65 420.622C444.127 420.911 443.507 421.056 442.788 421.056C441.351 421.056 440.352 420.608 439.792 419.712C439.232 418.807 438.952 417.509 438.952 415.82C438.952 414.047 439.246 412.731 439.834 411.872C440.431 411.004 441.383 410.57 442.69 410.57C443.39 410.57 443.978 410.71 444.454 410.99C444.939 411.261 445.303 411.62 445.546 412.068C445.798 412.516 445.947 413.006 445.994 413.538H443.768ZM442.662 416.226C442.261 416.226 441.925 416.347 441.654 416.59C441.393 416.823 441.262 417.159 441.262 417.598C441.262 418.046 441.383 418.396 441.626 418.648C441.878 418.9 442.233 419.026 442.69 419.026C443.101 419.026 443.423 418.905 443.656 418.662C443.899 418.41 444.02 418.069 444.02 417.64C444.02 417.201 443.903 416.856 443.67 416.604C443.437 416.352 443.101 416.226 442.662 416.226Z" fill="white"/>
<path d="M525.023 411.172V421H522.629V415.106L520.431 421H518.499L516.287 415.092V421H513.893V411.172H516.721L519.479 417.976L522.209 411.172H525.023ZM529.39 419.082C529.707 418.83 529.852 418.713 529.824 418.732C530.738 417.976 531.457 417.355 531.98 416.87C532.512 416.385 532.96 415.876 533.324 415.344C533.688 414.812 533.87 414.294 533.87 413.79C533.87 413.407 533.781 413.109 533.604 412.894C533.426 412.679 533.16 412.572 532.806 412.572C532.451 412.572 532.171 412.707 531.966 412.978C531.77 413.239 531.672 413.613 531.672 414.098H529.362C529.38 413.305 529.548 412.642 529.866 412.11C530.192 411.578 530.617 411.186 531.14 410.934C531.672 410.682 532.26 410.556 532.904 410.556C534.014 410.556 534.85 410.841 535.41 411.41C535.979 411.979 536.264 412.721 536.264 413.636C536.264 414.635 535.923 415.563 535.242 416.422C534.56 417.271 533.692 418.102 532.638 418.914H536.418V420.86H529.39V419.082ZM537.472 415.75C537.472 414.145 537.78 412.88 538.396 411.956C539.021 411.032 540.024 410.57 541.406 410.57C542.787 410.57 543.786 411.032 544.402 411.956C545.027 412.88 545.34 414.145 545.34 415.75C545.34 417.374 545.027 418.648 544.402 419.572C543.786 420.496 542.787 420.958 541.406 420.958C540.024 420.958 539.021 420.496 538.396 419.572C537.78 418.648 537.472 417.374 537.472 415.75ZM542.988 415.75C542.988 414.807 542.885 414.084 542.68 413.58C542.474 413.067 542.05 412.81 541.406 412.81C540.762 412.81 540.337 413.067 540.132 413.58C539.926 414.084 539.824 414.807 539.824 415.75C539.824 416.385 539.861 416.912 539.936 417.332C540.01 417.743 540.16 418.079 540.384 418.34C540.617 418.592 540.958 418.718 541.406 418.718C541.854 418.718 542.19 418.592 542.414 418.34C542.647 418.079 542.801 417.743 542.876 417.332C542.95 416.912 542.988 416.385 542.988 415.75Z" fill="white"/>
<path d="M624.352 411.172V421H621.958V415.106L619.76 421H617.828L615.616 415.092V421H613.222V411.172H616.05L618.808 417.976L621.538 411.172H624.352ZM628.719 419.082C629.036 418.83 629.181 418.713 629.153 418.732C630.068 417.976 630.786 417.355 631.309 416.87C631.841 416.385 632.289 415.876 632.653 415.344C633.017 414.812 633.199 414.294 633.199 413.79C633.199 413.407 633.11 413.109 632.933 412.894C632.756 412.679 632.49 412.572 632.135 412.572C631.78 412.572 631.5 412.707 631.295 412.978C631.099 413.239 631.001 413.613 631.001 414.098H628.691C628.71 413.305 628.878 412.642 629.195 412.11C629.522 411.578 629.946 411.186 630.469 410.934C631.001 410.682 631.589 410.556 632.233 410.556C633.344 410.556 634.179 410.841 634.739 411.41C635.308 411.979 635.593 412.721 635.593 413.636C635.593 414.635 635.252 415.563 634.571 416.422C633.89 417.271 633.022 418.102 631.967 418.914H635.747V420.86H628.719V419.082ZM636.857 419.18V417.248L641.281 410.92H643.955V417.108H645.103V419.18H643.955V421H641.561V419.18H636.857ZM641.729 413.552L639.377 417.108H641.729V413.552Z" fill="white"/>
<path d="M724.051 411.172V421H721.657V415.106L719.459 421H717.527L715.315 415.092V421H712.921V411.172H715.749L718.507 417.976L721.237 411.172H724.051ZM728.417 419.082C728.734 418.83 728.879 418.713 728.851 418.732C729.766 417.976 730.484 417.355 731.007 416.87C731.539 416.385 731.987 415.876 732.351 415.344C732.715 414.812 732.897 414.294 732.897 413.79C732.897 413.407 732.808 413.109 732.631 412.894C732.454 412.679 732.188 412.572 731.833 412.572C731.478 412.572 731.198 412.707 730.993 412.978C730.797 413.239 730.699 413.613 730.699 414.098H728.389C728.408 413.305 728.576 412.642 728.893 412.11C729.22 411.578 729.644 411.186 730.167 410.934C730.699 410.682 731.287 410.556 731.931 410.556C733.042 410.556 733.877 410.841 734.437 411.41C735.006 411.979 735.291 412.721 735.291 413.636C735.291 414.635 734.95 415.563 734.269 416.422C733.588 417.271 732.72 418.102 731.665 418.914H735.445V420.86H728.417V419.082ZM738.179 415.512C737.302 415.045 736.863 414.313 736.863 413.314C736.863 412.81 736.994 412.353 737.255 411.942C737.516 411.522 737.913 411.191 738.445 410.948C738.977 410.696 739.63 410.57 740.405 410.57C741.18 410.57 741.828 410.696 742.351 410.948C742.883 411.191 743.28 411.522 743.541 411.942C743.802 412.353 743.933 412.81 743.933 413.314C743.933 413.818 743.812 414.257 743.569 414.63C743.336 415.003 743.018 415.297 742.617 415.512C743.121 415.755 743.508 416.091 743.779 416.52C744.05 416.94 744.185 417.435 744.185 418.004C744.185 418.667 744.017 419.241 743.681 419.726C743.345 420.202 742.888 420.566 742.309 420.818C741.74 421.07 741.105 421.196 740.405 421.196C739.705 421.196 739.066 421.07 738.487 420.818C737.918 420.566 737.465 420.202 737.129 419.726C736.793 419.241 736.625 418.667 736.625 418.004C736.625 417.425 736.76 416.926 737.031 416.506C737.302 416.077 737.684 415.745 738.179 415.512ZM741.609 413.678C741.609 413.295 741.497 413.001 741.273 412.796C741.058 412.581 740.769 412.474 740.405 412.474C740.041 412.474 739.747 412.581 739.523 412.796C739.308 413.011 739.201 413.309 739.201 413.692C739.201 414.056 739.313 414.345 739.537 414.56C739.761 414.765 740.05 414.868 740.405 414.868C740.76 414.868 741.049 414.761 741.273 414.546C741.497 414.331 741.609 414.042 741.609 413.678ZM740.405 416.548C739.966 416.548 739.612 416.669 739.341 416.912C739.07 417.145 738.935 417.472 738.935 417.892C738.935 418.284 739.066 418.606 739.327 418.858C739.598 419.11 739.957 419.236 740.405 419.236C740.853 419.236 741.203 419.11 741.455 418.858C741.716 418.606 741.847 418.284 741.847 417.892C741.847 417.481 741.712 417.155 741.441 416.912C741.18 416.669 740.834 416.548 740.405 416.548Z" fill="white"/>
<path d="M1097.23 411.172V421H1094.84V415.106L1092.64 421H1090.71L1088.49 415.092V421H1086.1V411.172H1088.93L1091.69 417.976L1094.42 411.172H1097.23ZM1101.74 419.18V417.248L1106.16 410.92H1108.83V417.108H1109.98V419.18H1108.83V421H1106.44V419.18H1101.74ZM1106.61 413.552L1104.26 417.108H1106.61V413.552ZM1111.21 419.18V417.248L1115.64 410.92H1118.31V417.108H1119.46V419.18H1118.31V421H1115.92V419.18H1111.21ZM1116.08 413.552L1113.73 417.108H1116.08V413.552Z" fill="white"/>
<path d="M822.352 408.922V418.75H819.958V412.856L817.76 418.75H815.828L813.616 412.842V418.75H811.222V408.922H814.05L816.808 415.726L819.538 408.922H822.352ZM826.886 411.414C826.923 410.415 827.25 409.645 827.866 409.104C828.482 408.563 829.317 408.292 830.372 408.292C831.072 408.292 831.669 408.413 832.164 408.656C832.668 408.899 833.046 409.23 833.298 409.65C833.559 410.07 833.69 410.541 833.69 411.064C833.69 411.68 833.536 412.184 833.228 412.576C832.92 412.959 832.561 413.22 832.15 413.36V413.416C832.682 413.593 833.102 413.887 833.41 414.298C833.718 414.709 833.872 415.236 833.872 415.88C833.872 416.459 833.737 416.972 833.466 417.42C833.205 417.859 832.817 418.204 832.304 418.456C831.8 418.708 831.198 418.834 830.498 418.834C829.378 418.834 828.482 418.559 827.81 418.008C827.147 417.457 826.797 416.627 826.76 415.516H829.084C829.093 415.927 829.21 416.253 829.434 416.496C829.658 416.729 829.985 416.846 830.414 416.846C830.778 416.846 831.058 416.743 831.254 416.538C831.459 416.323 831.562 416.043 831.562 415.698C831.562 415.25 831.417 414.928 831.128 414.732C830.848 414.527 830.395 414.424 829.77 414.424H829.322V412.478H829.77C830.246 412.478 830.629 412.399 830.918 412.24C831.217 412.072 831.366 411.778 831.366 411.358C831.366 411.022 831.273 410.761 831.086 410.574C830.899 410.387 830.643 410.294 830.316 410.294C829.961 410.294 829.695 410.401 829.518 410.616C829.35 410.831 829.252 411.097 829.224 411.414H826.886ZM835.194 416.832C835.512 416.58 835.656 416.463 835.628 416.482C836.543 415.726 837.262 415.105 837.784 414.62C838.316 414.135 838.764 413.626 839.128 413.094C839.492 412.562 839.674 412.044 839.674 411.54C839.674 411.157 839.586 410.859 839.408 410.644C839.231 410.429 838.965 410.322 838.61 410.322C838.256 410.322 837.976 410.457 837.77 410.728C837.574 410.989 837.476 411.363 837.476 411.848H835.166C835.185 411.055 835.353 410.392 835.67 409.86C835.997 409.328 836.422 408.936 836.944 408.684C837.476 408.432 838.064 408.306 838.708 408.306C839.819 408.306 840.654 408.591 841.214 409.16C841.784 409.729 842.068 410.471 842.068 411.386C842.068 412.385 841.728 413.313 841.046 414.172C840.365 415.021 839.497 415.852 838.442 416.664H842.222V418.61H835.194V416.832Z" fill="white"/>
<path d="M919.394 408.922V418.75H917V412.856L914.802 418.75H912.87L910.658 412.842V418.75H908.264V408.922H911.092L913.85 415.726L916.58 408.922H919.394ZM923.928 411.414C923.965 410.415 924.292 409.645 924.908 409.104C925.524 408.563 926.359 408.292 927.414 408.292C928.114 408.292 928.711 408.413 929.206 408.656C929.71 408.899 930.088 409.23 930.34 409.65C930.601 410.07 930.732 410.541 930.732 411.064C930.732 411.68 930.578 412.184 930.27 412.576C929.962 412.959 929.603 413.22 929.192 413.36V413.416C929.724 413.593 930.144 413.887 930.452 414.298C930.76 414.709 930.914 415.236 930.914 415.88C930.914 416.459 930.779 416.972 930.508 417.42C930.247 417.859 929.859 418.204 929.346 418.456C928.842 418.708 928.24 418.834 927.54 418.834C926.42 418.834 925.524 418.559 924.852 418.008C924.189 417.457 923.839 416.627 923.802 415.516H926.126C926.135 415.927 926.252 416.253 926.476 416.496C926.7 416.729 927.027 416.846 927.456 416.846C927.82 416.846 928.1 416.743 928.296 416.538C928.501 416.323 928.604 416.043 928.604 415.698C928.604 415.25 928.459 414.928 928.17 414.732C927.89 414.527 927.437 414.424 926.812 414.424H926.364V412.478H926.812C927.288 412.478 927.671 412.399 927.96 412.24C928.259 412.072 928.408 411.778 928.408 411.358C928.408 411.022 928.315 410.761 928.128 410.574C927.941 410.387 927.685 410.294 927.358 410.294C927.003 410.294 926.737 410.401 926.56 410.616C926.392 410.831 926.294 411.097 926.266 411.414H923.928ZM937.374 411.288C937.3 410.943 937.169 410.686 936.982 410.518C936.796 410.341 936.53 410.252 936.184 410.252C935.652 410.252 935.27 410.485 935.036 410.952C934.803 411.409 934.682 412.137 934.672 413.136C934.878 412.809 935.172 412.553 935.554 412.366C935.946 412.179 936.376 412.086 936.842 412.086C937.757 412.086 938.49 412.375 939.04 412.954C939.6 413.533 939.88 414.34 939.88 415.376C939.88 416.057 939.74 416.655 939.46 417.168C939.19 417.681 938.788 418.083 938.256 418.372C937.734 418.661 937.113 418.806 936.394 418.806C934.957 418.806 933.958 418.358 933.398 417.462C932.838 416.557 932.558 415.259 932.558 413.57C932.558 411.797 932.852 410.481 933.44 409.622C934.038 408.754 934.99 408.32 936.296 408.32C936.996 408.32 937.584 408.46 938.06 408.74C938.546 409.011 938.91 409.37 939.152 409.818C939.404 410.266 939.554 410.756 939.6 411.288H937.374ZM936.268 413.976C935.867 413.976 935.531 414.097 935.26 414.34C934.999 414.573 934.868 414.909 934.868 415.348C934.868 415.796 934.99 416.146 935.232 416.398C935.484 416.65 935.839 416.776 936.296 416.776C936.707 416.776 937.029 416.655 937.262 416.412C937.505 416.16 937.626 415.819 937.626 415.39C937.626 414.951 937.51 414.606 937.276 414.354C937.043 414.102 936.707 413.976 936.268 413.976Z" fill="white"/>
<path d="M1017.29 408.922V418.75H1014.89V412.856L1012.69 418.75H1010.76L1008.55 412.842V418.75H1006.16V408.922H1008.98L1011.74 415.726L1014.47 408.922H1017.29ZM1021.79 416.93V414.998L1026.22 408.67H1028.89V414.858H1030.04V416.93H1028.89V418.75H1026.5V416.93H1021.79ZM1026.66 411.302L1024.31 414.858H1026.66V411.302ZM1031.21 413.5C1031.21 411.895 1031.52 410.63 1032.13 409.706C1032.76 408.782 1033.76 408.32 1035.14 408.32C1036.53 408.32 1037.52 408.782 1038.14 409.706C1038.77 410.63 1039.08 411.895 1039.08 413.5C1039.08 415.124 1038.77 416.398 1038.14 417.322C1037.52 418.246 1036.53 418.708 1035.14 418.708C1033.76 418.708 1032.76 418.246 1032.13 417.322C1031.52 416.398 1031.21 415.124 1031.21 413.5ZM1036.73 413.5C1036.73 412.557 1036.62 411.834 1036.42 411.33C1036.21 410.817 1035.79 410.56 1035.14 410.56C1034.5 410.56 1034.08 410.817 1033.87 411.33C1033.66 411.834 1033.56 412.557 1033.56 413.5C1033.56 414.135 1033.6 414.662 1033.67 415.082C1033.75 415.493 1033.9 415.829 1034.12 416.09C1034.36 416.342 1034.7 416.468 1035.14 416.468C1035.59 416.468 1035.93 416.342 1036.15 416.09C1036.39 415.829 1036.54 415.493 1036.61 415.082C1036.69 414.662 1036.73 414.135 1036.73 413.5Z" fill="white"/>
<path d="M41.125 10.832V398.842" stroke="#333333" stroke-width="2.52556" stroke-linecap="round"/>
<path d="M1120 10.832V398.842" stroke="#333333" stroke-width="2.52556" stroke-linecap="round"/>
<path d="M335.281 10.832V398.842" stroke="#333333" stroke-width="2.52556" stroke-linecap="round"/>
<path d="M237.191 10.832V398.842" stroke="#333333" stroke-width="2.52556" stroke-linecap="round"/>
<path d="M139.102 10.832V398.842" stroke="#333333" stroke-width="2.52556" stroke-linecap="round"/>
<path d="M433.371 10.832V398.842" stroke="#333333" stroke-width="2.52556" stroke-linecap="round"/>
<path d="M531.461 10.832V398.842" stroke="#333333" stroke-width="2.52556" stroke-linecap="round"/>
<path d="M629.551 10.832V398.842" stroke="#333333" stroke-width="2.52556" stroke-linecap="round"/>
<path d="M727.641 10.832V398.842" stroke="#333333" stroke-width="2.52556" stroke-linecap="round"/>
<path d="M825.73 10.832V398.842" stroke="#333333" stroke-width="2.52556" stroke-linecap="round"/>
<path d="M923.82 10.832V398.842" stroke="#333333" stroke-width="2.52556" stroke-linecap="round"/>
<path d="M1021.91 10.832V398.842" stroke="#333333" stroke-width="2.52556" stroke-linecap="round"/>
<path d="M1118.25 398.5H41.5176" stroke="#333333" stroke-width="3.09833" stroke-linecap="round"/>
<path d="M1118.25 10H41.5176" stroke="#333333" stroke-width="3.09833" stroke-linecap="round"/>
<path d="M1118.25 145.087L41.5176 145.087" stroke="#333333" stroke-width="3.09833" stroke-linecap="round"/>
<path d="M1118.25 270.879L41.5176 270.879" stroke="#333333" stroke-width="3.09833" stroke-linecap="round"/>
<path opacity="0.2" d="M42 353.14V368.187V398.166C42 398.898 42.5928 399.49 43.324 399.49H1119.68C1120.41 399.49 1121 398.898 1121 398.166V107.198C1121 106.444 1120.37 105.843 1119.62 105.875L1022.04 110.012L797.631 129.698L567.93 180.364L120.774 332.365L83.0417 343.983L43.0686 351.841C42.4477 351.963 42 352.507 42 353.14Z" fill="url(#paint0_linear_343_2629)"/>
<path opacity="0.2" d="M42 350.578V360.824V398.166C42 398.897 42.5928 399.49 43.324 399.49H1119.68C1120.41 399.49 1121 398.897 1121 398.166V38.149C1121 37.3906 1120.36 36.7872 1119.61 36.8269L1022.04 41.9358L796.969 80.9664L544.099 156.805L161.815 313.324L90.4425 340.848C90.3632 340.878 90.2812 340.901 90.1975 340.916L43.0926 349.274C42.4605 349.387 42 349.936 42 350.578Z" fill="url(#paint1_linear_343_2629)"/>
<path opacity="0.2" d="M42 352.371V357.866V398.166C42 398.897 42.5928 399.49 43.324 399.49H1119.68C1120.41 399.49 1121 398.897 1121 398.166V10.4007C1121 9.64019 1120.36 9.03603 1119.6 9.07883L1022.04 14.5784L797.063 56.5776C797.001 56.5894 796.939 56.6056 796.878 56.6263L545.423 142.606L161.815 312.366L90.4489 341.993C90.3654 342.028 90.2785 342.054 90.1897 342.071L43.0755 351.071C42.4514 351.19 42 351.736 42 352.371Z" fill="url(#paint2_linear_343_2629)"/>
<path opacity="0.25" d="M1121 398.165V147.156C1121 146.425 1120.41 145.832 1119.68 145.832H1011.78L796.969 168.422L575.873 207.149L165.125 325.909L92.3092 344.949L43.1389 351.889C42.4857 351.981 42 352.54 42 353.199V398.165C42 398.896 42.5928 399.489 43.324 399.489H1119.68C1120.41 399.489 1121 398.896 1121 398.165Z" fill="url(#paint3_linear_343_2629)"/>
<path opacity="0.3" d="M89.2357 383.689L43.145 389.974C42.4891 390.063 42 390.624 42 391.286V398.165C42 398.896 42.5928 399.489 43.324 399.489H1119.68C1120.41 399.489 1121 398.896 1121 398.165V187.496C1121 186.765 1120.41 186.172 1119.68 186.172H1011.11L794.983 207.794L572.563 244.907L89.4222 383.649C89.3611 383.667 89.2987 383.68 89.2357 383.689Z" fill="url(#paint4_linear_343_2629)"/>
<path opacity="0.35" d="M1121 398.165V276.889C1121 276.158 1120.41 275.565 1119.68 275.565H799.286L575.542 293.638L213.117 363.345L95.4248 388.488C95.3339 388.507 95.2412 388.517 95.1482 388.517H43.3239C42.5927 388.517 42 389.11 42 389.841V398.165C42 398.897 42.5928 399.489 43.324 399.489H1119.68C1120.41 399.489 1121 398.897 1121 398.165Z" fill="url(#paint5_linear_343_2629)"/>
<path opacity="0.4" d="M1121 398.165V288.507C1121 287.775 1120.41 287.183 1119.68 287.183H799.286L578.852 304.932L294.208 353.663L91.6472 387.871L43.2723 389.758C42.5618 389.785 42 390.369 42 391.08V398.165C42 398.896 42.5928 399.489 43.324 399.489H1119.68C1120.41 399.489 1121 398.896 1121 398.165Z" fill="url(#paint6_linear_343_2629)"/>
<path opacity="0.4" d="M42 398.166V393.613C42 392.922 42.5305 392.348 43.2187 392.293L94.6261 388.195L291.891 359.796L665.9 327.201H1119.68C1120.41 327.201 1121 327.794 1121 328.525V398.166C1121 398.897 1120.41 399.49 1119.68 399.49H43.3239C42.5927 399.49 42 398.897 42 398.166Z" fill="url(#paint7_linear_343_2629)"/>
<path opacity="0.4" d="M579.183 341.077H668.217H1119.68C1120.41 341.077 1121 341.67 1121 342.401V398.165C1121 398.896 1120.41 399.489 1119.68 399.489H43.3239C42.5928 399.489 42 398.896 42 398.165L42 395.939C42 395.221 42.5725 394.634 43.2903 394.616L131.034 392.389L291.891 374.963L579.183 341.077Z" fill="url(#paint8_linear_343_2629)"/>
<path opacity="0.4" d="M133.682 397.23L167.773 395.616L665.569 382.385H1119.68C1120.41 382.385 1121 382.978 1121 383.709V398.165C1121 398.896 1120.41 399.489 1119.68 399.489H43.1295C42.5057 399.489 42 398.983 42 398.359C42 397.736 42.5057 397.23 43.1295 397.23H133.682Z" fill="url(#paint9_linear_343_2629)"/>
<defs>
<linearGradient id="paint0_linear_343_2629" x1="68.5656" y1="316.283" x2="461.792" y2="132.922" gradientUnits="userSpaceOnUse">
<stop stop-color="#F99F2F"/>
<stop offset="1" stop-color="#FBF6CD"/>
</linearGradient>
<linearGradient id="paint1_linear_343_2629" x1="68.5656" y1="296.714" x2="487.575" y2="138.53" gradientUnits="userSpaceOnUse">
<stop stop-color="#F99F2F"/>
<stop offset="1" stop-color="#FBF6CD"/>
</linearGradient>
<linearGradient id="paint2_linear_343_2629" x1="68.5656" y1="288.851" x2="494.866" y2="139.353" gradientUnits="userSpaceOnUse">
<stop stop-color="#F99F2F"/>
<stop offset="1" stop-color="#FBF6CD"/>
</linearGradient>
<linearGradient id="paint3_linear_343_2629" x1="68.5656" y1="327.619" x2="439.255" y2="127.498" gradientUnits="userSpaceOnUse">
<stop stop-color="#F99F2F"/>
<stop offset="1" stop-color="#FBF6CD"/>
</linearGradient>
<linearGradient id="paint4_linear_343_2629" x1="68.5656" y1="339.049" x2="407.582" y2="121.416" gradientUnits="userSpaceOnUse">
<stop stop-color="#F99F2F"/>
<stop offset="1" stop-color="#FBF6CD"/>
</linearGradient>
<linearGradient id="paint5_linear_343_2629" x1="68.5656" y1="364.378" x2="284.103" y2="126.203" gradientUnits="userSpaceOnUse">
<stop stop-color="#F99F2F"/>
<stop offset="1" stop-color="#FBF6CD"/>
</linearGradient>
<linearGradient id="paint6_linear_343_2629" x1="68.5656" y1="367.669" x2="261.073" y2="132.936" gradientUnits="userSpaceOnUse">
<stop stop-color="#F99F2F"/>
<stop offset="1" stop-color="#FBF6CD"/>
</linearGradient>
<linearGradient id="paint7_linear_343_2629" x1="68.5656" y1="379.008" x2="172.897" y2="181.369" gradientUnits="userSpaceOnUse">
<stop stop-color="#F99F2F"/>
<stop offset="1" stop-color="#FBF6CD"/>
</linearGradient>
<linearGradient id="paint8_linear_343_2629" x1="68.5656" y1="382.939" x2="142.26" y2="210.171" gradientUnits="userSpaceOnUse">
<stop stop-color="#F99F2F"/>
<stop offset="1" stop-color="#FBF6CD"/>
</linearGradient>
<linearGradient id="paint9_linear_343_2629" x1="68.5656" y1="394.643" x2="75.9193" y2="335.767" gradientUnits="userSpaceOnUse">
<stop stop-color="#F99F2F"/>
<stop offset="1" stop-color="#FBF6CD"/>
</linearGradient>
</defs>
</svg>
