<svg width="136" height="68" viewBox="0 0 136 68" fill="none" xmlns="http://www.w3.org/2000/svg">
<path d="M30.3169 18.404C30.1069 18.404 29.9273 18.3293 29.7779 18.18C29.6286 18.0307 29.5539 17.851 29.5539 17.641C29.5539 17.4357 29.6286 17.2583 29.7779 17.109C29.9273 16.955 30.1069 16.878 30.3169 16.878C30.5316 16.878 30.7136 16.9527 30.8629 17.102C31.0123 17.2513 31.0869 17.431 31.0869 17.641C31.0869 17.851 31.0099 18.0307 30.8559 18.18C30.7066 18.3293 30.5269 18.404 30.3169 18.404ZM36.1153 14.855H37.4243C38.1617 14.855 38.6517 14.9787 38.8943 15.226C39.137 15.4733 39.2583 15.772 39.2583 16.122C39.2583 16.3553 39.207 16.577 39.1043 16.787C39.0017 16.9923 38.8383 17.1463 38.6143 17.249C38.9457 17.333 39.1883 17.48 39.3423 17.69C39.501 17.9 39.5803 18.1473 39.5803 18.432C39.5803 18.7307 39.5337 18.992 39.4403 19.216C39.347 19.44 39.1533 19.6267 38.8593 19.776C38.5653 19.9253 38.1407 20 37.5853 20H36.1153V14.855ZM37.5503 17.039C37.8817 17.039 38.1173 16.9597 38.2573 16.801C38.3973 16.6377 38.4673 16.4323 38.4673 16.185C38.4673 15.7417 38.15 15.52 37.5153 15.52H36.8853V17.039H37.5503ZM37.6903 19.342C38.115 19.342 38.3997 19.258 38.5443 19.09C38.6937 18.9173 38.7683 18.7003 38.7683 18.439C38.7683 18.1917 38.6843 18.0003 38.5163 17.865C38.3483 17.7297 38.094 17.662 37.7533 17.662H36.8853V19.342H37.6903ZM41.6802 20.07C41.4002 20.07 41.1225 20.021 40.8472 19.923C40.5718 19.825 40.3735 19.7153 40.2522 19.594L40.6232 18.929C40.7212 19.0177 40.8728 19.111 41.0782 19.209C41.2882 19.3023 41.4888 19.349 41.6802 19.349C41.9275 19.349 42.1282 19.2907 42.2822 19.174C42.4408 19.0573 42.5202 18.8963 42.5202 18.691C42.5202 18.5323 42.4782 18.3947 42.3942 18.278C42.3102 18.1613 42.2075 18.0657 42.0862 17.991C41.9648 17.9117 41.7922 17.816 41.5682 17.704C41.3022 17.5733 41.1202 17.4753 41.0222 17.41C40.5695 17.1067 40.3432 16.6867 40.3432 16.15C40.3432 15.7067 40.4902 15.3683 40.7842 15.135C41.0782 14.897 41.4492 14.778 41.8972 14.778C42.3778 14.778 42.7862 14.9157 43.1222 15.191L42.7512 15.828C42.6625 15.7347 42.5365 15.6553 42.3732 15.59C42.2145 15.52 42.0442 15.485 41.8622 15.485C41.6288 15.485 41.4445 15.5387 41.3092 15.646C41.1785 15.7487 41.1132 15.9027 41.1132 16.108C41.1132 16.2527 41.1552 16.3833 41.2392 16.5C41.3232 16.612 41.4282 16.71 41.5542 16.794C41.6848 16.878 41.8598 16.9807 42.0792 17.102C42.2892 17.2187 42.4502 17.312 42.5622 17.382C42.6742 17.4473 42.7792 17.5267 42.8772 17.62C43.0125 17.7413 43.1222 17.886 43.2062 18.054C43.2902 18.222 43.3322 18.4063 43.3322 18.607C43.3322 18.9197 43.2598 19.1857 43.1152 19.405C42.9752 19.6243 42.7792 19.79 42.5272 19.902C42.2798 20.014 41.9975 20.07 41.6802 20.07ZM46.5129 20.049C45.9809 20.049 45.5189 19.93 45.1269 19.692C44.7396 19.454 44.4432 19.1367 44.2379 18.74C44.0326 18.3387 43.9299 17.8977 43.9299 17.417C43.9299 16.9083 44.0396 16.4533 44.2589 16.052C44.4829 15.6507 44.7956 15.338 45.1969 15.114C45.5982 14.8853 46.0532 14.771 46.5619 14.771C46.7906 14.771 47.0029 14.7967 47.1989 14.848C47.3996 14.8947 47.5652 14.9507 47.6959 15.016C47.8266 15.0767 47.9129 15.128 47.9549 15.17L47.6119 15.87C47.3272 15.618 46.9562 15.492 46.4989 15.492C46.1769 15.492 45.8852 15.5713 45.6239 15.73C45.3626 15.8887 45.1572 16.115 45.0079 16.409C44.8586 16.703 44.7839 17.0437 44.7839 17.431C44.7839 17.7857 44.8492 18.1077 44.9799 18.397C45.1152 18.6863 45.3112 18.915 45.5679 19.083C45.8246 19.251 46.1302 19.335 46.4849 19.335C46.8956 19.335 47.2922 19.2183 47.6749 18.985L47.9059 19.65C47.8032 19.7433 47.6142 19.8343 47.3389 19.923C47.0682 20.007 46.7929 20.049 46.5129 20.049ZM52.8376 20.07C52.329 20.07 51.874 19.9533 51.4726 19.72C51.0713 19.4867 50.7563 19.167 50.5276 18.761C50.3036 18.3503 50.1916 17.8907 50.1916 17.382C50.1916 16.8873 50.306 16.4417 50.5346 16.045C50.7633 15.6483 51.0806 15.338 51.4866 15.114C51.8926 14.89 52.35 14.778 52.8586 14.778C53.134 14.778 53.3813 14.8037 53.6006 14.855C53.8246 14.9017 54.0066 14.9577 54.1466 15.023C54.2866 15.0837 54.3823 15.1373 54.4336 15.184L54.1256 15.842C53.8363 15.6087 53.4093 15.492 52.8446 15.492C52.4713 15.492 52.147 15.5737 51.8716 15.737C51.5963 15.9003 51.3863 16.122 51.2416 16.402C51.097 16.682 51.0246 16.9947 51.0246 17.34C51.0246 17.732 51.1016 18.082 51.2556 18.39C51.4143 18.698 51.6313 18.9383 51.9066 19.111C52.1866 19.279 52.5016 19.363 52.8516 19.363C53.071 19.363 53.281 19.3373 53.4816 19.286C53.6823 19.23 53.8526 19.1437 53.9926 19.027V18.033H52.9356V17.312H54.7696V19.328C54.6016 19.538 54.3473 19.7153 54.0066 19.86C53.6706 20 53.281 20.07 52.8376 20.07ZM57.0176 20.07C56.7283 20.07 56.4599 20.0023 56.2126 19.867C55.9699 19.727 55.7739 19.531 55.6246 19.279C55.4799 19.0223 55.4076 18.7237 55.4076 18.383C55.4076 18.047 55.4706 17.753 55.5966 17.501C55.7273 17.249 55.9116 17.053 56.1496 16.913C56.3876 16.773 56.6676 16.703 56.9896 16.703C57.1763 16.703 57.3513 16.7357 57.5146 16.801C57.6779 16.8663 57.8156 16.948 57.9276 17.046C58.0396 17.1393 58.1143 17.2327 58.1516 17.326L58.1656 16.787H58.8866V20H58.1726L58.1586 19.433C58.0793 19.601 57.9346 19.7503 57.7246 19.881C57.5146 20.007 57.2789 20.07 57.0176 20.07ZM57.1436 19.44C57.4096 19.44 57.6336 19.349 57.8156 19.167C57.9976 18.9803 58.0886 18.7377 58.0886 18.439V18.39C58.0886 18.1893 58.0466 18.0097 57.9626 17.851C57.8786 17.6923 57.7643 17.5687 57.6196 17.48C57.4749 17.3913 57.3163 17.347 57.1436 17.347C56.8449 17.347 56.6139 17.445 56.4506 17.641C56.2873 17.8323 56.2056 18.082 56.2056 18.39C56.2056 18.7027 56.2849 18.957 56.4436 19.153C56.6069 19.3443 56.8403 19.44 57.1436 19.44ZM59.9033 16.787H60.6593V17.368C60.7619 17.1487 60.9113 16.983 61.1073 16.871C61.3079 16.759 61.5366 16.703 61.7933 16.703C62.3673 16.7077 62.7196 16.906 62.8503 17.298C62.9529 17.116 63.1069 16.9713 63.3123 16.864C63.5176 16.7567 63.7346 16.703 63.9633 16.703C64.2993 16.703 64.5536 16.7683 64.7263 16.899C64.8989 17.025 65.0133 17.207 65.0693 17.445C65.1299 17.6783 65.1603 17.9933 65.1603 18.39V20H64.3973V18.383C64.3973 18.005 64.3576 17.7343 64.2783 17.571C64.2036 17.4077 64.0566 17.326 63.8373 17.326C63.5433 17.326 63.3193 17.4263 63.1653 17.627C63.0159 17.823 62.9412 18.082 62.9412 18.404V20H62.1853V18.271C62.1853 18.0237 62.1759 17.8393 62.1573 17.718C62.1386 17.5967 62.0873 17.501 62.0033 17.431C61.9193 17.361 61.7839 17.326 61.5973 17.326C61.4339 17.326 61.2799 17.375 61.1353 17.473C60.9953 17.571 60.8809 17.704 60.7923 17.872C60.7083 18.0353 60.6663 18.2127 60.6663 18.404V20H59.9033V16.787ZM67.643 20.07C67.2603 20.07 66.9406 19.9953 66.684 19.846C66.4273 19.692 66.2383 19.489 66.117 19.237C65.9956 18.9803 65.935 18.7003 65.935 18.397C65.935 18.0563 66.005 17.7577 66.145 17.501C66.2896 17.2443 66.488 17.0483 66.74 16.913C66.992 16.773 67.2766 16.703 67.594 16.703C68.0886 16.703 68.455 16.8407 68.693 17.116C68.9356 17.3867 69.057 17.7693 69.057 18.264C69.057 18.39 69.05 18.5207 69.036 18.656H66.726C66.7773 18.9407 66.8776 19.146 67.027 19.272C67.181 19.398 67.3933 19.461 67.664 19.461C67.888 19.461 68.0723 19.4423 68.217 19.405C68.3616 19.3677 68.4946 19.3163 68.616 19.251L68.847 19.79C68.7303 19.8647 68.5716 19.93 68.371 19.986C68.1703 20.042 67.9276 20.07 67.643 20.07ZM68.322 18.131C68.3266 17.8417 68.2636 17.6387 68.133 17.522C68.0023 17.4007 67.8156 17.34 67.573 17.34C67.083 17.34 66.8006 17.6037 66.726 18.131H68.322ZM69.8915 14.855H72.3065V15.534H70.6685V16.99H71.9425V17.676H70.6685V20H69.8915V14.855ZM73.0364 16.787H73.8204V20H73.0364V16.787ZM73.4214 16.185C73.2767 16.185 73.1554 16.136 73.0574 16.038C72.9594 15.94 72.9104 15.8187 72.9104 15.674C72.9104 15.5433 72.9594 15.4313 73.0574 15.338C73.1554 15.2447 73.2767 15.198 73.4214 15.198C73.5614 15.198 73.6804 15.2447 73.7784 15.338C73.8764 15.4313 73.9254 15.5433 73.9254 15.674C73.9254 15.8187 73.8764 15.94 73.7784 16.038C73.6851 16.136 73.5661 16.185 73.4214 16.185ZM76.6179 14.855H77.3529V16.787L77.3249 17.382C77.4136 17.186 77.5559 17.025 77.7519 16.899C77.9479 16.7683 78.1766 16.703 78.4379 16.703C78.7693 16.703 79.0236 16.773 79.2009 16.913C79.3783 17.0483 79.4973 17.2397 79.5579 17.487C79.6186 17.7343 79.6489 18.0563 79.6489 18.453V20H78.8999V18.446C78.8999 18.1753 78.8836 17.963 78.8509 17.809C78.8229 17.655 78.7623 17.5383 78.6689 17.459C78.5803 17.3797 78.4496 17.34 78.2769 17.34C78.1369 17.34 77.9946 17.382 77.8499 17.466C77.7099 17.55 77.5933 17.6737 77.4999 17.837C77.4066 17.9957 77.3599 18.1847 77.3599 18.404V20H76.6179V14.855ZM82.0303 20.07C81.741 20.07 81.4726 20.0023 81.2253 19.867C80.9826 19.727 80.7866 19.531 80.6373 19.279C80.4926 19.0223 80.4203 18.7237 80.4203 18.383C80.4203 18.047 80.4833 17.753 80.6093 17.501C80.74 17.249 80.9243 17.053 81.1623 16.913C81.4003 16.773 81.6803 16.703 82.0023 16.703C82.189 16.703 82.364 16.7357 82.5273 16.801C82.6906 16.8663 82.8283 16.948 82.9403 17.046C83.0523 17.1393 83.127 17.2327 83.1643 17.326L83.1783 16.787H83.8993V20H83.1853L83.1713 19.433C83.092 19.601 82.9473 19.7503 82.7373 19.881C82.5273 20.007 82.2916 20.07 82.0303 20.07ZM82.1563 19.44C82.4223 19.44 82.6463 19.349 82.8283 19.167C83.0103 18.9803 83.1013 18.7377 83.1013 18.439V18.39C83.1013 18.1893 83.0593 18.0097 82.9753 17.851C82.8913 17.6923 82.777 17.5687 82.6323 17.48C82.4876 17.3913 82.329 17.347 82.1563 17.347C81.8576 17.347 81.6266 17.445 81.4633 17.641C81.3 17.8323 81.2183 18.082 81.2183 18.39C81.2183 18.7027 81.2976 18.957 81.4563 19.153C81.6196 19.3443 81.853 19.44 82.1563 19.44ZM86.4139 20.07C86.0966 20.07 85.8096 20.0023 85.5529 19.867C85.3009 19.727 85.1003 19.5287 84.9509 19.272C84.8016 19.0107 84.7269 18.705 84.7269 18.355C84.7269 18.0237 84.7946 17.7343 84.9299 17.487C85.0699 17.235 85.2636 17.0413 85.5109 16.906C85.7629 16.7707 86.0523 16.703 86.3789 16.703C86.6263 16.703 86.8386 16.7357 87.0159 16.801C87.1979 16.8617 87.3403 16.9387 87.4429 17.032L87.1069 17.641C86.9109 17.445 86.6893 17.347 86.4419 17.347C86.1433 17.347 85.9146 17.438 85.7559 17.62C85.6019 17.802 85.5249 18.0447 85.5249 18.348C85.5249 18.6933 85.6043 18.9617 85.7629 19.153C85.9263 19.3443 86.1526 19.44 86.4419 19.44C86.5866 19.44 86.7266 19.419 86.8619 19.377C87.0019 19.335 87.1093 19.286 87.1839 19.23L87.4569 19.762C87.3543 19.8413 87.2096 19.9137 87.0229 19.979C86.8409 20.0397 86.6379 20.07 86.4139 20.07ZM91.0817 20H90.1927L89.5417 18.95L89.3597 18.593L88.9397 19.048V20H88.2117V14.855H88.9327V17.676L88.9187 18.222L90.1437 16.787H91.0747L89.8637 18.131L91.0817 20ZM93.1045 20.07C92.8152 20.07 92.5469 20.0023 92.2995 19.867C92.0569 19.727 91.8609 19.531 91.7115 19.279C91.5669 19.0223 91.4945 18.7237 91.4945 18.383C91.4945 18.047 91.5575 17.753 91.6835 17.501C91.8142 17.249 91.9985 17.053 92.2365 16.913C92.4745 16.773 92.7545 16.703 93.0765 16.703C93.2632 16.703 93.4382 16.7357 93.6015 16.801C93.7649 16.8663 93.9025 16.948 94.0145 17.046C94.1265 17.1393 94.2012 17.2327 94.2385 17.326L94.2525 16.787H94.9735V20H94.2595L94.2455 19.433C94.1662 19.601 94.0215 19.7503 93.8115 19.881C93.6015 20.007 93.3659 20.07 93.1045 20.07ZM93.2305 19.44C93.4965 19.44 93.7205 19.349 93.9025 19.167C94.0845 18.9803 94.1755 18.7377 94.1755 18.439V18.39C94.1755 18.1893 94.1335 18.0097 94.0495 17.851C93.9655 17.6923 93.8512 17.5687 93.7065 17.48C93.5619 17.3913 93.4032 17.347 93.2305 17.347C92.9319 17.347 92.7009 17.445 92.5375 17.641C92.3742 17.8323 92.2925 18.082 92.2925 18.39C92.2925 18.7027 92.3719 18.957 92.5305 19.153C92.6939 19.3443 92.9272 19.44 93.2305 19.44ZM96.2702 17.403H95.7032V16.787H96.2702V15.478L97.0332 15.31V16.787H97.7752V17.403H97.0332V20H96.2702V17.403ZM98.4246 14.855H99.1596V16.787L99.1316 17.382C99.2202 17.186 99.3626 17.025 99.5586 16.899C99.7546 16.7683 99.9832 16.703 100.245 16.703C100.576 16.703 100.83 16.773 101.008 16.913C101.185 17.0483 101.304 17.2397 101.365 17.487C101.425 17.7343 101.456 18.0563 101.456 18.453V20H100.707V18.446C100.707 18.1753 100.69 17.963 100.658 17.809C100.63 17.655 100.569 17.5383 100.476 17.459C100.387 17.3797 100.256 17.34 100.084 17.34C99.9436 17.34 99.8012 17.382 99.6566 17.466C99.5166 17.55 99.3999 17.6737 99.3066 17.837C99.2132 17.9957 99.1666 18.1847 99.1666 18.404V20H98.4246V14.855ZM103.914 20.07C103.583 20.07 103.289 19.9953 103.032 19.846C102.775 19.6967 102.577 19.4937 102.437 19.237C102.297 18.9803 102.227 18.6957 102.227 18.383C102.227 18.075 102.295 17.7927 102.43 17.536C102.57 17.2793 102.768 17.0763 103.025 16.927C103.282 16.7777 103.578 16.703 103.914 16.703C104.25 16.703 104.544 16.7777 104.796 16.927C105.053 17.0763 105.249 17.2793 105.384 17.536C105.524 17.7927 105.594 18.075 105.594 18.383C105.594 18.6957 105.524 18.9803 105.384 19.237C105.244 19.4937 105.046 19.6967 104.789 19.846C104.537 19.9953 104.245 20.07 103.914 20.07ZM103.935 19.454C104.206 19.454 104.418 19.3537 104.572 19.153C104.731 18.9523 104.81 18.7003 104.81 18.397C104.81 18.0937 104.726 17.8393 104.558 17.634C104.39 17.424 104.168 17.319 103.893 17.319C103.627 17.319 103.412 17.4217 103.249 17.627C103.09 17.8323 103.011 18.089 103.011 18.397C103.011 18.6957 103.097 18.9477 103.27 19.153C103.443 19.3537 103.664 19.454 103.935 19.454ZM106.401 16.787H107.143L107.15 17.375C107.239 17.179 107.379 17.018 107.57 16.892C107.762 16.766 107.986 16.703 108.242 16.703C108.574 16.703 108.828 16.773 109.005 16.913C109.183 17.0483 109.302 17.2397 109.362 17.487C109.423 17.7343 109.453 18.0563 109.453 18.453V20H108.697V18.474C108.697 18.068 108.658 17.7763 108.578 17.599C108.499 17.417 108.336 17.326 108.088 17.326C107.948 17.326 107.806 17.3703 107.661 17.459C107.517 17.543 107.395 17.6667 107.297 17.83C107.204 17.9933 107.157 18.1847 107.157 18.404V20H106.401V16.787ZM54.0759 28.787H54.8039V29.382C55.0606 28.9293 55.4619 28.703 56.0079 28.703C56.4606 28.703 56.8269 28.8477 57.1069 29.137C57.3869 29.4217 57.5269 29.8347 57.5269 30.376C57.5269 30.712 57.4569 31.0083 57.3169 31.265C57.1816 31.5217 56.9949 31.72 56.7569 31.86C56.5236 32 56.2623 32.07 55.9729 32.07C55.7023 32.07 55.4666 32.0233 55.2659 31.93C55.0699 31.832 54.9159 31.6943 54.8039 31.517L54.8109 33.701H54.0759V28.787ZM55.7979 31.433C56.1013 31.433 56.3346 31.3373 56.4979 31.146C56.6613 30.95 56.7429 30.7003 56.7429 30.397C56.7429 30.0797 56.6613 29.8277 56.4979 29.641C56.3393 29.4497 56.1059 29.354 55.7979 29.354C55.6299 29.354 55.4713 29.396 55.3219 29.48C55.1773 29.5593 55.0606 29.676 54.9719 29.83C54.8879 29.9793 54.8459 30.1543 54.8459 30.355V30.404C54.8459 30.6047 54.8879 30.7843 54.9719 30.943C55.0606 31.097 55.1773 31.2183 55.3219 31.307C55.4666 31.391 55.6253 31.433 55.7979 31.433ZM58.3134 28.787H59.0694V29.417C59.1441 29.2023 59.2654 29.0297 59.4334 28.899C59.6014 28.7683 59.7927 28.703 60.0074 28.703C60.1567 28.703 60.2594 28.717 60.3154 28.745L60.2104 29.508C60.1684 29.48 60.0774 29.466 59.9374 29.466C59.7181 29.466 59.5174 29.536 59.3354 29.676C59.1581 29.816 59.0694 30.04 59.0694 30.348V32H58.3134V28.787ZM60.906 28.787H61.69V32H60.906V28.787ZM61.291 28.185C61.1464 28.185 61.025 28.136 60.927 28.038C60.829 27.94 60.78 27.8187 60.78 27.674C60.78 27.5433 60.829 27.4313 60.927 27.338C61.025 27.2447 61.1464 27.198 61.291 27.198C61.431 27.198 61.55 27.2447 61.648 27.338C61.746 27.4313 61.795 27.5433 61.795 27.674C61.795 27.8187 61.746 27.94 61.648 28.038C61.5547 28.136 61.4357 28.185 61.291 28.185ZM63.8427 29.641L64.0177 29.389L63.2407 29.41H62.6877V28.787H65.1867L63.7377 31.153L63.5627 31.419L64.3187 31.391L65.1307 31.377V32H62.3797L63.8427 29.641ZM67.4208 32.07C67.0381 32.07 66.7185 31.9953 66.4618 31.846C66.2051 31.692 66.0161 31.489 65.8948 31.237C65.7735 30.9803 65.7128 30.7003 65.7128 30.397C65.7128 30.0563 65.7828 29.7577 65.9228 29.501C66.0675 29.2443 66.2658 29.0483 66.5178 28.913C66.7698 28.773 67.0545 28.703 67.3718 28.703C67.8665 28.703 68.2328 28.8407 68.4708 29.116C68.7135 29.3867 68.8348 29.7693 68.8348 30.264C68.8348 30.39 68.8278 30.5207 68.8138 30.656H66.5038C66.5551 30.9407 66.6555 31.146 66.8048 31.272C66.9588 31.398 67.1711 31.461 67.4418 31.461C67.6658 31.461 67.8501 31.4423 67.9948 31.405C68.1395 31.3677 68.2725 31.3163 68.3938 31.251L68.6248 31.79C68.5081 31.8647 68.3495 31.93 68.1488 31.986C67.9481 32.042 67.7055 32.07 67.4208 32.07ZM68.0998 30.131C68.1045 29.8417 68.0415 29.6387 67.9108 29.522C67.7801 29.4007 67.5935 29.34 67.3508 29.34C66.8608 29.34 66.5785 29.6037 66.5038 30.131H68.0998ZM73.3032 30.215L72.3512 32H72.2182L70.8672 28.787H71.6792L72.3722 30.656L73.2892 28.787H73.3172L74.2412 30.642L74.9342 28.787H75.7322L74.3882 32H74.2552L73.3032 30.215ZM76.3074 28.787H77.0914V32H76.3074V28.787ZM76.6924 28.185C76.5477 28.185 76.4264 28.136 76.3284 28.038C76.2304 27.94 76.1814 27.8187 76.1814 27.674C76.1814 27.5433 76.2304 27.4313 76.3284 27.338C76.4264 27.2447 76.5477 27.198 76.6924 27.198C76.8324 27.198 76.9514 27.2447 77.0494 27.338C77.1474 27.4313 77.1964 27.5433 77.1964 27.674C77.1964 27.8187 77.1474 27.94 77.0494 28.038C76.9561 28.136 76.8371 28.185 76.6924 28.185ZM78.1381 28.787H78.8801L78.8871 29.375C78.9758 29.179 79.1158 29.018 79.3071 28.892C79.4984 28.766 79.7224 28.703 79.9791 28.703C80.3104 28.703 80.5648 28.773 80.7421 28.913C80.9194 29.0483 81.0384 29.2397 81.0991 29.487C81.1598 29.7343 81.1901 30.0563 81.1901 30.453V32H80.4341V30.474C80.4341 30.068 80.3944 29.7763 80.3151 29.599C80.2358 29.417 80.0724 29.326 79.8251 29.326C79.6851 29.326 79.5428 29.3703 79.3981 29.459C79.2534 29.543 79.1321 29.6667 79.0341 29.83C78.9408 29.9933 78.8941 30.1847 78.8941 30.404V32H78.1381V28.787ZM82.1645 28.787H82.9065L82.9135 29.375C83.0021 29.179 83.1421 29.018 83.3335 28.892C83.5248 28.766 83.7488 28.703 84.0055 28.703C84.3368 28.703 84.5911 28.773 84.7685 28.913C84.9458 29.0483 85.0648 29.2397 85.1255 29.487C85.1861 29.7343 85.2165 30.0563 85.2165 30.453V32H84.4605V30.474C84.4605 30.068 84.4208 29.7763 84.3415 29.599C84.2621 29.417 84.0988 29.326 83.8515 29.326C83.7115 29.326 83.5691 29.3703 83.4245 29.459C83.2798 29.543 83.1585 29.6667 83.0605 29.83C82.9671 29.9933 82.9205 30.1847 82.9205 30.404V32H82.1645V28.787ZM87.7098 32.07C87.3272 32.07 87.0075 31.9953 86.7508 31.846C86.4942 31.692 86.3052 31.489 86.1838 31.237C86.0625 30.9803 86.0018 30.7003 86.0018 30.397C86.0018 30.0563 86.0718 29.7577 86.2118 29.501C86.3565 29.2443 86.5548 29.0483 86.8068 28.913C87.0588 28.773 87.3435 28.703 87.6608 28.703C88.1555 28.703 88.5218 28.8407 88.7598 29.116C89.0025 29.3867 89.1238 29.7693 89.1238 30.264C89.1238 30.39 89.1168 30.5207 89.1028 30.656H86.7928C86.8442 30.9407 86.9445 31.146 87.0938 31.272C87.2478 31.398 87.4602 31.461 87.7308 31.461C87.9548 31.461 88.1392 31.4423 88.2838 31.405C88.4285 31.3677 88.5615 31.3163 88.6828 31.251L88.9138 31.79C88.7972 31.8647 88.6385 31.93 88.4378 31.986C88.2372 32.042 87.9945 32.07 87.7098 32.07ZM88.3888 30.131C88.3935 29.8417 88.3305 29.6387 88.1998 29.522C88.0692 29.4007 87.8825 29.34 87.6398 29.34C87.1498 29.34 86.8675 29.6037 86.7928 30.131H88.3888ZM89.8954 28.787H90.6514V29.417C90.7261 29.2023 90.8474 29.0297 91.0154 28.899C91.1834 28.7683 91.3748 28.703 91.5894 28.703C91.7388 28.703 91.8414 28.717 91.8974 28.745L91.7924 29.508C91.7504 29.48 91.6594 29.466 91.5194 29.466C91.3001 29.466 91.0994 29.536 90.9174 29.676C90.7401 29.816 90.6514 30.04 90.6514 30.348V32H89.8954V28.787ZM30.187 42.404C29.977 42.404 29.7974 42.3293 29.648 42.18C29.4987 42.0307 29.424 41.851 29.424 41.641C29.424 41.4357 29.4987 41.2583 29.648 41.109C29.7974 40.955 29.977 40.878 30.187 40.878C30.4017 40.878 30.5837 40.9527 30.733 41.102C30.8824 41.2513 30.957 41.431 30.957 41.641C30.957 41.851 30.88 42.0307 30.726 42.18C30.5767 42.3293 30.397 42.404 30.187 42.404ZM38.3515 44.07C37.8848 44.07 37.4531 43.9627 37.0565 43.748C36.6645 43.5287 36.3518 43.2183 36.1185 42.817C35.8851 42.4157 35.7685 41.949 35.7685 41.417C35.7685 40.8803 35.8851 40.4137 36.1185 40.017C36.3518 39.6157 36.6645 39.3077 37.0565 39.093C37.4531 38.8783 37.8848 38.771 38.3515 38.771C38.8181 38.771 39.2475 38.8783 39.6395 39.093C40.0361 39.3077 40.3511 39.6157 40.5845 40.017C40.8178 40.4137 40.9345 40.8803 40.9345 41.417C40.9345 41.949 40.8178 42.4157 40.5845 42.817C40.3511 43.2183 40.0361 43.5287 39.6395 43.748C39.2475 43.9627 38.8181 44.07 38.3515 44.07ZM38.3515 43.363C38.6735 43.363 38.9675 43.2883 39.2335 43.139C39.4995 42.985 39.7095 42.7633 39.8635 42.474C40.0221 42.18 40.1015 41.83 40.1015 41.424C40.1015 41.0133 40.0221 40.6633 39.8635 40.374C39.7095 40.08 39.4995 39.8583 39.2335 39.709C38.9721 39.5597 38.6781 39.485 38.3515 39.485C38.0248 39.485 37.7285 39.5597 37.4625 39.709C37.1965 39.8583 36.9865 40.08 36.8325 40.374C36.6785 40.6633 36.6015 41.0133 36.6015 41.424C36.6015 41.83 36.6808 42.18 36.8395 42.474C36.9981 42.7633 37.2105 42.985 37.4765 43.139C37.7471 43.2883 38.0388 43.363 38.3515 43.363ZM43.1817 44.07C42.8923 44.07 42.624 44.0023 42.3767 43.867C42.134 43.727 41.938 43.531 41.7887 43.279C41.644 43.0223 41.5717 42.7237 41.5717 42.383C41.5717 42.047 41.6347 41.753 41.7607 41.501C41.8913 41.249 42.0757 41.053 42.3137 40.913C42.5517 40.773 42.8317 40.703 43.1537 40.703C43.3403 40.703 43.5153 40.7357 43.6787 40.801C43.842 40.8663 43.9797 40.948 44.0917 41.046C44.2037 41.1393 44.2783 41.2327 44.3157 41.326L44.3297 40.787H45.0507V44H44.3367L44.3227 43.433C44.2433 43.601 44.0987 43.7503 43.8887 43.881C43.6787 44.007 43.443 44.07 43.1817 44.07ZM43.3077 43.44C43.5737 43.44 43.7977 43.349 43.9797 43.167C44.1617 42.9803 44.2527 42.7377 44.2527 42.439V42.39C44.2527 42.1893 44.2107 42.0097 44.1267 41.851C44.0427 41.6923 43.9283 41.5687 43.7837 41.48C43.639 41.3913 43.4803 41.347 43.3077 41.347C43.009 41.347 42.778 41.445 42.6147 41.641C42.4513 41.8323 42.3697 42.082 42.3697 42.39C42.3697 42.7027 42.449 42.957 42.6077 43.153C42.771 43.3443 43.0043 43.44 43.3077 43.44ZM47.1733 44.07C46.9493 44.07 46.716 44.042 46.4733 43.986C46.2353 43.9253 46.065 43.8553 45.9623 43.776L46.2143 43.181C46.4943 43.377 46.814 43.475 47.1733 43.475C47.5326 43.475 47.7123 43.37 47.7123 43.16C47.7123 43.0667 47.675 42.9943 47.6003 42.943C47.5256 42.8917 47.3926 42.831 47.2013 42.761L46.9353 42.663C46.6553 42.551 46.4336 42.418 46.2703 42.264C46.107 42.1053 46.0253 41.8977 46.0253 41.641C46.0253 41.347 46.1396 41.1183 46.3683 40.955C46.6016 40.787 46.912 40.703 47.2993 40.703C47.4906 40.703 47.6773 40.724 47.8593 40.766C48.046 40.808 48.1883 40.8617 48.2863 40.927L48.0133 41.529C47.9526 41.4683 47.8546 41.417 47.7193 41.375C47.5886 41.3283 47.4416 41.305 47.2783 41.305C46.947 41.305 46.7813 41.4053 46.7813 41.606C46.7813 41.718 46.8256 41.8043 46.9143 41.865C47.003 41.921 47.1476 41.984 47.3483 42.054C47.367 42.0587 47.4393 42.0843 47.5653 42.131C47.864 42.2477 48.0856 42.3807 48.2303 42.53C48.375 42.6793 48.4473 42.8707 48.4473 43.104C48.4473 43.4213 48.326 43.6617 48.0833 43.825C47.8453 43.9883 47.542 44.07 47.1733 44.07ZM49.2884 40.787H50.0724V44H49.2884V40.787ZM49.6734 40.185C49.5287 40.185 49.4074 40.136 49.3094 40.038C49.2114 39.94 49.1624 39.8187 49.1624 39.674C49.1624 39.5433 49.2114 39.4313 49.3094 39.338C49.4074 39.2447 49.5287 39.198 49.6734 39.198C49.8134 39.198 49.9324 39.2447 50.0304 39.338C50.1284 39.4313 50.1774 39.5433 50.1774 39.674C50.1774 39.8187 50.1284 39.94 50.0304 40.038C49.937 40.136 49.818 40.185 49.6734 40.185ZM52.2251 44.07C52.0011 44.07 51.7677 44.042 51.5251 43.986C51.2871 43.9253 51.1167 43.8553 51.0141 43.776L51.2661 43.181C51.5461 43.377 51.8657 43.475 52.2251 43.475C52.5844 43.475 52.7641 43.37 52.7641 43.16C52.7641 43.0667 52.7267 42.9943 52.6521 42.943C52.5774 42.8917 52.4444 42.831 52.2531 42.761L51.9871 42.663C51.7071 42.551 51.4854 42.418 51.3221 42.264C51.1587 42.1053 51.0771 41.8977 51.0771 41.641C51.0771 41.347 51.1914 41.1183 51.4201 40.955C51.6534 40.787 51.9637 40.703 52.3511 40.703C52.5424 40.703 52.7291 40.724 52.9111 40.766C53.0977 40.808 53.2401 40.8617 53.3381 40.927L53.0651 41.529C53.0044 41.4683 52.9064 41.417 52.7711 41.375C52.6404 41.3283 52.4934 41.305 52.3301 41.305C51.9987 41.305 51.8331 41.4053 51.8331 41.606C51.8331 41.718 51.8774 41.8043 51.9661 41.865C52.0547 41.921 52.1994 41.984 52.4001 42.054C52.4187 42.0587 52.4911 42.0843 52.6171 42.131C52.9157 42.2477 53.1374 42.3807 53.2821 42.53C53.4267 42.6793 53.4991 42.8707 53.4991 43.104C53.4991 43.4213 53.3777 43.6617 53.1351 43.825C52.8971 43.9883 52.5937 44.07 52.2251 44.07ZM56.3009 41.389H55.7829V40.787H56.3009V40.094C56.3009 39.674 56.4013 39.3497 56.6019 39.121C56.8073 38.8877 57.1059 38.771 57.4979 38.771C57.6566 38.771 57.8363 38.8153 58.0369 38.904L57.8899 39.618C57.8573 39.5807 57.8059 39.5457 57.7359 39.513C57.6706 39.4757 57.5983 39.457 57.5189 39.457C57.2063 39.457 57.0476 39.66 57.0429 40.066V40.787H57.7989V41.389H57.0429V44H56.3009V41.389ZM60.0341 44.07C59.7027 44.07 59.4087 43.9953 59.1521 43.846C58.8954 43.6967 58.6971 43.4937 58.5571 43.237C58.4171 42.9803 58.3471 42.6957 58.3471 42.383C58.3471 42.075 58.4147 41.7927 58.5501 41.536C58.6901 41.2793 58.8884 41.0763 59.1451 40.927C59.4017 40.7777 59.6981 40.703 60.0341 40.703C60.3701 40.703 60.6641 40.7777 60.9161 40.927C61.1727 41.0763 61.3687 41.2793 61.5041 41.536C61.6441 41.7927 61.7141 42.075 61.7141 42.383C61.7141 42.6957 61.6441 42.9803 61.5041 43.237C61.3641 43.4937 61.1657 43.6967 60.9091 43.846C60.6571 43.9953 60.3654 44.07 60.0341 44.07ZM60.0551 43.454C60.3257 43.454 60.5381 43.3537 60.6921 43.153C60.8507 42.9523 60.9301 42.7003 60.9301 42.397C60.9301 42.0937 60.8461 41.8393 60.6781 41.634C60.5101 41.424 60.2884 41.319 60.0131 41.319C59.7471 41.319 59.5324 41.4217 59.3691 41.627C59.2104 41.8323 59.1311 42.089 59.1311 42.397C59.1311 42.6957 59.2174 42.9477 59.3901 43.153C59.5627 43.3537 59.7844 43.454 60.0551 43.454ZM63.6344 44.07C63.1911 44.07 62.8854 43.9393 62.7174 43.678C62.5541 43.4167 62.4724 43.0527 62.4724 42.586V40.787H63.2284V42.397C63.2284 42.663 63.2424 42.8707 63.2704 43.02C63.3031 43.1647 63.3637 43.272 63.4524 43.342C63.5457 43.412 63.6834 43.447 63.8654 43.447C63.9961 43.447 64.1221 43.4097 64.2434 43.335C64.3647 43.2603 64.4627 43.16 64.5374 43.034C64.6167 42.9033 64.6564 42.761 64.6564 42.607V40.787H65.4054V44H64.7894L64.7054 43.531C64.5887 43.713 64.4417 43.8483 64.2644 43.937C64.0917 44.0257 63.8817 44.07 63.6344 44.07ZM66.4111 40.787H67.1531L67.1601 41.375C67.2487 41.179 67.3887 41.018 67.5801 40.892C67.7714 40.766 67.9954 40.703 68.2521 40.703C68.5834 40.703 68.8377 40.773 69.0151 40.913C69.1924 41.0483 69.3114 41.2397 69.3721 41.487C69.4327 41.7343 69.4631 42.0563 69.4631 42.453V44H68.7071V42.474C68.7071 42.068 68.6674 41.7763 68.5881 41.599C68.5087 41.417 68.3454 41.326 68.0981 41.326C67.9581 41.326 67.8157 41.3703 67.6711 41.459C67.5264 41.543 67.4051 41.6667 67.3071 41.83C67.2137 41.9933 67.1671 42.1847 67.1671 42.404V44H66.4111V40.787ZM71.8584 44.07C71.5691 44.07 71.3008 44.0023 71.0534 43.867C70.8108 43.727 70.6148 43.531 70.4654 43.279C70.3208 43.0223 70.2484 42.7237 70.2484 42.383C70.2484 41.8743 70.3908 41.4683 70.6754 41.165C70.9601 40.857 71.3451 40.703 71.8304 40.703C72.1011 40.703 72.3484 40.7707 72.5724 40.906C72.7964 41.0367 72.9481 41.1953 73.0274 41.382L72.9924 40.836V38.855H73.7344V44H73.0134L72.9994 43.433C72.9201 43.601 72.7754 43.7503 72.5654 43.881C72.3554 44.007 72.1198 44.07 71.8584 44.07ZM71.9844 43.433C72.2504 43.433 72.4744 43.342 72.6564 43.16C72.8384 42.9733 72.9294 42.7307 72.9294 42.432V42.383C72.9294 42.1823 72.8874 42.0027 72.8034 41.844C72.7194 41.6853 72.6051 41.5617 72.4604 41.473C72.3158 41.3843 72.1571 41.34 71.9844 41.34C71.6858 41.34 71.4548 41.438 71.2914 41.634C71.1281 41.8253 71.0464 42.075 71.0464 42.383C71.0464 42.6957 71.1258 42.95 71.2844 43.146C71.4478 43.3373 71.6811 43.433 71.9844 43.433ZM76.1582 44.07C75.8689 44.07 75.6006 44.0023 75.3532 43.867C75.1106 43.727 74.9146 43.531 74.7652 43.279C74.6206 43.0223 74.5482 42.7237 74.5482 42.383C74.5482 42.047 74.6112 41.753 74.7372 41.501C74.8679 41.249 75.0522 41.053 75.2902 40.913C75.5282 40.773 75.8082 40.703 76.1302 40.703C76.3169 40.703 76.4919 40.7357 76.6552 40.801C76.8186 40.8663 76.9562 40.948 77.0682 41.046C77.1802 41.1393 77.2549 41.2327 77.2922 41.326L77.3062 40.787H78.0272V44H77.3132L77.2992 43.433C77.2199 43.601 77.0752 43.7503 76.8652 43.881C76.6552 44.007 76.4196 44.07 76.1582 44.07ZM76.2842 43.44C76.5502 43.44 76.7742 43.349 76.9562 43.167C77.1382 42.9803 77.2292 42.7377 77.2292 42.439V42.39C77.2292 42.1893 77.1872 42.0097 77.1032 41.851C77.0192 41.6923 76.9049 41.5687 76.7602 41.48C76.6156 41.3913 76.4569 41.347 76.2842 41.347C75.9856 41.347 75.7546 41.445 75.5912 41.641C75.4279 41.8323 75.3462 42.082 75.3462 42.39C75.3462 42.7027 75.4256 42.957 75.5842 43.153C75.7476 43.3443 75.9809 43.44 76.2842 43.44ZM79.3239 41.403H78.7569V40.787H79.3239V39.478L80.0869 39.31V40.787H80.8289V41.403H80.0869V44H79.3239V41.403ZM81.4993 40.787H82.2833V44H81.4993V40.787ZM81.8843 40.185C81.7396 40.185 81.6183 40.136 81.5203 40.038C81.4223 39.94 81.3733 39.8187 81.3733 39.674C81.3733 39.5433 81.4223 39.4313 81.5203 39.338C81.6183 39.2447 81.7396 39.198 81.8843 39.198C82.0243 39.198 82.1433 39.2447 82.2413 39.338C82.3393 39.4313 82.3883 39.5433 82.3883 39.674C82.3883 39.8187 82.3393 39.94 82.2413 40.038C82.148 40.136 82.029 40.185 81.8843 40.185ZM84.828 44.07C84.4967 44.07 84.2027 43.9953 83.946 43.846C83.6893 43.6967 83.491 43.4937 83.351 43.237C83.211 42.9803 83.141 42.6957 83.141 42.383C83.141 42.075 83.2087 41.7927 83.344 41.536C83.484 41.2793 83.6823 41.0763 83.939 40.927C84.1957 40.7777 84.492 40.703 84.828 40.703C85.164 40.703 85.458 40.7777 85.71 40.927C85.9667 41.0763 86.1627 41.2793 86.298 41.536C86.438 41.7927 86.508 42.075 86.508 42.383C86.508 42.6957 86.438 42.9803 86.298 43.237C86.158 43.4937 85.9597 43.6967 85.703 43.846C85.451 43.9953 85.1593 44.07 84.828 44.07ZM84.849 43.454C85.1197 43.454 85.332 43.3537 85.486 43.153C85.6447 42.9523 85.724 42.7003 85.724 42.397C85.724 42.0937 85.64 41.8393 85.472 41.634C85.304 41.424 85.0823 41.319 84.807 41.319C84.541 41.319 84.3263 41.4217 84.163 41.627C84.0043 41.8323 83.925 42.089 83.925 42.397C83.925 42.6957 84.0113 42.9477 84.184 43.153C84.3567 43.3537 84.5783 43.454 84.849 43.454ZM87.3154 40.787H88.0574L88.0644 41.375C88.153 41.179 88.293 41.018 88.4844 40.892C88.6757 40.766 88.8997 40.703 89.1564 40.703C89.4877 40.703 89.742 40.773 89.9194 40.913C90.0967 41.0483 90.2157 41.2397 90.2764 41.487C90.337 41.7343 90.3674 42.0563 90.3674 42.453V44H89.6114V42.474C89.6114 42.068 89.5717 41.7763 89.4924 41.599C89.413 41.417 89.2497 41.326 89.0024 41.326C88.8624 41.326 88.72 41.3703 88.5754 41.459C88.4307 41.543 88.3094 41.6667 88.2114 41.83C88.118 41.9933 88.0714 42.1847 88.0714 42.404V44H87.3154V40.787ZM94.6185 45.68C94.3805 45.68 94.1449 45.6473 93.9115 45.582C93.6829 45.5167 93.5195 45.456 93.4215 45.4L93.5895 44.7C93.8975 44.9007 94.2335 45.001 94.5975 45.001C94.8775 45.001 95.1132 44.9333 95.3045 44.798C95.4959 44.6627 95.5939 44.399 95.5985 44.007V43.433C95.5005 43.615 95.3419 43.7667 95.1225 43.888C94.9032 44.0093 94.6605 44.07 94.3945 44.07C94.1145 44.07 93.8579 44.0023 93.6245 43.867C93.3912 43.727 93.2069 43.5287 93.0715 43.272C92.9362 43.0153 92.8685 42.7167 92.8685 42.376C92.8685 42.0493 92.9315 41.76 93.0575 41.508C93.1882 41.2513 93.3725 41.053 93.6105 40.913C93.8485 40.773 94.1262 40.703 94.4435 40.703C94.6302 40.703 94.8052 40.7357 94.9685 40.801C95.1319 40.8663 95.2695 40.948 95.3815 41.046C95.4982 41.1393 95.5752 41.2327 95.6125 41.326L95.6265 40.787H96.3405V43.979C96.3405 44.525 96.2005 44.945 95.9205 45.239C95.6405 45.533 95.2065 45.68 94.6185 45.68ZM94.6045 43.433C94.8705 43.433 95.0945 43.342 95.2765 43.16C95.4585 42.9733 95.5495 42.7307 95.5495 42.432V42.383C95.5495 42.1823 95.5075 42.0027 95.4235 41.844C95.3395 41.6853 95.2252 41.5617 95.0805 41.473C94.9359 41.3843 94.7772 41.34 94.6045 41.34C94.3059 41.34 94.0749 41.438 93.9115 41.634C93.7482 41.8253 93.6665 42.075 93.6665 42.383C93.6665 42.6957 93.7459 42.95 93.9045 43.146C94.0679 43.3373 94.3012 43.433 94.6045 43.433ZM97.2885 40.787H98.0445V41.417C98.1192 41.2023 98.2405 41.0297 98.4085 40.899C98.5765 40.7683 98.7678 40.703 98.9825 40.703C99.1318 40.703 99.2345 40.717 99.2905 40.745L99.1855 41.508C99.1435 41.48 99.0525 41.466 98.9125 41.466C98.6932 41.466 98.4925 41.536 98.3105 41.676C98.1332 41.816 98.0445 42.04 98.0445 42.348V44H97.2885V40.787ZM101.246 44.07C100.957 44.07 100.688 44.0023 100.441 43.867C100.198 43.727 100.002 43.531 99.8531 43.279C99.7085 43.0223 99.6361 42.7237 99.6361 42.383C99.6361 42.047 99.6991 41.753 99.8251 41.501C99.9558 41.249 100.14 41.053 100.378 40.913C100.616 40.773 100.896 40.703 101.218 40.703C101.405 40.703 101.58 40.7357 101.743 40.801C101.906 40.8663 102.044 40.948 102.156 41.046C102.268 41.1393 102.343 41.2327 102.38 41.326L102.394 40.787H103.115V44H102.401L102.387 43.433C102.308 43.601 102.163 43.7503 101.953 43.881C101.743 44.007 101.507 44.07 101.246 44.07ZM101.372 43.44C101.638 43.44 101.862 43.349 102.044 43.167C102.226 42.9803 102.317 42.7377 102.317 42.439V42.39C102.317 42.1893 102.275 42.0097 102.191 41.851C102.107 41.6923 101.993 41.5687 101.848 41.48C101.703 41.3913 101.545 41.347 101.372 41.347C101.073 41.347 100.842 41.445 100.679 41.641C100.516 41.8323 100.434 42.082 100.434 42.39C100.434 42.7027 100.513 42.957 100.672 43.153C100.835 43.3443 101.069 43.44 101.372 43.44ZM104.132 40.787H104.874L104.881 41.375C104.969 41.179 105.109 41.018 105.301 40.892C105.492 40.766 105.716 40.703 105.973 40.703C106.304 40.703 106.558 40.773 106.736 40.913C106.913 41.0483 107.032 41.2397 107.093 41.487C107.153 41.7343 107.184 42.0563 107.184 42.453V44H106.428V42.474C106.428 42.068 106.388 41.7763 106.309 41.599C106.229 41.417 106.066 41.326 105.819 41.326C105.679 41.326 105.536 41.3703 105.392 41.459C105.247 41.543 105.126 41.6667 105.028 41.83C104.934 41.9933 104.888 42.1847 104.888 42.404V44H104.132V40.787ZM108.438 41.403H107.871V40.787H108.438V39.478L109.201 39.31V40.787H109.943V41.403H109.201V44H108.438V41.403ZM60.8393 52.787H61.5953V53.417C61.6699 53.2023 61.7913 53.0297 61.9593 52.899C62.1273 52.7683 62.3186 52.703 62.5333 52.703C62.6826 52.703 62.7853 52.717 62.8413 52.745L62.7363 53.508C62.6943 53.48 62.6033 53.466 62.4633 53.466C62.2439 53.466 62.0433 53.536 61.8613 53.676C61.6839 53.816 61.5953 54.04 61.5953 54.348V56H60.8393V52.787ZM64.8949 56.07C64.5122 56.07 64.1926 55.9953 63.9359 55.846C63.6792 55.692 63.4902 55.489 63.3689 55.237C63.2476 54.9803 63.1869 54.7003 63.1869 54.397C63.1869 54.0563 63.2569 53.7577 63.3969 53.501C63.5416 53.2443 63.7399 53.0483 63.9919 52.913C64.2439 52.773 64.5286 52.703 64.8459 52.703C65.3406 52.703 65.7069 52.8407 65.9449 53.116C66.1876 53.3867 66.3089 53.7693 66.3089 54.264C66.3089 54.39 66.3019 54.5207 66.2879 54.656H63.9779C64.0292 54.9407 64.1296 55.146 64.2789 55.272C64.4329 55.398 64.6452 55.461 64.9159 55.461C65.1399 55.461 65.3242 55.4423 65.4689 55.405C65.6136 55.3677 65.7466 55.3163 65.8679 55.251L66.0989 55.79C65.9822 55.8647 65.8236 55.93 65.6229 55.986C65.4222 56.042 65.1796 56.07 64.8949 56.07ZM65.5739 54.131C65.5786 53.8417 65.5156 53.6387 65.3849 53.522C65.2542 53.4007 65.0676 53.34 64.8249 53.34C64.3349 53.34 64.0526 53.6037 63.9779 54.131H65.5739ZM68.5995 56.07C68.2822 56.07 67.9952 56.0023 67.7385 55.867C67.4865 55.727 67.2858 55.5287 67.1365 55.272C66.9872 55.0107 66.9125 54.705 66.9125 54.355C66.9125 54.0237 66.9802 53.7343 67.1155 53.487C67.2555 53.235 67.4492 53.0413 67.6965 52.906C67.9485 52.7707 68.2378 52.703 68.5645 52.703C68.8118 52.703 69.0242 52.7357 69.2015 52.801C69.3835 52.8617 69.5258 52.9387 69.6285 53.032L69.2925 53.641C69.0965 53.445 68.8748 53.347 68.6275 53.347C68.3288 53.347 68.1002 53.438 67.9415 53.62C67.7875 53.802 67.7105 54.0447 67.7105 54.348C67.7105 54.6933 67.7898 54.9617 67.9485 55.153C68.1118 55.3443 68.3382 55.44 68.6275 55.44C68.7722 55.44 68.9122 55.419 69.0475 55.377C69.1875 55.335 69.2948 55.286 69.3695 55.23L69.6425 55.762C69.5398 55.8413 69.3952 55.9137 69.2085 55.979C69.0265 56.0397 68.8235 56.07 68.5995 56.07ZM71.8812 56.07C71.4986 56.07 71.1789 55.9953 70.9222 55.846C70.6656 55.692 70.4766 55.489 70.3552 55.237C70.2339 54.9803 70.1732 54.7003 70.1732 54.397C70.1732 54.0563 70.2432 53.7577 70.3832 53.501C70.5279 53.2443 70.7262 53.0483 70.9782 52.913C71.2302 52.773 71.5149 52.703 71.8322 52.703C72.3269 52.703 72.6932 52.8407 72.9312 53.116C73.1739 53.3867 73.2952 53.7693 73.2952 54.264C73.2952 54.39 73.2882 54.5207 73.2742 54.656H70.9642C71.0156 54.9407 71.1159 55.146 71.2652 55.272C71.4192 55.398 71.6316 55.461 71.9022 55.461C72.1262 55.461 72.3106 55.4423 72.4552 55.405C72.5999 55.3677 72.7329 55.3163 72.8542 55.251L73.0852 55.79C72.9686 55.8647 72.8099 55.93 72.6092 55.986C72.4086 56.042 72.1659 56.07 71.8812 56.07ZM72.5602 54.131C72.5649 53.8417 72.5019 53.6387 72.3712 53.522C72.2406 53.4007 72.0539 53.34 71.8112 53.34C71.3212 53.34 71.0389 53.6037 70.9642 54.131H72.5602ZM74.1438 52.787H74.9278V56H74.1438V52.787ZM74.5288 52.185C74.3842 52.185 74.2628 52.136 74.1648 52.038C74.0668 51.94 74.0178 51.8187 74.0178 51.674C74.0178 51.5433 74.0668 51.4313 74.1648 51.338C74.2628 51.2447 74.3842 51.198 74.5288 51.198C74.6688 51.198 74.7878 51.2447 74.8858 51.338C74.9838 51.4313 75.0328 51.5433 75.0328 51.674C75.0328 51.8187 74.9838 51.94 74.8858 52.038C74.7925 52.136 74.6735 52.185 74.5288 52.185ZM75.4635 52.787H76.3245L77.0175 54.236L77.2415 54.817L77.4655 54.236L78.1515 52.787H78.9915L77.3045 56H77.1575L75.4635 52.787ZM80.9115 56.07C80.5288 56.07 80.2092 55.9953 79.9525 55.846C79.6958 55.692 79.5068 55.489 79.3855 55.237C79.2642 54.9803 79.2035 54.7003 79.2035 54.397C79.2035 54.0563 79.2735 53.7577 79.4135 53.501C79.5582 53.2443 79.7565 53.0483 80.0085 52.913C80.2605 52.773 80.5452 52.703 80.8625 52.703C81.3572 52.703 81.7235 52.8407 81.9615 53.116C82.2042 53.3867 82.3255 53.7693 82.3255 54.264C82.3255 54.39 82.3185 54.5207 82.3045 54.656H79.9945C80.0458 54.9407 80.1462 55.146 80.2955 55.272C80.4495 55.398 80.6618 55.461 80.9325 55.461C81.1565 55.461 81.3408 55.4423 81.4855 55.405C81.6302 55.3677 81.7632 55.3163 81.8845 55.251L82.1155 55.79C81.9988 55.8647 81.8402 55.93 81.6395 55.986C81.4388 56.042 81.1962 56.07 80.9115 56.07ZM81.5905 54.131C81.5952 53.8417 81.5322 53.6387 81.4015 53.522C81.2708 53.4007 81.0842 53.34 80.8415 53.34C80.3515 53.34 80.0692 53.6037 79.9945 54.131H81.5905ZM83.0971 52.787H83.8531V53.417C83.9278 53.2023 84.0491 53.0297 84.2171 52.899C84.3851 52.7683 84.5764 52.703 84.7911 52.703C84.9404 52.703 85.0431 52.717 85.0991 52.745L84.9941 53.508C84.9521 53.48 84.8611 53.466 84.7211 53.466C84.5018 53.466 84.3011 53.536 84.1191 53.676C83.9418 53.816 83.8531 54.04 83.8531 54.348V56H83.0971V52.787Z" fill="white"/>
<path d="M10.284 48.2029C9.80671 46.1217 9.35801 44.031 8.81625 41.9666C8.72556 41.6182 8.26494 41.2506 7.89501 41.1146C6.94036 40.7399 5.90693 40.5513 4.95705 40.1599C2.11456 39.0072 0.508353 36.8711 0 33.6802C3.60859 33.7828 6.56327 34.7661 8.22915 38.3485V31.2387C3.99764 29.8067 0.909332 27.4845 0.918878 22.4296C4.59191 23.2052 7.42962 24.7828 8.31745 28.6754C8.66351 26.4893 9.03343 24.3055 9.31744 22.1122C9.3604 21.7756 9.02627 21.2864 8.72794 21.0334C7.73749 20.1885 6.60144 19.5036 5.66826 18.6038C3.70167 16.6945 3.31026 14.3079 3.78759 11.6277C7.23867 12.9761 9.6802 15.0573 9.91171 19.0263C10.6468 16.8353 11.401 14.6491 12.0883 12.4415C12.1551 12.2291 11.8496 11.8472 11.6325 11.6134C10.8377 10.7327 9.92366 9.9427 9.21244 9.00713C7.54179 6.80665 7.32938 4.37945 8.34131 1.82336C11.4726 2.84484 13.0478 5.83768 12.8139 10.4701L13.5299 9.41288L13.6611 9.45582C13.3429 10.2768 13.0247 11.097 12.7064 11.9165L12.8878 12.241C15.1909 8.35559 18.5513 7.81144 22.463 8.81383C20.8855 12.5847 17.8807 13.9045 12.1718 13.2983C11.7971 14.5298 11.3843 15.7923 11.0334 17.0716C10.6792 18.3601 10.4026 19.6688 10.2053 20.9905C12.0263 17.1551 15.1528 15.9785 19.2268 16.3818C18.7041 18.4176 17.7948 20.1838 15.9093 21.0716C14.3695 21.7761 12.7375 22.2582 11.0621 22.5036C10.0311 22.6659 9.64678 22.9212 9.57279 23.9594C9.41289 26.1503 9.12651 28.3317 9.0573 30.5871C9.84966 28.5251 10.7494 26.5585 12.8759 25.6468C14.2291 25.0668 15.6826 24.7184 17.1719 24.2434C17.2936 27.3604 15.6277 30.969 8.80191 32.5322L9.35802 40.5107L9.77807 40.7494C9.92604 36.1122 12.7256 33.957 16.7781 32.79C16.9523 35.0191 16.7781 37.1432 15.1671 38.6754C13.8139 39.9618 12.1098 40.8759 10.5967 42.0024C10.2936 42.2267 9.90454 42.7184 9.96898 42.9928C10.4864 45.212 11.1165 47.4034 11.8568 49.5585C11.7184 45.2792 14.2148 42.938 17.7327 41.1862C18.4821 43.463 18.3747 45.6659 17.0454 47.568C16.0645 48.969 14.7208 50.136 13.432 51.2888C12.8807 51.7804 12.5919 52.0812 12.9547 52.8258C13.8544 54.6659 14.6754 56.5442 15.7255 58.4248C14.8855 54.1886 17.0979 51.5561 20.1981 49.2339C22.3986 54.0668 20.4368 57.6444 16.9475 60.9093L20.5275 66.2411L20.315 66.5322C19.7184 66.105 18.9738 65.7876 18.5585 65.2291C17.6521 63.9753 16.8254 62.6656 16.0835 61.3079C15.6683 60.5633 15.2029 60.3938 14.3676 60.4964C13.0727 60.669 11.7635 60.7082 10.4606 60.6134C7.57281 60.3747 5.58237 58.7256 4.1122 56.0788C7.76375 55.0096 11.1575 54.7088 14.043 57.7995C13.1981 55.7303 12.3723 53.6492 11.4797 51.5943C11.3604 51.3222 10.8162 51.1719 10.4439 51.0931C8.82101 50.759 7.13604 50.642 5.57518 50.1384C3.18854 49.3532 1.91408 47.4057 1.04057 45.0358C4.6611 44.6134 7.95707 44.8592 10.284 48.2029Z" fill="url(#paint0_linear_276_91)"/>
<path d="M14.4437 7.56088C14.2647 3.19572 15.4413 1.31504 19.1263 0C19.4317 3.71361 17.9091 6.21243 14.4437 7.56088Z" fill="url(#paint1_linear_276_91)"/>
<path d="M125.626 20.0797C125.793 16.1357 128.187 13.9741 131.737 12.5902C132.138 14.7805 132.088 16.8849 130.627 18.5813C129.535 19.8507 128.094 20.817 126.846 21.9575C126.547 22.2318 126.18 22.6995 126.221 23.0311C126.49 25.231 126.86 27.4189 127.282 29.7118C128.094 25.7559 130.926 24.1907 134.576 23.3938C134.624 26.2283 133.715 28.5379 131.42 30.1365C130.391 30.8523 129.172 31.2913 128.079 31.9284C127.752 32.1216 127.363 32.5559 127.363 32.8827C127.297 34.9394 127.33 37.0009 127.33 39.1769C128.955 35.7363 131.909 34.7151 135.542 34.6436C135.065 37.3588 133.872 39.4155 131.529 40.6514C130.732 41.0737 129.859 41.5103 128.993 41.6225C127.208 41.8611 126.478 42.7987 126.268 44.5262C126.08 46.0723 125.6 47.585 125.314 49.2026C127.576 45.817 130.871 45.5665 134.421 45.9721C133.593 49.2074 131.04 51.3238 127.378 51.8487C126.901 51.9179 126.409 52.0873 125.96 51.9918C124.422 51.7103 123.944 52.5883 123.52 53.8433C122.966 55.4777 122.195 57.0405 121.556 58.7584C124.4 55.6829 127.776 55.9573 131.424 56.9975C129.9 59.8607 127.662 61.4569 124.505 61.6024C123.358 61.6402 122.21 61.5763 121.074 61.4115C120.337 61.3137 119.912 61.4688 119.533 62.1273C118.763 63.5146 117.914 64.8569 116.992 66.1476C116.572 66.7179 115.837 67.0543 115.243 67.4981L115.004 67.2023L118.583 61.8458C115.176 58.6272 113.095 55.0506 115.333 50.1546C118.376 52.4452 120.604 55.0244 119.65 59.2213L119.96 59.2642C120.587 57.9949 121.243 56.7399 121.835 55.4467C122.949 53.0202 122.933 53.013 120.921 51.3595C117.805 48.7994 116.708 45.5879 117.82 42.1307C121.258 43.8176 123.749 46.1081 123.51 50.3551L123.835 50.3813C124.491 48.0454 125.149 45.7096 125.824 43.3069C121.511 41.5056 118.309 39.0122 118.714 33.7059C122.673 34.8297 125.529 36.8625 125.734 41.4483L126.154 41.329C126.357 38.7188 126.557 36.1085 126.765 33.4363C123.954 32.7897 121.344 31.9689 119.726 29.6187C118.927 28.452 118.533 26.9942 117.925 25.6104C121.468 25.0234 124.386 27.1517 126.598 31.4178C126.34 28.8218 126.082 26.2283 125.824 23.6109C121.313 23.3986 117.645 22.1794 116.281 17.3478C120.296 16.9327 123.439 18.0159 125.383 21.8239C125.211 21.0222 125.054 20.2157 124.861 19.4188C124.643 18.5336 124.412 17.6508 124.145 16.7776C123.906 15.9425 123.617 15.1217 123.336 14.2485C119.02 14.8306 115.193 14.3415 113 9.7915C114.909 9.27613 116.834 8.94448 118.531 9.72707C120.122 10.4596 121.453 11.7647 122.496 12.5258C122.606 11.0608 122.513 9.03037 122.961 7.12877C123.458 5.02436 125.276 3.82184 127.082 2.59546C127.922 4.75952 128.16 6.84724 126.989 8.75839C126.132 10.1542 124.882 11.3018 123.866 12.6045C123.627 12.9028 123.448 13.4349 123.548 13.7665C124.207 15.8709 124.932 17.9658 125.626 20.0797Z" fill="url(#paint2_linear_276_91)"/>
<path d="M121.11 8.54599C117.584 7.11442 116.303 5.03864 116.338 0.96582C119.76 1.88203 121.094 3.97451 121.11 8.54599Z" fill="url(#paint3_linear_276_91)"/>
<defs>
<linearGradient id="paint0_linear_276_91" x1="11.2315" y1="1.82336" x2="11.2315" y2="66.5322" gradientUnits="userSpaceOnUse">
<stop stop-color="#E0E1E2"/>
<stop offset="1" stop-color="#B17B3B"/>
</linearGradient>
<linearGradient id="paint1_linear_276_91" x1="16.7954" y1="0" x2="16.7954" y2="7.56088" gradientUnits="userSpaceOnUse">
<stop stop-color="#E0E1E2"/>
<stop offset="1" stop-color="#B17B3B"/>
</linearGradient>
<linearGradient id="paint2_linear_276_91" x1="124.271" y1="2.59546" x2="124.271" y2="67.4981" gradientUnits="userSpaceOnUse">
<stop stop-color="#E0E1E2"/>
<stop offset="1" stop-color="#B17B3B"/>
</linearGradient>
<linearGradient id="paint3_linear_276_91" x1="118.724" y1="0.96582" x2="118.724" y2="8.54599" gradientUnits="userSpaceOnUse">
<stop stop-color="#E0E1E2"/>
<stop offset="1" stop-color="#B17B3B"/>
</linearGradient>
</defs>
</svg>
