<svg width="50" height="37" viewBox="0 0 50 37" fill="none" xmlns="http://www.w3.org/2000/svg">
<path d="M39.6908 4.87202C36.9232 3.59108 33.9641 2.66015 30.8703 2.13007C30.4904 2.80961 30.0465 3.72362 29.7404 4.4507C26.4517 3.96144 23.1932 3.96144 19.965 4.4507C19.659 3.72362 19.205 2.80961 18.8217 2.13007C15.7246 2.66015 12.762 3.5945 9.99444 4.8788C4.41229 13.2235 2.89906 21.3609 3.65568 29.3827C7.35805 32.1178 10.9461 33.7793 14.4736 34.8666C15.3446 33.6808 16.1213 32.4202 16.7905 31.0918C15.516 30.6127 14.2954 30.0215 13.142 29.3352C13.448 29.1109 13.7473 28.8765 14.0365 28.6352C21.0713 31.8902 28.7148 31.8902 35.6656 28.6352C35.9582 28.8765 36.2574 29.1109 36.5601 29.3352C35.4033 30.0249 34.1793 30.6161 32.9048 31.0952C33.574 32.4202 34.3474 33.6842 35.2217 34.8699C38.7526 33.7827 42.344 32.1212 46.0464 29.3827C46.9341 20.0833 44.5298 12.0207 39.6908 4.87202ZM17.7489 24.4493C15.6371 24.4493 13.9053 22.4991 13.9053 20.1241C13.9053 17.7491 15.6001 15.7955 17.7489 15.7955C19.8977 15.7955 21.6295 17.7457 21.5925 20.1241C21.5959 22.4991 19.8977 24.4493 17.7489 24.4493ZM31.9531 24.4493C29.8414 24.4493 28.1095 22.4991 28.1095 20.1241C28.1095 17.7491 29.8043 15.7955 31.9531 15.7955C34.1019 15.7955 35.8337 17.7457 35.7968 20.1241C35.7968 22.4991 34.1019 24.4493 31.9531 24.4493Z" fill="#5865F2"/>
</svg>
