<svg width="125" height="40" viewBox="0 0 125 40" fill="none" xmlns="http://www.w3.org/2000/svg">
<g clip-path="url(#clip0_313_3033)">
<path d="M16.2171 0C16.9432 0.110533 17.6734 0.198468 18.3954 0.335626C20.8966 0.810836 23.108 1.90327 25.0637 3.51366C27.3051 5.33881 28.973 7.77134 29.8675 10.52C30.6016 12.7144 30.8175 15.0489 30.4984 17.3408C30.3241 18.6195 30.0393 19.8556 29.2478 20.898C28.0166 22.5189 26.3853 23.2587 24.3327 22.9957C22.9071 22.8109 21.8058 22.1034 20.9668 20.9569C20.9417 20.9239 20.9148 20.8924 20.8861 20.8625C20.1075 21.3563 19.3886 21.8984 18.5971 22.2994C15.5595 23.8396 11.5222 22.9142 9.38821 20.259C8.11345 18.6736 7.49382 16.8744 7.61323 14.8534C7.71652 13.098 8.41662 11.4307 9.59744 10.1278C10.7783 8.82488 12.3689 7.96465 14.1056 7.68971C16.3583 7.34116 18.4043 7.87285 20.1753 9.30333C21.7607 10.5821 22.757 12.2449 22.9644 14.291C23.0806 15.4633 23.0265 16.6509 23.0588 17.8321C23.0806 18.6131 23.3388 19.2844 24.0552 19.6878C25.2557 20.3582 26.6523 19.7491 27.1162 18.3283C27.4995 17.156 27.5874 15.9337 27.5196 14.7098C27.4018 12.6161 26.8088 10.658 25.6825 8.88137C24.0552 6.31329 21.8002 4.50441 18.8779 3.66291C14.5663 2.42042 10.6485 3.28129 7.2534 6.22937C4.99433 8.19073 3.68971 10.7023 3.27501 13.6811C2.92453 16.0704 3.3157 18.5097 4.39568 20.6696C5.74064 23.3942 7.83914 25.3637 10.6388 26.5594C12.5331 27.3696 14.6051 27.6754 16.6527 27.4468C18.4584 27.2564 20.1397 26.6626 21.7042 25.7348C21.8026 25.6767 22.0325 25.6759 22.0931 25.7445C22.7264 26.4537 23.3371 27.1822 24.0334 27.9979C23.0919 28.4893 22.2213 29.0072 21.3016 29.4106C19.2456 30.3119 17.0086 30.7239 14.7664 30.6144C11.103 30.453 7.8959 29.1535 5.14521 26.7159C3.08382 24.8836 1.63962 22.6439 0.777136 20.0323C0.386238 18.8638 0.156358 17.6475 0.0937901 16.417C0.0833016 16.1919 0.0348835 15.9676 0.00341797 15.7433V14.8558C0.0348835 14.6315 0.0840895 14.408 0.094578 14.1829C0.195858 12.5236 0.58774 10.8949 1.25236 9.37108C2.15173 7.24013 3.52762 5.34371 5.27431 3.8275C7.22276 2.1332 9.4334 0.96979 11.9579 0.428421C12.7792 0.252536 13.6159 0.147637 14.4453 0.0104791L16.2171 0ZM15.3473 10.7088C12.7994 10.7088 10.7178 12.7613 10.7122 15.2793C10.7074 17.8321 12.7849 19.9403 15.311 19.9419C16.5372 19.9434 17.7141 19.4596 18.5845 18.596C19.455 17.7325 19.9483 16.5595 19.9566 15.3334C19.976 12.6839 17.7282 10.6386 15.3473 10.7088Z" fill="white"/>
<path d="M51.4594 22.5236H48.5855V22.0258C48.5855 19.4854 48.5855 16.9448 48.5855 14.4039C48.5855 12.7152 47.3075 11.2468 45.723 11.1089C43.8738 10.9475 42.3513 12.077 42.0487 13.8439C42.007 14.15 41.9911 14.459 42.0012 14.7677C42.0012 17.214 41.9923 19.661 42.006 22.1097C42.006 22.455 41.9253 22.5817 41.5606 22.5688C40.7716 22.5405 39.9801 22.5599 39.166 22.5599V8.60211H41.9729C41.9882 8.86997 42.0036 9.14588 42.0197 9.43311C44.9775 7.49676 47.6408 7.87113 50.0757 10.3835C50.9802 9.3568 52.1952 8.65363 53.5361 8.38102C55.946 7.8808 58.5907 8.57709 59.9672 10.7934C60.5552 11.714 60.8756 12.78 60.8926 13.8722C60.9216 16.696 60.9039 19.5198 60.9039 22.3437C60.9039 22.3969 60.8934 22.4502 60.8821 22.5647H58.9224C58.0478 22.5647 58.0478 22.5647 58.0478 21.7047C58.0478 19.2713 58.0526 16.8388 58.0478 14.4055C58.0438 13.0976 57.4508 12.1004 56.3115 11.4872C55.1723 10.8741 54.0057 10.9281 52.9229 11.6486C51.9983 12.2682 51.4796 13.163 51.4707 14.2885C51.4513 16.8703 51.4618 19.4521 51.4602 22.0339L51.4594 22.5236Z" fill="white"/>
<path d="M75.1604 9.88575V8.5892H77.9842V22.5535H76.1108C75.1539 22.5535 75.1539 22.5535 75.1531 21.6151C75.1531 21.4699 75.1531 21.3239 75.1531 21.0956C73.5831 22.4994 71.8153 23.0924 69.7878 22.8512C67.7837 22.6091 66.1394 21.6942 64.8969 20.1209C63.8361 18.7793 63.2743 17.1107 63.3075 15.4007C63.3408 13.6906 63.9671 12.0452 65.0793 10.7458C67.1528 8.33183 71.6628 6.97398 75.1604 9.88575ZM70.6882 19.9652C73.3184 19.9652 75.1959 18.137 75.2064 15.5625C75.2161 13.071 73.3354 11.217 70.8448 11.1678C68.1904 11.1161 66.3444 13.1921 66.3605 15.5116C66.3774 18.0724 68.196 19.9628 70.6882 19.9652V19.9652Z" fill="white"/>
<path d="M123.329 22.5518C122.451 22.5518 121.581 22.559 120.712 22.5381C120.637 22.5381 120.512 22.3517 120.505 22.2452C120.478 21.8886 120.494 21.5295 120.494 21.1616C119.962 21.536 119.49 21.9273 118.965 22.2274C116.719 23.5102 113.408 22.9455 111.752 20.997C110.894 19.9869 110.503 18.7614 110.482 17.4656C110.436 14.5611 110.465 11.6566 110.465 8.75209C110.47 8.69562 110.479 8.63954 110.491 8.58427H113.32V9.074C113.32 11.534 113.325 13.9955 113.32 16.4531C113.32 17.5649 113.613 18.5548 114.486 19.2915C116.341 20.8583 119.422 19.9893 120.214 17.6609C120.384 17.1548 120.474 16.6254 120.481 16.0916C120.509 13.7519 120.493 11.4121 120.493 9.07239V8.58105H123.328L123.329 22.5518Z" fill="white"/>
<path d="M87.064 28.5471L87.1229 27.9428H88.8858C88.8982 28.023 88.9065 28.1038 88.9108 28.1849C88.9108 30.7513 88.9423 33.3186 88.8915 35.8842C88.8269 39.1187 86.4049 40.2579 83.9191 39.9497C82.6871 39.7973 81.6867 39.1736 80.8718 38.3087L82.0997 36.9371C82.7452 37.5422 83.4084 37.9739 84.2434 38.0666C85.853 38.2417 87.1528 37.5019 87.0535 35.4849C85.9305 36.2836 84.7275 36.5571 83.4027 36.1642C82.4387 35.8899 81.6031 35.2827 81.0444 34.4505C80.5039 33.6508 80.2477 32.6927 80.3167 31.7299C80.3858 30.7671 80.7761 29.8553 81.4252 29.1409C82.7153 27.729 85.0607 27.165 87.064 28.5471ZM84.6355 34.4651C86.0644 34.4739 87.1189 33.4501 87.1326 32.0398C87.1455 30.6682 86.0878 29.6193 84.6807 29.6C84.3587 29.5968 84.0392 29.6575 83.7408 29.7788C83.4424 29.9 83.171 30.0792 82.9424 30.3061C82.7138 30.5329 82.5325 30.8029 82.4091 31.1004C82.2856 31.3979 82.2224 31.7169 82.2232 32.039C82.2385 33.4194 83.2696 34.4562 84.6347 34.4651H84.6355Z" fill="white"/>
<path d="M102.632 8.58749V10.2681L102.692 10.3738C104.216 8.39144 106.341 8.50761 108.483 8.59072V11.2992C108.321 11.3121 108.156 11.329 107.989 11.3387C107.173 11.3847 106.335 11.3258 105.546 11.4952C103.984 11.8301 102.884 13.2121 102.696 14.904C102.647 15.3442 102.621 15.7867 102.62 16.2296C102.612 18.3128 102.62 20.396 102.62 22.4977C102.543 22.5232 102.464 22.5407 102.383 22.5501C101.617 22.5542 100.85 22.5461 100.084 22.5574C99.8419 22.5574 99.733 22.4767 99.7612 22.2298C99.762 22.2164 99.762 22.2029 99.7612 22.1895C99.7612 17.7526 99.7612 13.3151 99.7612 8.87714C99.7666 8.7793 99.7771 8.6818 99.7927 8.58506L102.632 8.58749Z" fill="white"/>
<path d="M90.0852 22.5252H87.2437V2.86572H90.0852V22.5252Z" fill="white"/>
<path d="M117.667 35.4885V38.9376H115.866V27.9504H117.641C117.662 28.1312 117.684 28.3208 117.707 28.5209C120.012 26.9823 122.447 27.9706 123.53 29.3648C124.825 31.0308 124.766 33.2496 123.362 34.9059C121.99 36.5284 119.939 36.7552 117.667 35.4885ZM122.508 32.0394C122.508 30.6524 121.489 29.6125 120.114 29.6004C118.708 29.5874 117.613 30.6597 117.62 32.041C117.627 33.4222 118.669 34.4614 120.076 34.4614C121.483 34.4614 122.509 33.4537 122.511 32.0394H122.508Z" fill="white"/>
<path d="M81.187 8.58838H84.0351V22.5236H81.187V8.58838Z" fill="white"/>
<path d="M105.037 32.0583C105.038 33.1921 104.589 34.2798 103.788 35.0828C102.988 35.8857 101.901 36.3385 100.768 36.3417C98.4005 36.3732 96.4166 34.3626 96.4327 32.0164C96.4449 30.8765 96.9082 29.7879 97.7213 28.989C98.5345 28.1901 99.631 27.746 100.771 27.754C103.157 27.754 105.037 29.6476 105.037 32.0583ZM103.206 32.0511C103.206 30.6698 102.152 29.5847 100.792 29.5734C99.3937 29.5613 98.2521 30.6755 98.2617 32.043C98.2706 33.3726 99.401 34.5078 100.723 34.5151C101.048 34.5184 101.371 34.4571 101.672 34.3346C101.974 34.2122 102.248 34.0312 102.479 33.802C102.71 33.5728 102.893 33.3 103.018 32.9994C103.143 32.6988 103.207 32.3765 103.206 32.0511Z" fill="white"/>
<path d="M112.167 36.1073V35.4618C111.99 35.5869 111.866 35.6716 111.746 35.7604C110.092 36.977 106.644 36.4058 106.456 33.2705C106.352 31.5173 106.438 29.7521 106.438 27.9609H108.239C108.246 28.1037 108.258 28.2466 108.258 28.3886C108.258 29.7738 108.258 31.1583 108.258 32.5428C108.263 33.7183 108.984 34.5082 110.061 34.5397C111.138 34.5711 112.117 33.7329 112.153 32.6283C112.198 31.2568 112.161 29.89 112.16 28.5209C112.16 28.3474 112.16 28.1739 112.16 27.965H113.961V36.1065L112.167 36.1073Z" fill="white"/>
<path d="M90.7607 27.9494H92.5357C92.5494 28.2568 92.5632 28.565 92.5825 29.0104C93.5329 27.8631 94.7278 27.8808 95.9711 27.9486V29.7518C95.5919 29.7518 95.2184 29.7325 94.8464 29.7518C93.533 29.8325 92.6519 30.6877 92.5987 32.0109C92.5486 33.2655 92.5656 34.5233 92.5519 35.7795C92.5519 35.8844 92.5422 35.9901 92.5365 36.1143H90.7615L90.7607 27.9494Z" fill="white"/>
<path d="M95.0519 22.9027C94.7903 22.909 94.53 22.863 94.2863 22.7673C94.0427 22.6716 93.8207 22.5282 93.6333 22.3455C93.4459 22.1627 93.2969 21.9444 93.1951 21.7033C93.0933 21.4621 93.0408 21.2031 93.0405 20.9413C93.0405 19.9014 93.9353 18.9921 94.9817 18.9768C96.0281 18.9614 96.9528 19.8505 96.9673 20.8897C96.9834 21.9902 96.1242 22.8938 95.0519 22.9027Z" fill="white"/>
<path d="M84.5537 4.31955C84.5522 4.83543 84.3467 5.32979 83.9822 5.69481C83.6176 6.05982 83.1235 6.26586 82.6076 6.26798C81.5483 6.27282 80.6463 5.36275 80.6406 4.28244C80.6358 3.2239 81.5241 2.34608 82.6028 2.35011C83.7065 2.35011 84.5537 3.20534 84.5537 4.31955Z" fill="white"/>
</g>
<defs>
<clipPath id="clip0_313_3033">
<rect width="124.459" height="40" fill="white"/>
</clipPath>
</defs>
</svg>
