<svg width="66" height="66" viewBox="0 0 66 66" fill="none" xmlns="http://www.w3.org/2000/svg">
<g clip-path="url(#clip0_313_3082)">
<path d="M0 26.8246C0.383595 17.7561 4.33867 10.043 12.4034 4.61646C17.384 1.26573 22.9445 -0.329846 28.9228 0.0574327C38.0037 0.646096 45.2054 4.73574 50.3407 12.3156C52.3824 15.3286 53.6384 18.6886 54.4303 22.2299C54.6932 23.3979 55.4898 24.0889 56.5865 24.4359C61.3195 25.9462 64.427 29.0321 65.6164 33.9009C67.2482 40.5776 63.5035 46.8608 57.6429 49.0729C54.3452 50.3122 51.0352 50.193 47.8179 48.7957C46.4258 48.1931 45.2658 48.3511 44.1057 49.2465C41.4041 51.3196 38.3394 52.869 35.0696 53.8148C31.2534 54.9263 27.2387 55.1771 23.3142 54.5491C15.6748 53.364 9.63628 49.5392 5.10893 43.3288C3.11981 40.5913 1.69538 37.4842 0.918801 34.1891C0.32886 31.7782 0.020508 29.3068 0 26.8246V26.8246Z" fill="white"/>
<path d="M46.695 52.9857C50.5743 52.8215 53.2084 56.2172 53.2146 59.382C53.2216 61.097 52.5609 62.7472 51.3728 63.9822C50.1847 65.2173 48.5627 65.9399 46.8513 65.9967C45.9761 66.0294 45.1034 65.8851 44.2852 65.5725C43.467 65.2599 42.72 64.7853 42.089 64.1772C41.4579 63.569 40.9557 62.8398 40.6123 62.0329C40.269 61.2261 40.0915 60.3582 40.0904 59.4812C40.0749 56.0375 42.8715 52.8649 46.695 52.9857Z" fill="white"/>
<path d="M18.6476 23.9459C18.9647 24.1008 19.2199 24.203 19.4596 24.3378C20.9074 25.1495 21.7055 26.3811 21.7534 28.0557C21.8014 29.7303 21.1812 31.1214 19.6963 31.9656C17.9144 32.9788 16.0599 32.9757 14.2285 32.054C13.7645 31.8169 13.3499 31.473 13.2509 30.8921C13.2047 30.6872 13.2164 30.4734 13.2847 30.2747C13.353 30.0761 13.4752 29.9004 13.6376 29.7675C13.9612 29.4865 14.3699 29.3228 14.7977 29.3027C15.2973 29.2779 15.6747 29.549 15.8913 30.0773C16.1465 30.6969 16.6167 30.937 17.2663 30.7914C17.4851 30.741 17.691 30.645 17.8703 30.5097C18.0497 30.3744 18.1985 30.2028 18.3073 30.006C18.6506 29.4375 18.7002 28.8085 18.6367 28.1688C18.59 27.4371 18.2978 26.7428 17.8077 26.1983C17.6201 25.9916 17.3913 25.8268 17.136 25.7144C16.8807 25.6021 16.6047 25.5447 16.3259 25.5461C15.9949 25.5461 15.6623 25.5461 15.3313 25.5461C15.2003 25.5462 15.0696 25.5321 14.9416 25.5043C14.7412 25.47 14.5611 25.3614 14.4373 25.2C14.3134 25.0386 14.2549 24.8364 14.2734 24.6337C14.2904 23.9242 14.7266 23.4796 15.4303 23.4548C16.4156 23.4176 16.9508 22.8987 17.0173 21.9196C17.1008 20.6803 16.3785 19.9058 15.0684 19.867C14.6832 19.8547 14.295 19.867 13.9114 19.867C13.6021 19.867 13.4474 19.9987 13.4474 20.3163C13.4288 20.9174 13.4242 21.52 13.4242 22.1226C13.4242 24.093 13.4293 26.063 13.4396 28.0324C13.4396 28.6815 13.1968 29.0595 12.5905 29.2903C12.177 29.4742 11.711 29.5017 11.2788 29.3678C10.7081 29.1741 10.4189 28.8023 10.408 28.1997C10.3585 25.6829 10.3116 23.1651 10.2672 20.6463C10.2533 19.8717 10.2456 19.8717 9.49387 19.8717C9.32473 19.874 9.15594 19.8558 8.99117 19.8175C8.79312 19.7825 8.6161 19.6726 8.49664 19.5106C8.37717 19.3486 8.32441 19.1468 8.34929 18.9469C8.36321 18.2389 8.79166 17.7757 9.5078 17.7742C11.5665 17.7664 13.6283 17.7308 15.6855 17.8083C16.3452 17.8209 16.9944 17.9766 17.5882 18.2646C18.1821 18.5527 18.7065 18.9662 19.1255 19.4767C20.0195 20.5471 20.2407 22.4525 18.9306 23.7383C18.8403 23.8129 18.7459 23.8822 18.6476 23.9459V23.9459Z" fill="black"/>
<path d="M31.3741 26.3657C31.3741 24.6896 31.3741 23.0134 31.3741 21.3373C31.3741 20.3613 32.0314 19.7309 33.0043 19.7479C33.6617 19.7587 34.1164 20.2638 34.118 21.0275C34.118 22.1242 34.0994 23.221 34.0855 24.3178C34.0731 25.2596 34.0515 26.2031 34.0407 27.1449C34.0407 27.5183 34.234 27.6298 34.5603 27.4377C35.0507 27.1465 35.5332 26.8413 36.0282 26.5578C36.2154 26.4501 36.4141 26.3638 36.6206 26.3007C36.93 26.2015 37.2548 26.2015 37.5038 26.4556C37.6213 26.5804 37.7006 26.7363 37.7324 26.9049C37.7642 27.0734 37.7471 27.2476 37.6832 27.4067C37.5949 27.6734 37.4144 27.8996 37.1744 28.045C36.8248 28.2711 36.4737 28.4973 36.1257 28.725C35.691 29.0116 35.6044 29.3942 35.872 29.8373C36.3669 30.6537 37.23 31.0905 38.0684 30.9495C38.7582 30.8334 39.2826 30.3221 39.2702 29.625C39.2424 28.0124 40.4952 26.9126 41.8131 26.4989C42.4479 26.3009 43.1141 26.2231 43.7775 26.2697C43.9468 26.2813 44.1138 26.3157 44.274 26.3719C44.6344 26.4974 44.8153 26.8041 44.806 27.2301C44.813 27.3988 44.7585 27.5643 44.6526 27.6957C44.5468 27.8271 44.3968 27.9155 44.2307 27.9443C43.982 27.995 43.7295 28.024 43.4758 28.031C43.2138 28.0396 42.9588 28.1181 42.7372 28.2585C42.5155 28.3988 42.3354 28.5958 42.2152 28.8292C42.0951 29.0626 42.0393 29.3239 42.0537 29.5861C42.0681 29.8482 42.1522 30.1018 42.2972 30.3206C42.3972 30.482 42.5294 30.6209 42.6855 30.7288C42.8416 30.8366 43.0182 30.911 43.2043 30.9474C43.3905 30.9837 43.5821 30.9813 43.7672 30.9401C43.9523 30.8988 44.1269 30.8198 44.2802 30.7079C44.4892 30.5605 44.6636 30.3692 44.7913 30.1475C44.919 29.9257 44.9969 29.6787 45.0195 29.4237C45.0398 29.24 45.0718 29.0579 45.1154 28.8784C45.335 28.0434 46.1285 27.887 46.6621 28.0279C47.0566 28.1333 47.3303 28.5515 47.3613 29.0503C47.3719 29.3811 47.4045 29.7107 47.4587 30.0371C47.5763 30.6289 47.8872 30.8922 48.4858 30.9666C48.5848 30.979 48.6853 30.9805 48.7843 30.9929C48.9423 31.0121 49.0912 31.0772 49.2127 31.1801C49.3342 31.2831 49.4229 31.4194 49.468 31.5723C49.5147 31.7181 49.511 31.8754 49.4573 32.0188C49.4037 32.1621 49.3034 32.2832 49.1725 32.3624C48.9383 32.5133 48.6747 32.6126 48.3992 32.6536C47.584 32.7558 46.8122 32.6334 46.1796 32.0448C46.0249 31.9023 45.8857 31.9286 45.7155 32.0246C44.6303 32.675 43.3343 32.8751 42.1039 32.5823C41.5312 32.4487 40.9914 32.2006 40.5169 31.8527C40.4384 31.7806 40.3354 31.7414 40.2289 31.7431C40.1224 31.7449 40.0207 31.7874 39.9446 31.862C39.1329 32.4537 38.1427 32.7478 37.1401 32.6951C36.1375 32.6423 35.1835 32.2459 34.4381 31.5723C34.3917 31.532 34.3484 31.4871 34.2989 31.4499C34.2671 31.4182 34.2274 31.3955 34.1839 31.3841C34.1405 31.3727 34.0948 31.373 34.0515 31.3849C34.0081 31.3969 33.9687 31.4201 33.9372 31.4521C33.9057 31.4842 33.8832 31.5241 33.872 31.5676C33.8133 31.7102 33.7792 31.8635 33.7174 31.9999C33.5936 32.2562 33.3856 32.4621 33.1281 32.5828C32.8706 32.7036 32.5795 32.7318 32.3037 32.6629C32.0302 32.6009 31.7872 32.4444 31.6175 32.2209C31.4478 31.9974 31.3621 31.7211 31.3756 31.4406C31.3756 31.4251 31.3756 31.4097 31.3756 31.3942C31.3735 29.718 31.373 28.0418 31.3741 26.3657Z" fill="black"/>
<path d="M25.3155 28.4664C25.2946 28.8979 25.2977 29.3303 25.3248 29.7615C25.4222 30.6274 26.1956 31.1154 26.9365 30.8025C27.416 30.6011 27.6295 30.1828 27.6619 29.7026C27.6991 29.134 27.6743 28.5609 27.6836 27.9893C27.6803 27.7964 27.6974 27.6038 27.7346 27.4145C27.8396 27.0185 28.0969 26.6803 28.4503 26.4739C28.8036 26.2675 29.2243 26.2097 29.6201 26.3131C29.8227 26.3608 30.005 26.4712 30.1414 26.6286C30.2777 26.786 30.361 26.9824 30.3796 27.1899C30.4894 28.2418 30.5652 29.3076 30.2079 30.3315C29.7593 31.6157 28.7802 32.3221 27.4995 32.6041C26.3841 32.8793 25.2052 32.7028 24.2189 32.113C23.7604 31.8513 23.3724 31.4816 23.0886 31.036C22.8048 30.5904 22.6337 30.0822 22.5901 29.5554C22.5265 28.8951 22.5223 28.2305 22.5777 27.5694C22.6443 26.657 23.6605 26.0358 24.5282 26.3301C24.7462 26.4136 24.9341 26.5608 25.0675 26.7524C25.201 26.9441 25.2739 27.1716 25.2768 27.4053C25.2907 27.76 25.2768 28.1147 25.2768 28.471L25.3155 28.4664Z" fill="black"/>
<path d="M50.3652 36.3945C50.922 36.0739 51.0829 36.0754 51.3798 36.3729C51.5448 36.2896 51.7166 36.2207 51.8934 36.1668C51.955 36.1464 52.0204 36.1405 52.0847 36.1498C52.1489 36.159 52.2101 36.183 52.2635 36.2199C52.3169 36.2569 52.361 36.3057 52.3923 36.3626C52.4236 36.4196 52.4413 36.483 52.444 36.5479C52.478 37.0638 52.4765 37.5812 52.4703 38.097C52.4703 38.3093 52.277 38.2178 52.161 38.2302C52.0449 38.2426 51.932 38.2535 51.9305 38.0862C51.9305 38.001 51.9305 37.9158 51.9305 37.8306C51.9305 36.6176 51.9088 36.5634 51.7573 36.6223C51.1138 36.8748 51.5948 37.4417 51.4479 37.8399C51.4339 37.9005 51.4339 37.9635 51.4479 38.0242C51.4742 38.2643 51.3087 38.2287 51.1618 38.2349C51.0148 38.2411 50.8942 38.2256 50.9019 38.018C50.9158 37.6478 50.9019 37.276 50.9019 36.9057C50.9019 36.7787 50.9266 36.6238 50.7271 36.613C50.6852 36.6111 50.6434 36.6182 50.6044 36.6337C50.5654 36.6492 50.5301 36.6728 50.5009 36.7029C50.4716 36.7331 50.4491 36.7691 50.4348 36.8086C50.4205 36.8481 50.4147 36.8902 50.4178 36.9321C50.4178 37.2946 50.4054 37.6586 50.4178 38.0165C50.4286 38.255 50.2817 38.2256 50.1332 38.2302C49.9847 38.2349 49.8656 38.2303 49.8733 38.0134C49.8872 37.6199 49.8733 37.2264 49.8733 36.8314C49.8787 36.7236 49.8683 36.6155 49.8424 36.5107C49.7805 36.3233 49.8547 36.2613 50.0264 36.2009C50.1981 36.1405 50.3296 36.1684 50.3652 36.3945Z" fill="black"/>
<path d="M51.1726 39.8431C51.2436 39.78 51.3352 39.7452 51.4301 39.7452C51.525 39.7452 51.6166 39.78 51.6876 39.8431C51.7092 39.8805 51.7174 39.9242 51.7108 39.967C51.6861 40.3651 51.649 40.7617 51.6335 41.1598C51.6242 41.4061 51.649 41.654 51.649 41.9003C51.649 42.3356 51.4309 42.585 50.9978 42.6144C50.7831 42.6229 50.5683 42.6025 50.359 42.554C49.9723 42.4735 49.9491 42.3991 50.1672 42.032C50.3219 42.0754 50.4765 42.1327 50.6312 42.1621C51.0566 42.238 51.1788 42.1094 51.1107 41.6587C51.0612 41.6726 51.0117 41.685 50.956 41.7004C50.4703 41.8631 50.0821 41.6525 49.9955 41.1443C49.9553 40.9007 49.9553 40.6521 49.9955 40.4085C50.0976 39.778 50.5941 39.5503 51.1726 39.8431ZM51.12 40.7524C51.1146 40.6528 51.1146 40.553 51.12 40.4534C51.137 40.283 51.0581 40.1606 50.9019 40.1684C50.7859 40.1684 50.5925 40.2582 50.5755 40.3326C50.5335 40.6007 50.5278 40.8732 50.5585 41.1428C50.5755 41.2977 50.7302 41.3457 50.8864 41.3101C51.0426 41.2745 51.1401 41.2079 51.12 41.0282C51.1146 40.9363 51.1146 40.8442 51.12 40.7524V40.7524Z" fill="black"/>
<path d="M43.7901 36.2335H44.2727C44.3036 36.5805 44.3036 36.5805 43.7932 36.6456C43.7932 36.9833 43.7855 37.3287 43.7932 37.6711C43.7932 37.7176 43.8999 37.7872 43.9633 37.795C44.0467 37.7929 44.129 37.7756 44.2062 37.7439C44.4351 38.0893 44.3763 38.2303 43.9897 38.283C43.4638 38.3527 43.2549 38.1776 43.2472 37.6478C43.2472 37.3179 43.2472 36.9879 43.2472 36.675C43.125 36.5634 42.8667 36.7308 42.8853 36.4287C42.8141 36.6006 42.7306 36.6905 42.5326 36.6688C42.3779 36.6517 42.2511 36.7664 42.2542 36.9631C42.2542 37.3039 42.2434 37.6432 42.2542 37.9824C42.265 38.1947 42.183 38.2442 41.9881 38.2396C41.7933 38.235 41.6989 38.2163 41.7097 37.9917C41.7268 37.6215 41.7097 37.2513 41.7097 36.881C41.7123 36.7652 41.6967 36.6496 41.6633 36.5387C41.6092 36.3838 41.62 36.3001 41.7886 36.2382C42.0469 36.1437 42.0438 36.1344 42.1939 36.4256C42.4568 35.9794 42.8559 36.2598 43.241 36.2258C43.241 36.0894 43.241 35.9624 43.241 35.8354C43.241 35.6572 43.3756 35.5906 43.6555 35.603C43.8226 35.6123 43.77 35.7378 43.7746 35.8261C43.7948 35.9484 43.7901 36.0708 43.7901 36.2335Z" fill="black"/>
<path d="M34.6084 39.8507C34.7153 39.7958 34.8271 39.7512 34.9424 39.7175C35.0252 39.6933 35.1121 39.6872 35.1974 39.6997C35.2827 39.7122 35.3643 39.7429 35.4366 39.7898C35.509 39.8367 35.5704 39.8986 35.6167 39.9714C35.663 40.0442 35.6931 40.1261 35.705 40.2116C35.7717 40.5422 35.7806 40.8818 35.7313 41.2154C35.6509 41.7142 35.292 41.9141 34.794 41.8103L34.6393 41.7839V42.2037C34.6393 42.5337 34.6393 42.5337 34.3068 42.5941C34.2557 42.6034 34.2016 42.6065 34.1165 42.6143C34.1165 42.5229 34.0979 42.4439 34.0979 42.3633C34.0979 41.7437 34.0979 41.1132 34.0979 40.4874C34.101 40.3564 34.0949 40.2255 34.0794 40.0954C34.0469 39.86 34.1861 39.688 34.4197 39.7175C34.4893 39.7267 34.548 39.8057 34.6084 39.8507ZM35.2704 40.7693C35.2472 40.6392 35.2302 40.4858 35.1915 40.3371C35.1846 40.3026 35.1706 40.2699 35.1503 40.2411C35.13 40.2123 35.104 40.1882 35.0738 40.1701C35.0437 40.152 35.0101 40.1404 34.9752 40.1361C34.9403 40.1318 34.9049 40.1348 34.8713 40.145C34.8385 40.1469 34.8064 40.1555 34.7769 40.1701C34.7475 40.1848 34.7213 40.2052 34.6999 40.2302C34.6786 40.2552 34.6624 40.2843 34.6525 40.3157C34.6427 40.3471 34.6392 40.3802 34.6424 40.413C34.6424 40.6454 34.6424 40.8777 34.6424 41.1086C34.6424 41.2542 34.6424 41.3905 34.8357 41.4075C35.0291 41.4246 35.1729 41.3657 35.2162 41.1596C35.241 41.0404 35.2503 40.9165 35.2704 40.7693Z" fill="black"/>
<path d="M38.9238 38.8902V39.8305L39.1202 39.7515C39.1998 39.7156 39.286 39.6966 39.3732 39.6957C39.4605 39.6947 39.5471 39.7119 39.6274 39.7461C39.7078 39.7803 39.7802 39.8307 39.8401 39.8943C39.9 39.9579 39.9461 40.0332 39.9756 40.1155C40.1323 40.5246 40.1206 40.9792 39.9431 41.3796C39.9056 41.4793 39.8462 41.5692 39.7693 41.6428C39.6924 41.7164 39.5999 41.7718 39.4988 41.8048C39.3977 41.8378 39.2905 41.8476 39.1851 41.8336C39.0796 41.8195 38.9787 41.7819 38.8897 41.7235C38.7165 41.863 38.6299 41.8629 38.3901 41.7468C38.3901 40.9211 38.3901 40.1217 38.3901 39.3224C38.3948 38.9088 38.4659 38.8468 38.9238 38.8902ZM38.9238 40.7801C38.9137 40.8956 38.9137 41.0117 38.9238 41.1271C38.9392 41.2185 39.0011 41.3827 39.0336 41.3796C39.1642 41.3804 39.2915 41.3379 39.3955 41.2588C39.5595 41.0915 39.5796 40.4718 39.428 40.2875C39.3846 40.2447 39.3327 40.2115 39.2757 40.1902C39.2187 40.1688 39.1578 40.1598 39.097 40.1636C39.0305 40.1636 38.9501 40.3185 38.9253 40.4099C38.9126 40.5331 38.9147 40.6574 38.9315 40.7801H38.9238Z" fill="black"/>
<path d="M45.114 39.8337C45.3012 39.7778 45.4926 39.7368 45.6863 39.7113C45.7409 39.7021 45.7968 39.7044 45.8504 39.718C45.9041 39.7316 45.9543 39.7562 45.998 39.7903C46.0416 39.8244 46.0777 39.8672 46.1039 39.916C46.1301 39.9648 46.146 40.0185 46.1503 40.0738C46.1905 40.6036 46.1998 41.1353 46.1782 41.6663C46.1689 41.8754 45.9369 41.753 45.8085 41.7639C45.7621 41.7639 45.6538 41.6616 45.6538 41.609C45.6384 41.2991 45.6538 40.9769 45.6538 40.6593C45.6538 40.5757 45.6538 40.4905 45.6538 40.4053C45.6538 40.2674 45.5935 40.145 45.4388 40.1636C45.2842 40.1822 45.1295 40.2256 45.1295 40.4378C45.1295 40.8174 45.1187 41.1954 45.1295 41.5733C45.1295 41.7918 45.0119 41.784 44.8634 41.7824C44.7149 41.7809 44.5726 41.8073 44.5757 41.5718C44.585 40.7616 44.5757 39.9499 44.5757 39.1397C44.5757 39.0111 44.616 38.9336 44.7521 38.9197C44.8634 38.9057 44.9748 38.8841 45.114 38.8608V39.8337Z" fill="black"/>
<path d="M34.7897 35.9222V36.5573C34.966 36.5573 35.1331 36.5682 35.2986 36.5573C35.4641 36.5465 35.5414 36.6131 35.5414 36.7944C35.5414 36.9756 35.4595 37.036 35.2893 37.0252C35.1192 37.0143 34.9691 37.0252 34.7928 37.0252V37.7688C35.0295 37.7688 35.2568 37.7688 35.4842 37.7688C35.6512 37.761 35.6977 37.8369 35.6946 37.9903C35.6915 38.1436 35.6822 38.2475 35.4888 38.2428C35.1269 38.2351 34.765 38.2428 34.4061 38.2428C34.2514 38.2428 34.205 38.1715 34.2066 38.0306C34.2066 37.2415 34.2066 36.4541 34.2066 35.6682C34.2066 35.5009 34.2855 35.4575 34.4355 35.4606C34.7897 35.4606 35.1439 35.4606 35.4981 35.4606C35.5781 35.4759 35.6515 35.5154 35.7085 35.5737C35.6636 35.7038 35.724 35.916 35.4904 35.9207C35.2568 35.9253 35.0403 35.9222 34.7897 35.9222Z" fill="black"/>
<path d="M55.5251 36.3437C55.6576 36.2751 55.7958 36.2181 55.9381 36.1732C56.0125 36.1478 56.0918 36.1404 56.1696 36.1515C56.2474 36.1627 56.3215 36.1921 56.3858 36.2375C56.45 36.2828 56.5027 36.3427 56.5394 36.4123C56.5761 36.4819 56.5959 36.5593 56.597 36.638C56.628 37.1213 56.6187 37.6093 56.6078 38.0942C56.6078 38.3281 56.4037 38.215 56.2861 38.2351C56.1686 38.2553 56.0757 38.2351 56.0773 38.0693C56.0773 37.6836 56.0866 37.2948 56.0773 36.9122C56.0773 36.8177 56.0185 36.6721 55.9505 36.6457C55.8964 36.6339 55.8404 36.633 55.786 36.6431C55.7315 36.6533 55.6797 36.6741 55.6334 36.7046C55.6025 36.7352 55.5784 36.772 55.5627 36.8126C55.547 36.8532 55.54 36.8966 55.5421 36.94C55.5328 37.3025 55.5282 37.6666 55.5421 38.0244C55.5421 38.2599 55.4014 38.2305 55.2529 38.2351C55.1044 38.2398 54.9853 38.2351 54.9915 38.0198C55.0039 37.6108 54.9915 37.2018 54.9915 36.7929C54.992 36.7158 54.9879 36.6387 54.9791 36.5621C54.9373 36.2863 54.9992 36.1903 55.2792 36.1794C55.341 36.1779 55.4215 36.277 55.5251 36.3437Z" fill="black"/>
<path d="M40.1766 37.3813C40.1766 37.719 40.305 37.846 40.5788 37.846C40.6851 37.8469 40.7904 37.8258 40.8881 37.7841C41.0428 37.7128 41.1294 37.7206 41.1975 37.9018C41.2655 38.083 41.1743 38.1559 41.0335 38.2116C40.7454 38.3299 40.424 38.3381 40.1302 38.2348C39.7281 38.0877 39.5285 37.6028 39.626 37.0389C39.7234 36.4751 40.0204 36.1761 40.4767 36.1621C40.8788 36.1497 41.1511 36.3728 41.2609 36.8019C41.3955 37.3302 41.3522 37.3875 40.8216 37.3875L40.1766 37.3813ZM40.1766 36.9584H40.7273C40.7273 36.6811 40.6654 36.5819 40.4922 36.568C40.3189 36.5541 40.2122 36.664 40.1797 36.9568L40.1766 36.9584Z" fill="black"/>
<path d="M48.2882 36.3603C48.3299 36.334 48.3856 36.2937 48.4428 36.2596C48.9301 35.9916 49.3554 36.2302 49.3709 36.7832C49.3709 37.1937 49.3709 37.6027 49.3709 38.0117C49.3709 38.2332 49.258 38.2378 49.094 38.2378C48.9301 38.2378 48.8125 38.2301 48.8203 38.0101C48.8342 37.6399 48.8203 37.2681 48.8203 36.8978C48.8203 36.7429 48.794 36.6144 48.5991 36.6128C48.558 36.6113 48.5171 36.6183 48.4789 36.6333C48.4407 36.6483 48.406 36.6711 48.3769 36.7002C48.3479 36.7293 48.3252 36.764 48.3102 36.8023C48.2952 36.8406 48.2882 36.8815 48.2897 36.9226C48.2897 37.2929 48.2789 37.6646 48.2897 38.0349C48.2897 38.258 48.1567 38.2332 48.0175 38.2347C47.8783 38.2363 47.7391 38.2533 47.7468 38.0318C47.7592 37.6461 47.7468 37.2572 47.7468 36.8731C47.7486 36.773 47.7419 36.673 47.7267 36.5741C47.6803 36.2906 47.7545 36.1775 48.036 36.1791C48.118 36.1791 48.1938 36.2875 48.2882 36.3603Z" fill="black"/>
<path d="M53.4343 37.3813C53.4157 37.8367 53.589 37.8956 54.3484 37.7329C54.5696 38.0428 54.5402 38.1652 54.1752 38.238C53.949 38.2674 53.7205 38.2737 53.4931 38.2565C53.4311 38.2515 53.3715 38.2307 53.3198 38.1961C52.8728 37.9374 52.8403 37.513 52.8821 37.0668C52.9239 36.6207 53.176 36.2783 53.5426 36.1838C54.0391 36.0568 54.418 36.314 54.5294 36.8531C54.6346 37.3612 54.6191 37.3813 54.1164 37.3813H53.4343ZM53.425 36.9553H54.0019C53.9787 36.7647 53.9741 36.5882 53.7421 36.5696C53.5534 36.5525 53.4575 36.6641 53.425 36.9537V36.9553Z" fill="black"/>
<path d="M48.4273 39.9296C48.5278 39.8707 48.6052 39.8196 48.6871 39.7747C49.1388 39.5593 49.5208 39.7747 49.5564 40.2704C49.5734 40.5074 49.5564 40.7475 49.5564 40.9876V41.474C49.558 41.5292 49.5449 41.5838 49.5184 41.6321C49.4919 41.6805 49.453 41.7209 49.4057 41.7492C49.3584 41.7775 49.3044 41.7926 49.2493 41.7929C49.1942 41.7933 49.1401 41.7789 49.0924 41.7513C49.0444 41.7235 49.0212 41.6212 49.0197 41.5531C49.0197 41.1906 49.0197 40.8281 49.0197 40.4687C49.0197 40.3138 49.0073 40.1588 48.8047 40.1511C48.7606 40.1483 48.7165 40.155 48.6753 40.1708C48.634 40.1865 48.5966 40.2109 48.5656 40.2423C48.5345 40.2737 48.5105 40.3114 48.4952 40.3528C48.4799 40.3943 48.4736 40.4385 48.4768 40.4826C48.4768 40.8451 48.4644 41.2092 48.4768 41.567C48.4861 41.7932 48.353 41.773 48.2107 41.7699C48.0684 41.7669 47.9292 41.804 47.9369 41.5748C47.9509 41.2123 47.9369 40.8482 47.9369 40.4904C47.9466 40.3673 47.9372 40.2434 47.9091 40.1232C47.8287 39.8878 47.9246 39.8026 48.138 39.7344C48.3515 39.6662 48.3824 39.7886 48.4273 39.9296Z" fill="black"/>
<path d="M36.7526 39.7051V40.5819C36.7526 40.7755 36.7526 40.9676 36.7526 41.1612C36.7495 41.1943 36.7543 41.2276 36.7663 41.2586C36.7784 41.2895 36.7975 41.3172 36.8221 41.3394C36.8468 41.3617 36.8762 41.3779 36.9082 41.3868C36.9401 41.3956 36.9737 41.3969 37.0062 41.3905C37.1609 41.3781 37.2986 41.3564 37.2924 41.1427C37.2816 40.8034 37.311 40.4626 37.2831 40.1249C37.2615 39.8646 37.3604 39.7577 37.6017 39.7423C37.6621 39.7423 37.7224 39.7268 37.809 39.7144C37.809 39.8104 37.8229 39.891 37.826 39.9731C37.8461 40.5184 37.8693 41.0575 37.8802 41.6105C37.8749 41.6445 37.8611 41.6766 37.84 41.7037C37.8188 41.7308 37.7912 41.7521 37.7595 41.7654C37.6415 41.7858 37.5213 41.79 37.4022 41.7778C37.3775 41.7778 37.3574 41.705 37.3481 41.688C37.1718 41.7533 36.9908 41.8051 36.8067 41.8429C36.7342 41.8574 36.6594 41.8554 36.5878 41.8368C36.5162 41.8182 36.4498 41.7836 36.3935 41.7356C36.3372 41.6875 36.2925 41.6274 36.2628 41.5596C36.2332 41.4917 36.2192 41.4181 36.222 41.3441C36.2097 40.8793 36.2127 40.4146 36.222 39.9499C36.2291 39.9129 36.2446 39.8782 36.2675 39.8483C36.2903 39.8185 36.3198 39.7943 36.3535 39.7779C36.484 39.7411 36.6176 39.7167 36.7526 39.7051V39.7051Z" fill="black"/>
<path d="M36.607 36.3589C36.7632 36.2817 36.9257 36.218 37.0926 36.1684C37.1677 36.1471 37.2468 36.1437 37.3234 36.1585C37.4001 36.1733 37.4722 36.2058 37.534 36.2536C37.5958 36.3013 37.6456 36.3629 37.6793 36.4334C37.7131 36.5039 37.7299 36.5813 37.7284 36.6595C37.7469 37.1242 37.7284 37.5998 37.7376 38.0707C37.7376 38.2752 37.5953 38.2349 37.4809 38.2256C37.3664 38.2163 37.1994 38.2798 37.2025 38.0598C37.2025 37.6973 37.2025 37.3359 37.2025 36.9755C37.2025 36.8081 37.2288 36.6114 36.9689 36.6114C36.7663 36.6114 36.6596 36.7369 36.6596 36.977C36.6596 37.324 36.6472 37.671 36.6596 38.018C36.6704 38.2535 36.5265 38.2303 36.3765 38.2333C36.2265 38.2364 36.1166 38.2333 36.1136 38.0211C36.1136 37.4743 36.0718 36.9368 36.0625 36.3837C36.0625 36.3326 36.1538 36.2489 36.2172 36.2288C36.3257 36.2102 36.4366 36.2102 36.5451 36.2288C36.5745 36.2443 36.5884 36.3186 36.607 36.3589Z" fill="black"/>
<path d="M45.5117 38.1637C45.3959 38.2186 45.2738 38.2592 45.1482 38.2845C45.0739 38.2996 44.9973 38.2995 44.923 38.2841C44.8487 38.2687 44.7784 38.2383 44.7162 38.1949C44.654 38.1514 44.6012 38.0958 44.5612 38.0313C44.5211 37.9668 44.4945 37.8948 44.4831 37.8198C44.4405 37.6647 44.4598 37.4992 44.5369 37.3581C44.6139 37.217 44.7427 37.1115 44.8961 37.0638C45.0337 37.0189 45.1838 37.0127 45.323 36.9724C45.3896 36.9434 45.4516 36.9048 45.507 36.8578C45.4498 36.7695 45.4049 36.6207 45.3338 36.6083C45.1897 36.5911 45.0436 36.6097 44.9084 36.6626C44.7537 36.7183 44.695 36.6626 44.6455 36.52C44.596 36.3775 44.6099 36.2691 44.7708 36.2443C45.003 36.194 45.2401 36.1696 45.4776 36.1715C45.8303 36.1932 46.0004 36.3915 46.0159 36.7462C46.0267 37.0235 46.0159 37.3024 46.0159 37.5812C46.0085 37.6812 46.0206 37.7817 46.0515 37.8771C46.1567 38.1063 46.0515 38.2148 45.8458 38.2427C45.7311 38.2332 45.6185 38.2065 45.5117 38.1637ZM45.5565 37.5301C45.4946 37.4696 45.439 37.3643 45.3709 37.355C45.3278 37.3444 45.2829 37.3431 45.2392 37.3514C45.1956 37.3597 45.1542 37.3773 45.1179 37.403C45.0817 37.4287 45.0514 37.462 45.0291 37.5005C45.0069 37.539 44.9931 37.5818 44.9889 37.6261C44.9889 37.7934 45.0755 37.8988 45.2379 37.891C45.4003 37.8833 45.538 37.7826 45.5565 37.5363V37.5301Z" fill="black"/>
<path d="M38.367 36.2026C38.367 36.1221 38.367 36.0477 38.367 35.9842C38.367 35.6589 38.367 35.6744 38.6763 35.6171C38.8604 35.5846 38.9161 35.6418 38.9053 35.8153C38.896 35.9439 38.9053 36.0741 38.9053 36.2181L39.3832 36.2398C39.4188 36.576 39.4126 36.5822 38.9099 36.6472C38.9099 36.9849 38.9099 37.3288 38.9176 37.6727C38.9176 37.7176 39.0259 37.7858 39.0909 37.7951C39.184 37.7893 39.2758 37.7695 39.3631 37.7363C39.4001 37.8281 39.4246 37.9245 39.4358 38.0228C39.4358 38.0925 39.3786 38.2118 39.3291 38.2227C39.1427 38.2669 38.9512 38.2852 38.7598 38.2769C38.6573 38.2713 38.561 38.2257 38.4916 38.1498C38.4222 38.0739 38.3852 37.9738 38.3886 37.871C38.367 37.572 38.3685 37.27 38.3608 36.9695C38.3608 36.8626 38.3608 36.7572 38.3608 36.6472C38.2061 36.5992 37.9772 36.6875 38.0205 36.4056C38.0468 36.2537 38.036 36.2506 38.367 36.2026Z" fill="black"/>
<path d="M58.2382 37.7376C58.2763 37.8311 58.3003 37.9298 58.3093 38.0304C58.3093 38.1016 58.2397 38.2147 58.1841 38.2271C58.0055 38.2704 57.8216 38.2876 57.6381 38.2783C57.3844 38.2597 57.2498 38.0769 57.2421 37.7686C57.2328 37.3984 57.2421 37.0296 57.2421 36.6656C56.8523 36.5572 56.8508 36.5541 56.9327 36.2442L57.2421 36.2148C57.2421 36.0909 57.2421 35.9763 57.2421 35.8632C57.2297 35.7083 57.2869 35.6432 57.4447 35.6277C57.7773 35.5952 57.7773 35.5874 57.7773 35.9143V36.2241L58.0325 36.235L58.2568 36.2458C58.3032 36.5835 58.2877 36.5975 57.7834 36.6455C57.7834 36.9925 57.7835 37.3441 57.7927 37.6942C57.7927 37.7345 57.9103 37.7934 57.9783 37.8011C58.0675 37.7922 58.155 37.7708 58.2382 37.7376V37.7376Z" fill="black"/>
<path d="M44.0144 40.2039C43.8409 40.1744 43.6658 40.1558 43.49 40.1482C43.4516 40.1529 43.415 40.1673 43.3836 40.19C43.3522 40.2128 43.3271 40.2432 43.3106 40.2783C43.2998 40.3325 43.3694 40.4332 43.4297 40.4657C43.5329 40.5165 43.64 40.559 43.7499 40.5927C44.0933 40.7368 44.2526 41.0033 44.1846 41.3162C44.1543 41.478 44.0639 41.6224 43.9316 41.7202C43.7993 41.8179 43.6348 41.8618 43.4715 41.8429C43.3258 41.8334 43.1819 41.8058 43.043 41.7608C42.6997 41.6539 42.6842 41.595 42.8884 41.2558C43.0198 41.2976 43.1544 41.3487 43.2936 41.3844C43.4328 41.42 43.6122 41.4649 43.6741 41.2852C43.736 41.1055 43.5504 41.0529 43.4204 40.9955C43.357 40.9677 43.289 40.9522 43.2256 40.9243C42.9162 40.7911 42.7708 40.5757 42.8126 40.2829C42.8303 40.1315 42.9008 39.9913 43.0117 39.8869C43.1227 39.7826 43.2669 39.721 43.4189 39.7129C43.5572 39.702 43.6963 39.7114 43.8319 39.7407C44.1969 39.8213 44.2201 39.8879 44.0144 40.2039Z" fill="black"/>
<path d="M41.295 41.3348C41.4404 41.7794 41.3213 41.9095 40.8867 41.8336C40.7807 41.8261 40.6817 41.7779 40.6102 41.6992C40.5388 41.6204 40.5004 41.5171 40.5031 41.4107C40.4876 40.6361 40.4892 39.8523 40.4923 39.0715C40.498 39.041 40.511 39.0122 40.5301 38.9877C40.5492 38.9632 40.5739 38.9436 40.6021 38.9306C40.7382 38.8945 40.8767 38.8681 41.0166 38.8516V39.3395C41.0166 39.9111 41.0166 40.4828 41.0166 41.0528C41.0027 41.2542 41.0367 41.3952 41.295 41.3348Z" fill="black"/>
<path d="M41.821 40.1975C41.7607 40.186 41.6997 40.1793 41.6384 40.1774C41.4838 40.1898 41.4544 40.0984 41.4513 39.9621C41.4482 39.8258 41.5147 39.7684 41.657 39.7638C42.3561 39.739 42.3561 39.7359 42.3561 40.4361C42.3561 40.8141 42.3468 41.1905 42.3561 41.5685C42.3561 41.8086 42.2123 41.7699 42.0684 41.7761C41.9246 41.7823 41.8055 41.7761 41.8117 41.5623C41.8302 41.11 41.821 40.6576 41.821 40.1975Z" fill="black"/>
<path d="M46.8637 40.1975C46.678 40.1619 46.4337 40.2269 46.5048 39.9311C46.5169 39.895 46.5372 39.8623 46.564 39.8354C46.5908 39.8086 46.6235 39.7883 46.6595 39.7761C46.842 39.7545 47.0276 39.7761 47.2117 39.7668C47.3664 39.7668 47.3927 39.8304 47.3911 39.9636C47.3911 40.5027 47.3803 41.048 47.3911 41.5809C47.3911 41.8102 47.255 41.7745 47.1189 41.7761C46.9828 41.7776 46.8436 41.804 46.8497 41.5778C46.8776 41.1223 46.8637 40.67 46.8637 40.1975Z" fill="black"/>
<path d="M46.6809 36.641C46.2818 36.6007 46.2818 36.6007 46.3499 36.2305C46.5943 36.2305 46.8448 36.2305 47.0954 36.2305C47.1236 36.2406 47.1487 36.2576 47.1685 36.2801C47.1882 36.3026 47.2019 36.3298 47.2083 36.359C47.2176 36.9291 47.2176 37.4992 47.2083 38.063C47.2083 38.3032 47.015 38.2025 46.899 38.218C46.783 38.2334 46.6701 38.218 46.6747 38.0445C46.6747 37.6603 46.6747 37.2699 46.6747 36.8888L46.6809 36.641Z" fill="black"/>
<path d="M47.1278 39.5363C47.0392 39.5325 46.9552 39.4955 46.8925 39.4327C46.8298 39.3699 46.7929 39.2858 46.7891 39.197C46.7894 39.151 46.7991 39.1055 46.8174 39.0633C46.8357 39.0211 46.8623 38.983 46.8957 38.9513C46.9291 38.9197 46.9684 38.895 47.0115 38.879C47.0546 38.8629 47.1004 38.8557 47.1464 38.8578C47.2351 38.861 47.3191 38.899 47.3801 38.9636C47.4411 39.0282 47.4744 39.1143 47.4727 39.2032C47.4684 39.2923 47.4303 39.3763 47.3662 39.4382C47.3021 39.5001 47.2168 39.5352 47.1278 39.5363V39.5363Z" fill="black"/>
<path d="M42.0763 38.8577C42.1204 38.856 42.1643 38.863 42.2057 38.8784C42.2471 38.8938 42.285 38.9172 42.3173 38.9473C42.3496 38.9774 42.3757 39.0135 42.3941 39.0537C42.4124 39.0939 42.4227 39.1373 42.4243 39.1814C42.4258 39.27 42.3935 39.3559 42.334 39.4215C42.2745 39.4871 42.1923 39.5275 42.1041 39.5346C42.0582 39.5363 42.0124 39.5289 41.9694 39.5128C41.9263 39.4967 41.8869 39.4723 41.8533 39.4409C41.8197 39.4096 41.7925 39.3719 41.7735 39.33C41.7544 39.2881 41.7438 39.2429 41.7422 39.1969C41.7426 39.1079 41.7778 39.0225 41.8402 38.9591C41.9026 38.8957 41.9874 38.8593 42.0763 38.8577Z" fill="black"/>
<path d="M46.9392 35.987C46.8948 35.987 46.8509 35.9782 46.8098 35.9611C46.7688 35.944 46.7316 35.919 46.7003 35.8875C46.6689 35.856 46.6441 35.8185 46.6273 35.7774C46.6104 35.7362 46.6019 35.6922 46.6021 35.6477C46.6056 35.5581 46.6434 35.4732 46.7075 35.4107C46.7717 35.3481 46.8574 35.3126 46.947 35.3115C47.0367 35.3139 47.122 35.3512 47.1849 35.4153C47.2478 35.4795 47.2834 35.5656 47.2842 35.6555C47.2838 35.7001 47.2745 35.7441 47.2568 35.7851C47.2392 35.8261 47.2135 35.8631 47.1814 35.894C47.1493 35.9248 47.1113 35.949 47.0697 35.9649C47.0281 35.9809 46.9838 35.9884 46.9392 35.987V35.987Z" fill="black"/>
</g>
<defs>
<clipPath id="clip0_313_3082">
<rect width="66" height="66" fill="white"/>
</clipPath>
</defs>
</svg>
