<svg width="87" height="48" viewBox="0 0 87 48" fill="none" xmlns="http://www.w3.org/2000/svg">
<g clip-path="url(#clip0_313_3138)">
<path d="M42.1848 0C42.7998 0.0722892 43.417 0.133735 44.0305 0.216867C54.4113 1.59036 62.7611 9.42867 64.6945 19.6193C64.9327 20.8778 65.0275 22.1639 65.1925 23.4694H64.1598C63.8979 20.0132 62.4375 17.1976 59.6602 15.1265C57.5266 13.5361 55.1031 12.8263 52.4557 12.9622C46.8394 13.2513 42.2931 17.6747 41.9494 23.4708H40.9447C41.3674 18.8819 43.4213 15.2986 47.5528 13.328C53.5753 10.4545 58.7208 12.0585 63.0317 17.0335C61.9072 13.5721 59.9808 10.43 57.4118 7.86724C54.1494 4.5947 50.2468 2.51277 45.7019 1.48048V1.93229C45.7019 4.83542 45.7113 7.73855 45.6976 10.6424C45.6876 12.9188 44.1798 14.8164 41.9802 15.3636C38.9446 16.1176 35.9764 13.826 35.952 10.6786C35.9283 7.77542 35.9463 4.87157 35.9455 1.96843V1.47686C31.7832 2.38337 28.1354 4.2282 25.0143 7.09302C22.0253 9.84001 19.8824 13.1422 18.6689 17.0595C21.1484 13.8513 24.3613 12.0795 28.4095 11.9689C30.6701 11.9068 32.7915 12.4706 34.7478 13.6178C38.6604 15.9108 40.626 19.9352 40.6928 23.4723H39.7448C39.4857 20.0154 38.0224 17.199 35.2473 15.1272C33.1259 13.5427 30.716 12.8364 28.0794 12.9586C22.3763 13.221 17.7955 17.8149 17.53 23.4665H16.5439C16.5784 22.8593 16.5884 22.2499 16.6516 21.647C17.0786 17.606 18.4156 13.8969 20.7207 10.56C23.8202 6.07302 27.9617 2.96963 33.108 1.23975C35.0704 0.578142 37.1112 0.181211 39.1771 0.0592821C39.2955 0.0456359 39.4131 0.0258456 39.5295 0H42.1848ZM42.1073 7.45302C43.3273 6.57615 43.7578 5.46723 43.0804 4.05036C42.7883 3.4388 41.8424 2.74192 41.1463 2.86843V3.2118C42.3663 3.6318 42.9318 4.22386 42.934 5.19254C42.934 6.38603 42.2371 7.02217 41.1255 7.28241C41.1327 7.4306 41.1384 7.55855 41.1449 7.69735L41.3379 7.73639C42.5802 7.9735 43.4406 8.9653 43.4636 10.1942C43.4866 11.3928 42.6311 12.4634 41.4068 12.7084C41.0789 12.7742 41.1054 12.9304 41.1492 13.1552C42.2056 13.234 43.3861 12.3246 43.7643 11.1535C44.2315 9.70482 43.6775 8.45278 42.1073 7.45302ZM39.7562 7.47686C38.2865 8.25108 37.6442 9.60723 38.049 11.0451C38.3913 12.2602 39.6084 13.2332 40.6935 13.1523C40.7818 12.8812 40.7114 12.7641 40.4064 12.699C39.8381 12.5846 39.3265 12.2757 38.9584 11.8247C38.5904 11.3737 38.3885 10.8084 38.387 10.2246C38.3864 9.64623 38.5845 9.08552 38.9476 8.63753C39.3107 8.18954 39.8165 7.88188 40.3792 7.76674C40.7243 7.69445 40.7889 7.55928 40.6892 7.26651C39.5409 6.95422 38.9338 6.27759 38.903 5.29373C38.8721 4.30988 39.4405 3.65277 40.6971 3.21108V2.83518C39.8402 2.82361 38.9467 3.48578 38.6102 4.37205C38.1918 5.47446 38.5319 6.40626 39.7562 7.47686V7.47686Z" fill="white"/>
<path d="M38.0227 48.0002C37.2491 47.8607 36.4712 47.745 35.7033 47.5781C30.3891 46.4214 25.9239 43.7937 22.3479 39.6682C19.2117 36.0537 17.3624 31.8342 16.7265 27.0798C16.6153 26.2484 16.5902 25.4055 16.5234 24.5373H17.5353C17.8152 28.1207 19.3639 31.0152 22.3105 33.0884C24.401 34.5602 26.7528 35.1906 29.294 35.0402C35.2433 34.6831 39.5599 29.8477 39.753 24.5402H40.6909C40.6464 27.966 38.7073 32.7089 33.7843 34.8537C27.7352 37.493 22.6658 35.8058 18.5967 30.854C20.6528 38.5383 28.5634 46.6405 39.7458 47.119C51.8252 47.6345 60.6293 39.2945 62.9975 30.9429C61.0599 33.4788 58.5811 35.1725 55.4508 35.7971C52.3204 36.4217 49.3694 35.9236 46.6689 34.2205C43.1402 31.9954 41.2973 28.7265 40.955 24.5532C41.0124 24.5366 41.0709 24.5246 41.1301 24.5171C41.3921 24.5171 41.6533 24.5171 41.9432 24.5171C42.2303 28.1084 43.7589 31.0014 46.6926 33.0725C48.8125 34.5689 51.198 35.2079 53.7779 35.0381C59.3325 34.673 63.8121 30.2851 64.1637 24.5453H65.1526C65.073 25.4265 65.0256 26.2904 64.9129 27.1477C64.2886 31.8718 62.4313 36.053 59.3153 39.6313C55.3151 44.2253 50.2873 46.9701 44.2784 47.8723C44.033 47.9091 43.7904 47.9619 43.5464 48.0067L38.0227 48.0002Z" fill="white"/>
<path d="M0.274414 12.5059L1.26333 12.4126V35.9275H0.274414V12.5059Z" fill="white"/>
<path d="M86.3919 35.9278H85.3872V35.5403C85.3872 28.3528 85.3906 21.1651 85.3973 13.9772C85.3961 13.763 85.4427 13.5513 85.5336 13.3577C85.8006 12.8234 86.1027 12.3066 86.3905 11.7832L86.3919 35.9278Z" fill="white"/>
<path d="M28.6357 34.3128C22.9555 34.3193 18.2958 29.6718 18.2915 23.9949C18.2872 18.3181 22.9447 13.7038 28.6873 13.7031C34.3453 13.7031 38.9655 18.3101 38.9877 23.974C39.0107 29.6609 34.3625 34.3055 28.6357 34.3128ZM28.6522 18.4612C25.6122 18.4554 23.1012 20.9306 23.0875 23.9472C23.0856 25.4273 23.6668 26.8476 24.7035 27.8965C25.7402 28.9454 27.1477 29.5371 28.617 29.5417C31.6792 29.5417 34.1931 27.065 34.2082 24.0369C34.224 20.9826 31.7172 18.467 28.6522 18.4612V18.4612Z" fill="white"/>
<path d="M63.4117 24.0254C63.3894 29.7016 58.7269 34.3252 53.0352 34.3129C47.3148 34.3013 42.6875 29.6387 42.7061 23.9076C42.7284 18.2994 47.4426 13.6599 53.0804 13.696C58.7986 13.735 63.4332 18.3666 63.4117 24.0254ZM53.0883 18.4592C50.0742 18.4208 47.5301 20.909 47.4971 23.9249C47.4627 26.9856 49.9443 29.5143 53.0108 29.5432C56.0249 29.5722 58.5783 27.1042 58.6185 24.1288C58.6608 21.0124 56.2108 18.5003 53.0883 18.4613V18.4592Z" fill="white"/>
<path d="M40.7983 44.1041C38.8112 44.1041 37.1642 42.4415 37.1778 40.4449C37.1907 38.467 38.8341 36.8514 40.8285 36.855C42.8458 36.855 44.4792 38.4779 44.4813 40.4767C44.4813 42.487 42.8422 44.1027 40.7983 44.1041Z" fill="white"/>
<path d="M2.35547 28.0273V27.0449C2.5966 27.0449 2.8205 27.0449 3.04441 27.0449C5.11698 27.0254 7.14002 26.7449 9.05183 25.8832C10.1104 25.4061 11.0612 24.7743 11.8428 23.8996C13.8378 21.6587 13.8113 18.655 11.771 16.4589C10.4498 15.0355 8.76621 14.2736 6.92616 13.816C5.6823 13.5119 4.40616 13.3624 3.12622 13.3707H2.35834V12.4309C3.04943 12.4309 3.72905 12.3941 4.40292 12.4382C6.27813 12.5596 8.08947 12.9644 9.78527 13.8023C10.8337 14.3081 11.7764 15.0114 12.5626 15.8741C14.8892 18.4548 14.8827 22.0295 12.5504 24.6073C11.5033 25.7639 10.208 26.5324 8.77267 27.0861C8.66359 27.128 8.55737 27.1721 8.37366 27.2451L14.8081 35.6697L14.023 36.2567C13.8457 36.0297 13.6835 35.823 13.5242 35.617C11.532 33.0145 9.54151 30.4102 7.55267 27.804C7.40483 27.6095 7.28283 27.5387 7.0252 27.6001C5.59923 27.9399 4.146 28.0338 2.68415 28.0418C2.58296 28.0483 2.47819 28.0346 2.35547 28.0273Z" fill="white"/>
<path d="M77.6884 27.9094C79.9131 23.7744 82.0912 19.7205 84.2699 15.6665L84.3654 15.694C84.2872 16.5513 84.4859 17.4 84.013 18.2602C81.9476 22.0193 79.9454 25.8072 77.9202 29.5858C77.8535 29.7094 77.781 29.8294 77.6927 29.9834C77.6116 29.8424 77.5492 29.7419 77.4954 29.6385C74.7401 24.4935 71.9891 19.3472 69.2424 14.1997C69.1039 13.9388 69.0451 13.6149 69.0221 13.3156C68.9894 12.8261 69.011 12.3343 69.0867 11.8496L77.6884 27.9094Z" fill="white"/>
<path d="M69.0371 16.0322C69.3758 16.6698 69.6729 17.212 69.9492 17.7672C70.0038 17.8763 69.988 18.0267 69.9887 18.1582C69.9921 23.937 69.9944 29.7163 69.9959 35.4961V35.9414H69.0371V16.0322Z" fill="white"/>
<path d="M28.6274 27.6248C26.6094 27.6103 24.9674 25.9621 24.994 23.9771C25.0091 23.0078 25.4054 22.0843 26.0959 21.4092C26.7865 20.7341 27.7147 20.3626 28.6769 20.3763C29.1533 20.3778 29.6246 20.4738 30.064 20.6591C30.5034 20.8444 30.9022 21.1152 31.2375 21.4561C31.5727 21.7969 31.8379 22.201 32.0179 22.6453C32.1978 23.0895 32.2889 23.5652 32.286 24.045C32.2709 26.0301 30.6253 27.6399 28.6274 27.6248Z" fill="white"/>
<path d="M53.0687 27.6239C51.0442 27.6239 49.4216 26.017 49.4194 24.0037C49.4173 21.9905 51.0435 20.3762 53.0644 20.377C55.0616 20.377 56.6949 21.9984 56.6964 23.982C56.6978 24.4617 56.6049 24.937 56.4229 25.3803C56.241 25.8236 55.9736 26.2262 55.6363 26.5648C55.299 26.9035 54.8984 27.1714 54.4577 27.3532C54.017 27.535 53.5449 27.627 53.0687 27.6239V27.6239Z" fill="white"/>
</g>
<defs>
<clipPath id="clip0_313_3138">
<rect width="86.1176" height="48" fill="white" transform="translate(0.274414)"/>
</clipPath>
</defs>
</svg>
