<svg width="50" height="50" viewBox="0 0 50 50" fill="none" xmlns="http://www.w3.org/2000/svg">
<rect width="50.0002" height="50.0002" rx="3.45098" fill="url(#paint0_linear_962_24)"/>
<path d="M20.0649 21.9189H16.3037V33.9133H20.0649V21.9189Z" fill="black"/>
<path d="M30.2392 21.6591C30.1006 21.6417 29.9532 21.6331 29.8059 21.6244C27.7 21.5377 26.5127 22.7857 26.0967 23.323C25.984 23.4704 25.932 23.557 25.932 23.557V21.9537H22.3354V33.9481H25.932H26.0967C26.0967 32.7261 26.0967 31.5128 26.0967 30.2908C26.0967 29.6322 26.0967 28.9735 26.0967 28.3149C26.0967 27.5002 26.036 26.6336 26.4433 25.8883C26.79 25.2643 27.414 24.9523 28.116 24.9523C30.1959 24.9523 30.2392 26.8329 30.2392 27.0063C30.2392 27.0149 30.2392 27.0236 30.2392 27.0236V34.0001H34.0005V26.1743C34.0005 23.4964 32.6398 21.9191 30.2392 21.6591Z" fill="black"/>
<path d="M18.1839 20.3679C19.3901 20.3679 20.3679 19.3901 20.3679 18.1839C20.3679 16.9778 19.3901 16 18.1839 16C16.9778 16 16 16.9778 16 18.1839C16 19.3901 16.9778 20.3679 18.1839 20.3679Z" fill="black"/>
<defs>
<linearGradient id="paint0_linear_962_24" x1="1.23103" y1="35.8334" x2="39.537" y2="108.122" gradientUnits="userSpaceOnUse">
<stop stop-color="#D4AB79"/>
<stop offset="1" stop-color="#D9AA5E"/>
</linearGradient>
</defs>
</svg>
