<svg width="186" height="26" viewBox="0 0 186 26" fill="none" xmlns="http://www.w3.org/2000/svg">
<g clip-path="url(#clip0_402_3849)">
<path d="M38.9387 6.60913C39.1988 6.60913 39.2658 6.67695 39.3414 6.77866L42.7229 11.3392H42.8404L46.1045 6.8041C46.1968 6.68542 46.3394 6.6176 46.5241 6.6176H48.5714C48.7811 6.6176 48.8566 6.8041 48.7559 6.92278L44.1745 12.7378L49.2762 19.214C49.3937 19.3837 49.3265 19.5447 49.1084 19.5447H47.0442C46.8596 19.5447 46.6918 19.4769 46.5744 19.3074L42.7648 14.1365H42.6474L39.0141 19.2903C38.8715 19.4599 38.7121 19.5531 38.5191 19.5531H36.4718C36.304 19.5531 36.2117 19.409 36.3291 19.248L41.3552 12.7887L36.8241 6.97363C36.7318 6.8041 36.7738 6.6176 36.992 6.6176H38.9387V6.60913Z" fill="white"/>
<path d="M59.1954 6.60913C61.9895 6.60913 64.0118 8.65203 64.0118 11.2374C64.0118 13.8992 61.9895 15.8912 59.1954 15.8912H55.1343V19.214C55.1343 19.426 55.042 19.5447 54.849 19.5447H53.3218C53.112 19.5447 52.9946 19.426 52.9946 19.214V6.9482C52.9946 6.73628 53.112 6.6176 53.3218 6.6176H59.1954V6.60913ZM59.1954 13.8737C60.9071 13.8737 61.8721 12.7548 61.8721 11.2374C61.8721 9.74553 60.9071 8.62661 59.1954 8.62661H55.1343V13.8737H59.1954Z" fill="white"/>
<path d="M68.5006 16.5779C69.3481 16.5779 70.0781 17.29 70.0781 18.1461C70.0781 19.0022 69.3481 19.7398 68.5006 19.7398C67.6532 19.7398 66.9482 19.0022 66.9482 18.1461C66.9482 17.29 67.6532 16.5779 68.5006 16.5779Z" fill="white"/>
<path d="M84.2421 19.5446C84.0742 19.5446 83.9399 19.4768 83.8393 19.3327L79.6355 13.9669L76.5141 9.6268L76.3966 9.65224L76.5392 13.5007V19.2224C76.5392 19.4344 76.4218 19.5531 76.1868 19.5531H74.7101C74.5255 19.5531 74.4248 19.4344 74.4248 19.2224V6.94815C74.4248 6.73623 74.5171 6.61755 74.7268 6.61755H76.1114C76.3462 6.61755 76.5309 6.68537 76.6484 6.85491L81.1626 12.5513L83.9819 16.4929L84.0995 16.4675L83.9316 12.6445V6.94815C83.9316 6.73623 84.0491 6.61755 84.2589 6.61755H85.7356C85.9455 6.61755 86.0376 6.73623 86.0376 6.94815V19.2224C86.0376 19.4344 85.9455 19.5531 85.7356 19.5531H84.2421V19.5446Z" fill="white"/>
<path d="M100.31 6.60913C100.477 6.60913 100.637 6.75324 100.637 6.93972V8.29601C100.637 8.46555 100.469 8.60117 100.31 8.60117H92.8838V11.8054H99.6468C99.8567 11.8054 99.9741 11.9241 99.9741 12.136V13.4923C99.9741 13.7042 99.8567 13.7974 99.6468 13.7974H92.8838V17.5272H100.545C100.754 17.5272 100.847 17.6205 100.847 17.8154V19.214C100.847 19.426 100.754 19.5447 100.545 19.5447H91.0546C90.8448 19.5447 90.7524 19.426 90.7524 19.214V6.9482C90.7524 6.73628 90.8448 6.6176 91.0546 6.6176H100.31V6.60913Z" fill="white"/>
<path d="M115.531 6.60913C115.741 6.60913 115.858 6.72781 115.858 6.93972V8.29601C115.858 8.50793 115.741 8.62661 115.531 8.62661H111.184V19.214C111.184 19.3837 111.067 19.5447 110.857 19.5447H109.38C109.171 19.5447 109.053 19.426 109.053 19.214V8.62661H104.707C104.497 8.62661 104.379 8.50793 104.379 8.29601V6.93972C104.379 6.72781 104.497 6.60913 104.707 6.60913H115.531Z" fill="white"/>
<path d="M121.011 6.60913C121.22 6.60913 121.338 6.67695 121.388 6.84648L124.35 17.0271H124.468L127.312 6.84648C127.363 6.67695 127.48 6.60913 127.64 6.60913H129.217C129.385 6.60913 129.502 6.67695 129.544 6.84648L132.456 17.0271H132.573L135.51 6.87192C135.561 6.70237 135.678 6.60913 135.837 6.60913H137.574C137.784 6.60913 137.86 6.70237 137.784 6.9143L133.79 19.2565C133.723 19.443 133.58 19.5447 133.387 19.5447H131.441C131.256 19.5447 131.139 19.4515 131.063 19.2396L128.479 10.1524H128.361L125.802 19.2649C125.752 19.4515 125.634 19.5531 125.475 19.5531H123.503C123.293 19.5531 123.15 19.4599 123.083 19.2649L119.064 6.87192C118.997 6.70237 119.064 6.60913 119.274 6.60913H121.011Z" fill="white"/>
<path d="M147.584 6.42255C151.293 6.42255 154.188 9.21988 154.188 13.0938C154.188 16.9422 151.301 19.7396 147.584 19.7396C143.875 19.7396 140.98 16.9422 140.98 13.0938C140.98 9.21988 143.867 6.42255 147.584 6.42255ZM143.137 13.0938C143.137 15.7555 144.949 17.7221 147.576 17.7221C150.21 17.7221 152.014 15.7555 152.014 13.0938C152.014 10.4151 150.202 8.44002 147.576 8.44002C144.949 8.44002 143.137 10.4066 143.137 13.0938Z" fill="white"/>
<path d="M164.617 6.60913C167.412 6.60913 169.459 8.65203 169.459 11.2374C169.459 13.043 168.494 14.5603 167.018 15.3233L169.157 19.1718C169.275 19.3837 169.157 19.5531 168.897 19.5531H167.185C166.976 19.5531 166.808 19.3837 166.716 19.2225L165.005 15.8743C164.936 15.8997 164.819 15.8997 164.676 15.8997H160.565V19.2225C160.565 19.4344 160.472 19.5531 160.263 19.5531H158.786C158.527 19.5531 158.434 19.3837 158.434 19.2225V6.9482C158.434 6.73628 158.552 6.6176 158.761 6.6176H164.617V6.60913ZM164.617 13.8737C166.33 13.8737 167.32 12.7548 167.32 11.2374C167.32 9.74553 166.33 8.62661 164.617 8.62661H160.556V13.8737H164.617Z" fill="white"/>
<path d="M175.728 6.60913C175.937 6.60913 176.055 6.72781 176.055 6.93972V12.6361L182.113 6.87192C182.282 6.70237 182.516 6.60913 182.793 6.60913H184.907C185.118 6.60913 185.209 6.82105 185.05 6.99058L179.412 12.1869L185.352 19.1378C185.521 19.3074 185.42 19.5447 185.167 19.5447H183.289C183.004 19.5447 182.768 19.4515 182.584 19.2396L177.86 13.594L176.047 15.069V19.2225C176.047 19.4344 175.93 19.5531 175.719 19.5531H174.243C174.034 19.5531 173.916 19.4344 173.916 19.2225V6.9482C173.916 6.73628 174.034 6.6176 174.243 6.6176H175.728V6.60913Z" fill="white"/>
<path d="M17.853 25.4276L15.0757 22.6218C14.287 21.8249 13.0116 21.8249 12.2312 22.6218L9.45383 25.4276C8.63993 26.2499 7.31416 26.2499 6.50025 25.4276L5.15771 24.0712L9.41187 19.7736C11.7529 17.4085 15.5456 17.4085 17.8866 19.7736L22.1409 24.0712L20.7983 25.4276C19.9927 26.2499 18.6753 26.2499 17.853 25.4276Z" fill="white"/>
<path d="M2.77524 21.6554L1.4327 20.2992C0.618787 19.4769 0.618787 18.1376 1.4327 17.3153L4.21007 14.5095C4.99881 13.7127 4.99881 12.4242 4.21007 11.6359L1.4327 8.83003C0.618787 8.00779 0.618787 6.66846 1.4327 5.84622L2.77524 4.48993L7.0294 8.78765C9.37044 11.1527 9.37044 14.9842 7.0294 17.3492L2.77524 21.6554Z" fill="white"/>
<path d="M13.6917 8.11796C12.1562 8.11796 10.6207 7.53305 9.45436 6.34631L5.2002 2.04859L6.54273 0.692308C7.35664 -0.129939 8.68241 -0.129939 9.49632 0.692308L12.2737 3.49812C13.054 4.28645 14.3378 4.28645 15.1182 3.49812L17.8955 0.692308C18.7095 -0.129939 20.0352 -0.129939 20.8491 0.692308L22.1917 2.04859L17.9375 6.34631C16.7628 7.51611 15.2273 8.11796 13.6917 8.11796Z" fill="white"/>
<path d="M24.5748 21.6215L20.3207 17.3237C17.9797 14.9587 17.9797 11.1272 20.3207 8.7622L24.5748 4.46448L25.9174 5.82075C26.7314 6.64301 26.7314 7.98234 25.9174 8.80458L23.1401 11.6104C22.3513 12.4072 22.3513 13.6957 23.1401 14.484L25.9174 17.2899C26.7314 18.1121 26.7314 19.4515 25.9174 20.2736L24.5748 21.6215Z" fill="white"/>
</g>
<defs>
<clipPath id="clip0_402_3849">
<rect width="184.786" height="26" fill="white" transform="translate(0.752441)"/>
</clipPath>
</defs>
</svg>
