<svg width="116" height="26" viewBox="0 0 116 26" fill="none" xmlns="http://www.w3.org/2000/svg">
<g clip-path="url(#clip0_402_3865)">
<path d="M20.1724 26H0.538086C0.538086 26 0.538086 23.038 0.538086 19.3766V6.62344C0.538086 2.96204 3.53951 1.56934e-05 7.24961 1.56934e-05H20.2141C23.8825 1.56934e-05 26.8839 0 26.8839 0V19.4177C26.8839 23.038 23.8825 26 20.1724 26Z" fill="#8B8B8B"/>
<path d="M15.0862 12.9999C15.0862 9.70873 12.3766 6.99359 9 6.99359V9.66763C10.8342 9.66763 12.3349 11.1486 12.3349 12.9587C12.3349 16.2499 15.0445 18.9651 18.4211 18.9651V16.291C16.5869 16.291 15.0862 14.81 15.0862 12.9999Z" fill="white"/>
<path d="M6.24854 16.3323C6.24854 17.8133 7.45746 19.0063 8.95816 19.0063V9.70886H6.24854V16.3323Z" fill="white"/>
<path d="M18.4214 6.95251V16.2911H21.131V9.66766C21.1727 8.18665 19.9221 6.95251 18.4214 6.95251Z" fill="white"/>
<path d="M45.0174 7.36389V15.2215L42.8497 12.7531L38.7644 8.22783L38.014 7.36389H35.1377V18.6772H37.8473V10.7373L44.934 18.6361H47.7687V7.36389H45.0174Z" fill="white"/>
<path d="M60.0254 9.42077V7.40497H49.979V18.7182H52.8137V14.3164H60.0254V12.3005H52.8137V9.42077H60.0254Z" fill="white"/>
<path d="M62.2344 7.40497V9.46194H66.4861V18.6771H69.3628V9.46194H73.6151V7.40497H62.2344Z" fill="white"/>
<path d="M100.793 7.40497C100.793 7.77522 100.793 10.9018 100.835 16.7436L91.9143 7.40497H90.2466V18.6771H91.7893C91.7893 18.1423 91.7893 15.0157 91.7472 9.3385L100.71 18.6771H102.294V7.40497H100.793Z" fill="white"/>
<path d="M106.172 17.3195V13.4936H114.885V12.1771H106.172V8.80371H115.093V7.40497H104.547V18.7182H115.51V17.3195H106.172Z" fill="white"/>
<path d="M84.6185 7.40497H78.7406C76.9064 7.40497 75.4473 8.88598 75.4473 10.655V15.2626C75.4473 17.1139 76.9899 18.636 78.8656 18.636H84.7435C86.5777 18.636 88.0368 17.155 88.0368 15.386V10.8195C88.0368 8.92714 86.4942 7.40497 84.6185 7.40497ZM84.702 17.155H78.8242C77.7817 17.155 76.9485 16.3322 76.9485 15.3037V10.6961C76.9485 9.74992 77.7402 8.96825 78.6991 8.96825H84.5349C85.5774 8.96825 86.4112 9.79102 86.4112 10.8195V15.386C86.4942 16.3734 85.7024 17.155 84.702 17.155Z" fill="white"/>
</g>
<defs>
<clipPath id="clip0_402_3865">
<rect width="115.143" height="26" fill="white" transform="translate(0.538086)"/>
</clipPath>
</defs>
</svg>
