<svg width="136" height="69" viewBox="0 0 136 69" fill="none" xmlns="http://www.w3.org/2000/svg">
<path d="M35.1782 19.18H37.4222C38.6862 19.18 39.5262 19.392 39.9422 19.816C40.3582 20.24 40.5662 20.752 40.5662 21.352C40.5662 21.752 40.4782 22.132 40.3022 22.492C40.1262 22.844 39.8462 23.108 39.4622 23.284C40.0302 23.428 40.4462 23.68 40.7102 24.04C40.9822 24.4 41.1182 24.824 41.1182 25.312C41.1182 25.824 41.0382 26.272 40.8782 26.656C40.7182 27.04 40.3862 27.36 39.8822 27.616C39.3782 27.872 38.6502 28 37.6982 28H35.1782V19.18ZM37.6382 22.924C38.2062 22.924 38.6102 22.788 38.8502 22.516C39.0902 22.236 39.2102 21.884 39.2102 21.46C39.2102 20.7 38.6662 20.32 37.5782 20.32H36.4982V22.924H37.6382ZM37.8782 26.872C38.6062 26.872 39.0942 26.728 39.3422 26.44C39.5982 26.144 39.7262 25.772 39.7262 25.324C39.7262 24.9 39.5822 24.572 39.2942 24.34C39.0062 24.108 38.5702 23.992 37.9862 23.992H36.4982V26.872H37.8782ZM44.7179 28.12C44.2379 28.12 43.7619 28.036 43.2899 27.868C42.8179 27.7 42.4779 27.512 42.2699 27.304L42.9059 26.164C43.0739 26.316 43.3339 26.476 43.6859 26.644C44.0459 26.804 44.3899 26.884 44.7179 26.884C45.1419 26.884 45.4859 26.784 45.7499 26.584C46.0219 26.384 46.1579 26.108 46.1579 25.756C46.1579 25.484 46.0859 25.248 45.9419 25.048C45.7979 24.848 45.6219 24.684 45.4139 24.556C45.2059 24.42 44.9099 24.256 44.5259 24.064C44.0699 23.84 43.7579 23.672 43.5899 23.56C42.8139 23.04 42.4259 22.32 42.4259 21.4C42.4259 20.64 42.6779 20.06 43.1819 19.66C43.6859 19.252 44.3219 19.048 45.0899 19.048C45.9139 19.048 46.6139 19.284 47.1899 19.756L46.5539 20.848C46.4019 20.688 46.1859 20.552 45.9059 20.44C45.6339 20.32 45.3419 20.26 45.0299 20.26C44.6299 20.26 44.3139 20.352 44.0819 20.536C43.8579 20.712 43.7459 20.976 43.7459 21.328C43.7459 21.576 43.8179 21.8 43.9619 22C44.1059 22.192 44.2859 22.36 44.5019 22.504C44.7259 22.648 45.0259 22.824 45.4019 23.032C45.7619 23.232 46.0379 23.392 46.2299 23.512C46.4219 23.624 46.6019 23.76 46.7699 23.92C47.0019 24.128 47.1899 24.376 47.3339 24.664C47.4779 24.952 47.5499 25.268 47.5499 25.612C47.5499 26.148 47.4259 26.604 47.1779 26.98C46.9379 27.356 46.6019 27.64 46.1699 27.832C45.7459 28.024 45.2619 28.12 44.7179 28.12ZM53.0026 28.084C52.0906 28.084 51.2986 27.88 50.6266 27.472C49.9626 27.064 49.4546 26.52 49.1026 25.84C48.7506 25.152 48.5746 24.396 48.5746 23.572C48.5746 22.7 48.7626 21.92 49.1386 21.232C49.5226 20.544 50.0586 20.008 50.7466 19.624C51.4346 19.232 52.2146 19.036 53.0866 19.036C53.4786 19.036 53.8426 19.08 54.1786 19.168C54.5226 19.248 54.8066 19.344 55.0306 19.456C55.2546 19.56 55.4026 19.648 55.4746 19.72L54.8866 20.92C54.3986 20.488 53.7626 20.272 52.9786 20.272C52.4266 20.272 51.9266 20.408 51.4786 20.68C51.0306 20.952 50.6786 21.34 50.4226 21.844C50.1666 22.348 50.0386 22.932 50.0386 23.596C50.0386 24.204 50.1506 24.756 50.3746 25.252C50.6066 25.748 50.9426 26.14 51.3826 26.428C51.8226 26.716 52.3466 26.86 52.9546 26.86C53.6586 26.86 54.3386 26.66 54.9946 26.26L55.3906 27.4C55.2146 27.56 54.8906 27.716 54.4186 27.868C53.9546 28.012 53.4826 28.084 53.0026 28.084ZM63.845 28.12C62.973 28.12 62.193 27.92 61.505 27.52C60.817 27.12 60.277 26.572 59.885 25.876C59.501 25.172 59.309 24.384 59.309 23.512C59.309 22.664 59.505 21.9 59.897 21.22C60.289 20.54 60.833 20.008 61.529 19.624C62.225 19.24 63.009 19.048 63.881 19.048C64.353 19.048 64.777 19.092 65.153 19.18C65.537 19.26 65.849 19.356 66.089 19.468C66.329 19.572 66.493 19.664 66.581 19.744L66.053 20.872C65.557 20.472 64.825 20.272 63.857 20.272C63.217 20.272 62.661 20.412 62.189 20.692C61.717 20.972 61.357 21.352 61.109 21.832C60.861 22.312 60.737 22.848 60.737 23.44C60.737 24.112 60.869 24.712 61.133 25.24C61.405 25.768 61.777 26.18 62.249 26.476C62.729 26.764 63.269 26.908 63.869 26.908C64.245 26.908 64.605 26.864 64.949 26.776C65.293 26.68 65.585 26.532 65.825 26.332V24.628H64.013V23.392H67.157V26.848C66.869 27.208 66.433 27.512 65.849 27.76C65.273 28 64.605 28.12 63.845 28.12ZM71.0107 28.12C70.5147 28.12 70.0547 28.004 69.6307 27.772C69.2147 27.532 68.8787 27.196 68.6227 26.764C68.3747 26.324 68.2507 25.812 68.2507 25.228C68.2507 24.652 68.3587 24.148 68.5747 23.716C68.7987 23.284 69.1147 22.948 69.5227 22.708C69.9307 22.468 70.4107 22.348 70.9627 22.348C71.2827 22.348 71.5827 22.404 71.8627 22.516C72.1427 22.628 72.3787 22.768 72.5707 22.936C72.7627 23.096 72.8907 23.256 72.9547 23.416L72.9787 22.492H74.2147V28H72.9907L72.9667 27.028C72.8307 27.316 72.5827 27.572 72.2227 27.796C71.8627 28.012 71.4587 28.12 71.0107 28.12ZM71.2267 27.04C71.6827 27.04 72.0667 26.884 72.3787 26.572C72.6907 26.252 72.8467 25.836 72.8467 25.324V25.24C72.8467 24.896 72.7747 24.588 72.6307 24.316C72.4867 24.044 72.2907 23.832 72.0427 23.68C71.7947 23.528 71.5227 23.452 71.2267 23.452C70.7147 23.452 70.3187 23.62 70.0387 23.956C69.7587 24.284 69.6187 24.712 69.6187 25.24C69.6187 25.776 69.7547 26.212 70.0267 26.548C70.3067 26.876 70.7067 27.04 71.2267 27.04ZM75.9575 22.492H77.2535V23.488C77.4295 23.112 77.6855 22.828 78.0215 22.636C78.3655 22.444 78.7575 22.348 79.1975 22.348C80.1815 22.356 80.7855 22.696 81.0095 23.368C81.1855 23.056 81.4495 22.808 81.8015 22.624C82.1535 22.44 82.5255 22.348 82.9175 22.348C83.4935 22.348 83.9295 22.46 84.2255 22.684C84.5215 22.9 84.7175 23.212 84.8135 23.62C84.9175 24.02 84.9695 24.56 84.9695 25.24V28H83.6615V25.228C83.6615 24.58 83.5935 24.116 83.4575 23.836C83.3295 23.556 83.0775 23.416 82.7015 23.416C82.1975 23.416 81.8135 23.588 81.5495 23.932C81.2935 24.268 81.1655 24.712 81.1655 25.264V28H79.8695V25.036C79.8695 24.612 79.8535 24.296 79.8215 24.088C79.7895 23.88 79.7015 23.716 79.5575 23.596C79.4135 23.476 79.1815 23.416 78.8615 23.416C78.5815 23.416 78.3175 23.5 78.0695 23.668C77.8295 23.836 77.6335 24.064 77.4815 24.352C77.3375 24.632 77.2655 24.936 77.2655 25.264V28H75.9575V22.492ZM89.2255 28.12C88.5695 28.12 88.0215 27.992 87.5815 27.736C87.1415 27.472 86.8175 27.124 86.6095 26.692C86.4015 26.252 86.2975 25.772 86.2975 25.252C86.2975 24.668 86.4175 24.156 86.6575 23.716C86.9055 23.276 87.2455 22.94 87.6775 22.708C88.1095 22.468 88.5975 22.348 89.1415 22.348C89.9895 22.348 90.6175 22.584 91.0255 23.056C91.4415 23.52 91.6495 24.176 91.6495 25.024C91.6495 25.24 91.6375 25.464 91.6135 25.696H87.6535C87.7415 26.184 87.9135 26.536 88.1695 26.752C88.4335 26.968 88.7975 27.076 89.2615 27.076C89.6455 27.076 89.9615 27.044 90.2095 26.98C90.4575 26.916 90.6855 26.828 90.8935 26.716L91.2895 27.64C91.0895 27.768 90.8175 27.88 90.4735 27.976C90.1295 28.072 89.7135 28.12 89.2255 28.12ZM90.3895 24.796C90.3975 24.3 90.2895 23.952 90.0655 23.752C89.8415 23.544 89.5215 23.44 89.1055 23.44C88.2655 23.44 87.7815 23.892 87.6535 24.796H90.3895ZM93.0803 19.18H97.2203V20.344H94.4123V22.84H96.5963V24.016H94.4123V28H93.0803V19.18ZM98.4714 22.492H99.8154V28H98.4714V22.492ZM99.1314 21.46C98.8834 21.46 98.6754 21.376 98.5074 21.208C98.3394 21.04 98.2554 20.832 98.2554 20.584C98.2554 20.36 98.3394 20.168 98.5074 20.008C98.6754 19.848 98.8834 19.768 99.1314 19.768C99.3714 19.768 99.5754 19.848 99.7434 20.008C99.9114 20.168 99.9954 20.36 99.9954 20.584C99.9954 20.832 99.9114 21.04 99.7434 21.208C99.5834 21.376 99.3794 21.46 99.1314 21.46ZM24.5897 31.18H25.8497V34.492L25.8017 35.512C25.9537 35.176 26.1977 34.9 26.5337 34.684C26.8697 34.46 27.2617 34.348 27.7097 34.348C28.2777 34.348 28.7137 34.468 29.0177 34.708C29.3217 34.94 29.5257 35.268 29.6297 35.692C29.7337 36.116 29.7857 36.668 29.7857 37.348V40H28.5017V37.336C28.5017 36.872 28.4737 36.508 28.4177 36.244C28.3697 35.98 28.2657 35.78 28.1057 35.644C27.9537 35.508 27.7297 35.44 27.4337 35.44C27.1937 35.44 26.9497 35.512 26.7017 35.656C26.4617 35.8 26.2617 36.012 26.1017 36.292C25.9417 36.564 25.8617 36.888 25.8617 37.264V40H24.5897V31.18ZM33.8681 40.12C33.3721 40.12 32.9121 40.004 32.4881 39.772C32.0721 39.532 31.7361 39.196 31.4801 38.764C31.2321 38.324 31.1081 37.812 31.1081 37.228C31.1081 36.652 31.2161 36.148 31.4321 35.716C31.6561 35.284 31.9721 34.948 32.3801 34.708C32.7881 34.468 33.2681 34.348 33.8201 34.348C34.1401 34.348 34.4401 34.404 34.7201 34.516C35.0001 34.628 35.2361 34.768 35.4281 34.936C35.6201 35.096 35.7481 35.256 35.8121 35.416L35.8361 34.492H37.0721V40H35.8481L35.8241 39.028C35.6881 39.316 35.4401 39.572 35.0801 39.796C34.7201 40.012 34.3161 40.12 33.8681 40.12ZM34.0841 39.04C34.5401 39.04 34.9241 38.884 35.2361 38.572C35.5481 38.252 35.7041 37.836 35.7041 37.324V37.24C35.7041 36.896 35.6321 36.588 35.4881 36.316C35.3441 36.044 35.1481 35.832 34.9001 35.68C34.6521 35.528 34.3801 35.452 34.0841 35.452C33.5721 35.452 33.1761 35.62 32.8961 35.956C32.6161 36.284 32.4761 36.712 32.4761 37.24C32.4761 37.776 32.6121 38.212 32.8841 38.548C33.1641 38.876 33.5641 39.04 34.0841 39.04ZM41.3829 40.12C40.8389 40.12 40.3469 40.004 39.9069 39.772C39.4749 39.532 39.1309 39.192 38.8749 38.752C38.6189 38.304 38.4909 37.78 38.4909 37.18C38.4909 36.612 38.6069 36.116 38.8389 35.692C39.0789 35.26 39.4109 34.928 39.8349 34.696C40.2669 34.464 40.7629 34.348 41.3229 34.348C41.7469 34.348 42.1109 34.404 42.4149 34.516C42.7269 34.62 42.9709 34.752 43.1469 34.912L42.5709 35.956C42.2349 35.62 41.8549 35.452 41.4309 35.452C40.9189 35.452 40.5269 35.608 40.2549 35.92C39.9909 36.232 39.8589 36.648 39.8589 37.168C39.8589 37.76 39.9949 38.22 40.2669 38.548C40.5469 38.876 40.9349 39.04 41.4309 39.04C41.6789 39.04 41.9189 39.004 42.1509 38.932C42.3909 38.86 42.5749 38.776 42.7029 38.68L43.1709 39.592C42.9949 39.728 42.7469 39.852 42.4269 39.964C42.1149 40.068 41.7669 40.12 41.3829 40.12ZM49.3847 40H47.8607L46.7447 38.2L46.4327 37.588L45.7127 38.368V40H44.4647V31.18H45.7007V36.016L45.6767 36.952L47.7767 34.492H49.3727L47.2967 36.796L49.3847 40ZM52.8525 40.12C52.3565 40.12 51.8965 40.004 51.4725 39.772C51.0565 39.532 50.7205 39.196 50.4645 38.764C50.2165 38.324 50.0925 37.812 50.0925 37.228C50.0925 36.652 50.2005 36.148 50.4165 35.716C50.6405 35.284 50.9565 34.948 51.3645 34.708C51.7725 34.468 52.2525 34.348 52.8045 34.348C53.1245 34.348 53.4245 34.404 53.7045 34.516C53.9845 34.628 54.2205 34.768 54.4125 34.936C54.6045 35.096 54.7325 35.256 54.7965 35.416L54.8205 34.492H56.0565V40H54.8325L54.8085 39.028C54.6725 39.316 54.4245 39.572 54.0645 39.796C53.7045 40.012 53.3005 40.12 52.8525 40.12ZM53.0685 39.04C53.5245 39.04 53.9085 38.884 54.2205 38.572C54.5325 38.252 54.6885 37.836 54.6885 37.324V37.24C54.6885 36.896 54.6165 36.588 54.4725 36.316C54.3285 36.044 54.1325 35.832 53.8845 35.68C53.6365 35.528 53.3645 35.452 53.0685 35.452C52.5565 35.452 52.1605 35.62 51.8805 35.956C51.6005 36.284 51.4605 36.712 51.4605 37.24C51.4605 37.776 51.5965 38.212 51.8685 38.548C52.1485 38.876 52.5485 39.04 53.0685 39.04ZM58.2793 35.548H57.3073V34.492H58.2793V32.248L59.5873 31.96V34.492H60.8593V35.548H59.5873V40H58.2793V35.548ZM61.9725 31.18H63.2325V34.492L63.1845 35.512C63.3365 35.176 63.5805 34.9 63.9165 34.684C64.2525 34.46 64.6445 34.348 65.0925 34.348C65.6605 34.348 66.0965 34.468 66.4005 34.708C66.7045 34.94 66.9085 35.268 67.0125 35.692C67.1165 36.116 67.1685 36.668 67.1685 37.348V40H65.8845V37.336C65.8845 36.872 65.8565 36.508 65.8005 36.244C65.7525 35.98 65.6485 35.78 65.4885 35.644C65.3365 35.508 65.1125 35.44 64.8165 35.44C64.5765 35.44 64.3325 35.512 64.0845 35.656C63.8445 35.8 63.6445 36.012 63.4845 36.292C63.3245 36.564 63.2445 36.888 63.2445 37.264V40H61.9725V31.18ZM71.3829 40.12C70.8149 40.12 70.3109 39.992 69.8709 39.736C69.4309 39.48 69.0909 39.132 68.8509 38.692C68.6109 38.252 68.4909 37.764 68.4909 37.228C68.4909 36.7 68.6069 36.216 68.8389 35.776C69.0789 35.336 69.4189 34.988 69.8589 34.732C70.2989 34.476 70.8069 34.348 71.3829 34.348C71.9589 34.348 72.4629 34.476 72.8949 34.732C73.3349 34.988 73.6709 35.336 73.9029 35.776C74.1429 36.216 74.2629 36.7 74.2629 37.228C74.2629 37.764 74.1429 38.252 73.9029 38.692C73.6629 39.132 73.3229 39.48 72.8829 39.736C72.4509 39.992 71.9509 40.12 71.3829 40.12ZM71.4189 39.064C71.8829 39.064 72.2469 38.892 72.5109 38.548C72.7829 38.204 72.9189 37.772 72.9189 37.252C72.9189 36.732 72.7749 36.296 72.4869 35.944C72.1989 35.584 71.8189 35.404 71.3469 35.404C70.8909 35.404 70.5229 35.58 70.2429 35.932C69.9709 36.284 69.8349 36.724 69.8349 37.252C69.8349 37.764 69.9829 38.196 70.2789 38.548C70.5749 38.892 70.9549 39.064 71.4189 39.064ZM75.6469 34.492H76.9189L76.9309 35.5C77.0829 35.164 77.3229 34.888 77.6509 34.672C77.9789 34.456 78.3629 34.348 78.8029 34.348C79.3709 34.348 79.8069 34.468 80.1109 34.708C80.4149 34.94 80.6189 35.268 80.7229 35.692C80.8269 36.116 80.8789 36.668 80.8789 37.348V40H79.5829V37.384C79.5829 36.688 79.5149 36.188 79.3789 35.884C79.2429 35.572 78.9629 35.416 78.5389 35.416C78.2989 35.416 78.0549 35.492 77.8069 35.644C77.5589 35.788 77.3509 36 77.1829 36.28C77.0229 36.56 76.9429 36.888 76.9429 37.264V40H75.6469V34.492ZM85.5147 34.492H86.7627V35.512C87.2027 34.736 87.8907 34.348 88.8267 34.348C89.6027 34.348 90.2307 34.596 90.7107 35.092C91.1907 35.58 91.4307 36.288 91.4307 37.216C91.4307 37.792 91.3107 38.3 91.0707 38.74C90.8387 39.18 90.5187 39.52 90.1107 39.76C89.7107 40 89.2627 40.12 88.7667 40.12C88.3027 40.12 87.8987 40.04 87.5547 39.88C87.2187 39.712 86.9547 39.476 86.7627 39.172L86.7747 42.916H85.5147V34.492ZM88.4667 39.028C88.9867 39.028 89.3867 38.864 89.6667 38.536C89.9467 38.2 90.0867 37.772 90.0867 37.252C90.0867 36.708 89.9467 36.276 89.6667 35.956C89.3947 35.628 88.9947 35.464 88.4667 35.464C88.1787 35.464 87.9067 35.536 87.6507 35.68C87.4027 35.816 87.2027 36.016 87.0507 36.28C86.9067 36.536 86.8347 36.836 86.8347 37.18V37.264C86.8347 37.608 86.9067 37.916 87.0507 38.188C87.2027 38.452 87.4027 38.66 87.6507 38.812C87.8987 38.956 88.1707 39.028 88.4667 39.028ZM92.7789 34.492H94.0749V35.572C94.2029 35.204 94.4109 34.908 94.6989 34.684C94.9869 34.46 95.3149 34.348 95.6829 34.348C95.9389 34.348 96.1149 34.372 96.2109 34.42L96.0309 35.728C95.9589 35.68 95.8029 35.656 95.5629 35.656C95.1869 35.656 94.8429 35.776 94.5309 36.016C94.2269 36.256 94.0749 36.64 94.0749 37.168V40H92.7789V34.492ZM97.2234 34.492H98.5674V40H97.2234V34.492ZM97.8834 33.46C97.6354 33.46 97.4274 33.376 97.2594 33.208C97.0914 33.04 97.0074 32.832 97.0074 32.584C97.0074 32.36 97.0914 32.168 97.2594 32.008C97.4274 31.848 97.6354 31.768 97.8834 31.768C98.1234 31.768 98.3274 31.848 98.4954 32.008C98.6634 32.168 98.7474 32.36 98.7474 32.584C98.7474 32.832 98.6634 33.04 98.4954 33.208C98.3354 33.376 98.1314 33.46 97.8834 33.46ZM102.258 35.956L102.558 35.524L101.226 35.56H100.278V34.492H104.562L102.078 38.548L101.778 39.004L103.074 38.956L104.466 38.932V40H99.7498L102.258 35.956ZM108.392 40.12C107.736 40.12 107.188 39.992 106.748 39.736C106.308 39.472 105.984 39.124 105.776 38.692C105.568 38.252 105.464 37.772 105.464 37.252C105.464 36.668 105.584 36.156 105.824 35.716C106.072 35.276 106.412 34.94 106.844 34.708C107.276 34.468 107.764 34.348 108.308 34.348C109.156 34.348 109.784 34.584 110.192 35.056C110.608 35.52 110.816 36.176 110.816 37.024C110.816 37.24 110.804 37.464 110.78 37.696H106.82C106.908 38.184 107.08 38.536 107.336 38.752C107.6 38.968 107.964 39.076 108.428 39.076C108.812 39.076 109.128 39.044 109.376 38.98C109.624 38.916 109.852 38.828 110.06 38.716L110.456 39.64C110.256 39.768 109.984 39.88 109.64 39.976C109.296 40.072 108.88 40.12 108.392 40.12ZM109.556 36.796C109.564 36.3 109.456 35.952 109.232 35.752C109.008 35.544 108.688 35.44 108.272 35.44C107.432 35.44 106.948 35.892 106.82 36.796H109.556ZM53.6358 48.94L52.0038 52H51.7758L49.4598 46.492H50.8518L52.0398 49.696L53.6118 46.492H53.6598L55.2438 49.672L56.4318 46.492H57.7998L55.4958 52H55.2678L53.6358 48.94ZM58.7859 46.492H60.1299V52H58.7859V46.492ZM59.4459 45.46C59.1979 45.46 58.9899 45.376 58.8219 45.208C58.6539 45.04 58.5699 44.832 58.5699 44.584C58.5699 44.36 58.6539 44.168 58.8219 44.008C58.9899 43.848 59.1979 43.768 59.4459 43.768C59.6859 43.768 59.8899 43.848 60.0579 44.008C60.2259 44.168 60.3099 44.36 60.3099 44.584C60.3099 44.832 60.2259 45.04 60.0579 45.208C59.8979 45.376 59.6939 45.46 59.4459 45.46ZM61.9243 46.492H63.1963L63.2083 47.5C63.3603 47.164 63.6003 46.888 63.9283 46.672C64.2563 46.456 64.6403 46.348 65.0803 46.348C65.6483 46.348 66.0843 46.468 66.3883 46.708C66.6923 46.94 66.8963 47.268 67.0003 47.692C67.1043 48.116 67.1563 48.668 67.1563 49.348V52H65.8603V49.384C65.8603 48.688 65.7923 48.188 65.6563 47.884C65.5203 47.572 65.2403 47.416 64.8163 47.416C64.5763 47.416 64.3323 47.492 64.0843 47.644C63.8363 47.788 63.6283 48 63.4603 48.28C63.3003 48.56 63.2203 48.888 63.2203 49.264V52H61.9243V46.492ZM68.8266 46.492H70.0986L70.1106 47.5C70.2626 47.164 70.5026 46.888 70.8306 46.672C71.1586 46.456 71.5426 46.348 71.9826 46.348C72.5506 46.348 72.9866 46.468 73.2906 46.708C73.5946 46.94 73.7986 47.268 73.9026 47.692C74.0066 48.116 74.0586 48.668 74.0586 49.348V52H72.7626V49.384C72.7626 48.688 72.6946 48.188 72.5586 47.884C72.4226 47.572 72.1426 47.416 71.7186 47.416C71.4786 47.416 71.2346 47.492 70.9866 47.644C70.7386 47.788 70.5306 48 70.3626 48.28C70.2026 48.56 70.1226 48.888 70.1226 49.264V52H68.8266V46.492ZM78.333 52.12C77.677 52.12 77.129 51.992 76.689 51.736C76.249 51.472 75.925 51.124 75.717 50.692C75.509 50.252 75.405 49.772 75.405 49.252C75.405 48.668 75.525 48.156 75.765 47.716C76.013 47.276 76.353 46.94 76.785 46.708C77.217 46.468 77.705 46.348 78.249 46.348C79.097 46.348 79.725 46.584 80.133 47.056C80.549 47.52 80.757 48.176 80.757 49.024C80.757 49.24 80.745 49.464 80.721 49.696H76.761C76.849 50.184 77.021 50.536 77.277 50.752C77.541 50.968 77.905 51.076 78.369 51.076C78.753 51.076 79.069 51.044 79.317 50.98C79.565 50.916 79.793 50.828 80.001 50.716L80.397 51.64C80.197 51.768 79.925 51.88 79.581 51.976C79.237 52.072 78.821 52.12 78.333 52.12ZM79.497 48.796C79.505 48.3 79.397 47.952 79.173 47.752C78.949 47.544 78.629 47.44 78.213 47.44C77.373 47.44 76.889 47.892 76.761 48.796H79.497ZM82.0797 46.492H83.3757V47.572C83.5037 47.204 83.7117 46.908 83.9997 46.684C84.2877 46.46 84.6157 46.348 84.9837 46.348C85.2397 46.348 85.4157 46.372 85.5117 46.42L85.3317 47.728C85.2597 47.68 85.1037 47.656 84.8637 47.656C84.4877 47.656 84.1437 47.776 83.8317 48.016C83.5277 48.256 83.3757 48.64 83.3757 49.168V52H82.0797V46.492Z" fill="white"/>
<path d="M10.284 49.0172C9.80671 46.9361 9.35802 44.8454 8.81625 42.7809C8.72556 42.4325 8.26494 42.0649 7.89501 41.9289C6.94036 41.5542 5.90693 41.3656 4.95705 40.9742C2.11456 39.8215 0.508353 37.6854 0 34.4945C3.60859 34.5971 6.56327 35.5804 8.22915 39.1628V32.053C3.99764 30.621 0.909332 28.2988 0.918878 23.2439C4.59191 24.0196 7.42962 25.5971 8.31745 29.4897C8.66351 27.3036 9.03343 25.1198 9.31744 22.9265C9.3604 22.59 9.02627 22.1007 8.72794 21.8477C7.73749 21.0029 6.60144 20.3179 5.66826 19.4181C3.70167 17.5088 3.31026 15.1222 3.78759 12.442C7.23867 13.7905 9.6802 15.8716 9.91171 19.8406C10.6468 17.6497 11.401 15.4635 12.0883 13.2558C12.1551 13.0434 11.8496 12.6616 11.6325 12.4277C10.8377 11.547 9.92366 10.757 9.21244 9.82146C7.54179 7.62099 7.32938 5.19378 8.34131 2.6377C11.4726 3.65918 13.0478 6.65201 12.8139 11.2845L13.5299 10.2272L13.6611 10.2702C13.3429 11.0912 13.0247 11.9114 12.7064 12.7308L12.8878 13.0554C15.1909 9.16992 18.5513 8.62578 22.463 9.62816C20.8855 13.399 17.8807 14.7189 12.1718 14.1127C11.7971 15.3442 11.3843 16.6067 11.0334 17.8859C10.6792 19.1745 10.4026 20.4831 10.2053 21.8048C12.0263 17.9695 15.1528 16.7928 19.2268 17.1962C18.7041 19.232 17.7948 20.9981 15.9093 21.8859C14.3695 22.5904 12.7375 23.0726 11.0621 23.3179C10.0311 23.4802 9.64678 23.7356 9.57279 24.7737C9.41289 26.9647 9.12651 29.1461 9.0573 31.4014C9.84966 29.3394 10.7494 27.3728 12.8759 26.4611C14.2291 25.8812 15.6826 25.5327 17.1719 25.0578C17.2936 28.1747 15.6277 31.7833 8.80192 33.3466L9.35802 41.3251L9.77807 41.5637C9.92604 36.9265 12.7256 34.7714 16.7781 33.6043C16.9523 35.8334 16.7781 37.9575 15.1671 39.4898C13.8139 40.7761 12.1098 41.6902 10.5967 42.8167C10.2936 43.0411 9.90454 43.5327 9.96898 43.8072C10.4864 46.0263 11.1165 48.2177 11.8568 50.3728C11.7184 46.0936 14.2148 43.7523 17.7327 42.0005C18.4821 44.2774 18.3747 46.4802 17.0454 48.3824C16.0645 49.7833 14.7208 50.9504 13.432 52.1031C12.8807 52.5948 12.5919 52.8955 12.9547 53.6401C13.8544 55.4802 14.6754 57.3585 15.7255 59.2392C14.8855 55.0029 17.0979 52.3704 20.1981 50.0482C22.3986 54.8812 20.4368 58.4587 16.9475 61.7237L20.5275 67.0554L20.315 67.3466C19.7184 66.9194 18.9738 66.6019 18.5585 66.0435C17.6521 64.7896 16.8254 63.4799 16.0835 62.1222C15.6683 61.3776 15.2029 61.2081 14.3676 61.3108C13.0727 61.4833 11.7635 61.5225 10.4606 61.4277C7.57281 61.1891 5.58237 59.5399 4.1122 56.8931C7.76375 55.8239 11.1575 55.5232 14.043 58.6139C13.1981 56.5447 12.3723 54.4635 11.4797 52.4086C11.3604 52.1365 10.8162 51.9862 10.4439 51.9074C8.82101 51.5733 7.13604 51.4564 5.57518 50.9528C3.18854 50.1676 1.91408 48.2201 1.04057 45.8501C4.6611 45.4277 7.95707 45.6735 10.284 49.0172Z" fill="url(#paint0_linear_296_1531)"/>
<path d="M14.4437 8.37533C14.2647 4.01017 15.4413 2.12949 19.1263 0.814453C19.4317 4.52806 17.9091 7.02688 14.4437 8.37533Z" fill="url(#paint1_linear_296_1531)"/>
<path d="M125.626 20.8939C125.793 16.9499 128.187 14.7883 131.737 13.4044C132.138 15.5947 132.088 17.6991 130.627 19.3955C129.535 20.6649 128.094 21.6312 126.846 22.7717C126.547 23.0461 126.18 23.5137 126.221 23.8453C126.49 26.0452 126.86 28.2331 127.282 30.526C128.094 26.5701 130.926 25.0049 134.576 24.208C134.624 27.0425 133.715 29.3521 131.42 30.9507C130.391 31.6665 129.172 32.1055 128.079 32.7426C127.752 32.9358 127.363 33.3701 127.363 33.6969C127.297 35.7536 127.33 37.8151 127.33 39.9911C128.955 36.5505 131.909 35.5294 135.542 35.4578C135.065 38.173 133.872 40.2297 131.529 41.4656C130.732 41.8879 129.859 42.3245 128.993 42.4367C127.208 42.6753 126.478 43.6129 126.268 45.3404C126.08 46.8865 125.6 48.3992 125.314 50.0169C127.576 46.6312 130.871 46.3807 134.421 46.7863C133.593 50.0216 131.04 52.138 127.378 52.6629C126.901 52.7321 126.409 52.9015 125.96 52.806C124.422 52.5245 123.944 53.4025 123.52 54.6575C122.966 56.2919 122.195 57.8547 121.556 59.5726C124.4 56.4971 127.776 56.7715 131.424 57.8117C129.9 60.6749 127.662 62.2711 124.505 62.4166C123.358 62.4544 122.21 62.3905 121.074 62.2257C120.337 62.1279 119.912 62.283 119.533 62.9415C118.763 64.3288 117.914 65.6711 116.992 66.9619C116.572 67.5321 115.837 67.8685 115.243 68.3123L115.004 68.0165L118.583 62.66C115.176 59.4414 113.095 55.8648 115.333 50.9688C118.376 53.2594 120.604 55.8386 119.65 60.0355L119.96 60.0784C120.587 58.8091 121.243 57.5541 121.835 56.2609C122.949 53.8344 122.933 53.8272 120.921 52.1737C117.805 49.6136 116.708 46.4021 117.82 42.9449C121.258 44.6318 123.749 46.9223 123.51 51.1693L123.835 51.1955C124.491 48.8597 125.149 46.5238 125.824 44.1212C121.511 42.3198 118.309 39.8264 118.714 34.5201C122.673 35.6439 125.529 37.6767 125.734 42.2625L126.154 42.1432C126.357 39.533 126.557 36.9227 126.765 34.2505C123.954 33.6039 121.344 32.7831 119.726 30.433C118.927 29.2662 118.533 27.8084 117.925 26.4246C121.468 25.8376 124.386 27.9659 126.598 32.232C126.34 29.6361 126.082 27.0425 125.824 24.4251C121.313 24.2128 117.645 22.9936 116.281 18.162C120.296 17.7469 123.439 18.8301 125.383 22.6381C125.211 21.8364 125.054 21.0299 124.861 20.233C124.643 19.3478 124.412 18.465 124.145 17.5918C123.906 16.7567 123.617 15.9359 123.336 15.0627C119.02 15.6448 115.193 15.1557 113 10.6057C114.909 10.0903 116.834 9.75869 118.531 10.5413C120.122 11.2738 121.453 12.5789 122.496 13.34C122.606 11.875 122.513 9.84458 122.961 7.94298C123.458 5.83857 125.276 4.63605 127.082 3.40967C127.922 5.57373 128.16 7.66145 126.989 9.5726C126.132 10.9684 124.882 12.116 123.866 13.4188C123.627 13.717 123.448 14.2491 123.548 14.5807C124.207 16.6851 124.932 18.78 125.626 20.8939Z" fill="url(#paint2_linear_296_1531)"/>
<path d="M121.11 9.36045C117.584 7.92887 116.302 5.85309 116.338 1.78027C119.76 2.69648 121.093 4.78896 121.11 9.36045Z" fill="url(#paint3_linear_296_1531)"/>
<defs>
<linearGradient id="paint0_linear_296_1531" x1="11.2315" y1="2.6377" x2="11.2315" y2="67.3466" gradientUnits="userSpaceOnUse">
<stop stop-color="#E0E1E2"/>
<stop offset="1" stop-color="#B17B3B"/>
</linearGradient>
<linearGradient id="paint1_linear_296_1531" x1="16.7954" y1="0.814453" x2="16.7954" y2="8.37533" gradientUnits="userSpaceOnUse">
<stop stop-color="#E0E1E2"/>
<stop offset="1" stop-color="#B17B3B"/>
</linearGradient>
<linearGradient id="paint2_linear_296_1531" x1="124.271" y1="3.40967" x2="124.271" y2="68.3123" gradientUnits="userSpaceOnUse">
<stop stop-color="#E0E1E2"/>
<stop offset="1" stop-color="#B17B3B"/>
</linearGradient>
<linearGradient id="paint3_linear_296_1531" x1="118.724" y1="1.78027" x2="118.724" y2="9.36045" gradientUnits="userSpaceOnUse">
<stop stop-color="#E0E1E2"/>
<stop offset="1" stop-color="#B17B3B"/>
</linearGradient>
</defs>
</svg>
