<svg width="50" height="37" viewBox="0 0 50 37" fill="none" xmlns="http://www.w3.org/2000/svg">
<path d="M24.9999 36.5C35.049 36.5 43.1955 28.4411 43.1955 18.5C43.1955 8.55888 35.049 0.5 24.9999 0.5C14.9507 0.5 6.8042 8.55888 6.8042 18.5C6.8042 28.4411 14.9507 36.5 24.9999 36.5Z" fill="#FF4500"/>
<path d="M37.1374 18.5C37.1374 17.0394 35.9434 15.8795 34.4884 15.8795C33.772 15.8795 33.1204 16.1586 32.6428 16.6098C30.8191 15.321 28.3219 14.4834 25.5425 14.3761L26.7584 8.74829L30.7102 9.58589C30.7539 10.574 31.5788 11.3688 32.5995 11.3688C33.6417 11.3688 34.4884 10.5312 34.4884 9.49981C34.4884 8.46883 33.6417 7.63123 32.5995 7.63123C31.8613 7.63123 31.2096 8.06084 30.9057 8.68383L26.4981 7.76015C26.3678 7.73853 26.2375 7.76015 26.1505 7.82461C26.042 7.88907 25.9768 7.99637 25.9554 8.1253L24.6088 14.3973C21.7862 14.4834 19.2457 15.321 17.4001 16.6314C16.9225 16.1802 16.2709 15.9011 15.5545 15.9011C14.078 15.9011 12.9055 17.0823 12.9055 18.5216C12.9055 19.5955 13.5567 20.4975 14.469 20.9059C14.4253 21.1634 14.4038 21.4212 14.4038 21.7007C14.4038 25.7385 19.1591 29.0253 25.0217 29.0253C30.8842 29.0253 35.6395 25.7601 35.6395 21.7007C35.6395 21.4428 35.6176 21.1634 35.5743 20.9059C36.4862 20.4975 37.1374 19.5738 37.1374 18.5ZM18.9417 20.3686C18.9417 19.3376 19.7884 18.5 20.831 18.5C21.8732 18.5 22.7199 19.3376 22.7199 20.3686C22.7199 21.3996 21.8732 22.2376 20.831 22.2376C19.7884 22.2588 18.9417 21.3996 18.9417 20.3686ZM29.5162 25.3305C28.2134 26.6194 25.738 26.7055 25.0217 26.7055C24.2834 26.7055 21.8081 26.5977 20.5267 25.3305C20.3316 25.1372 20.3316 24.8365 20.5267 24.6431C20.7222 24.4501 21.0261 24.4501 21.2216 24.6431C22.0469 25.4595 23.784 25.7385 25.0217 25.7385C26.2593 25.7385 28.0179 25.4595 28.8213 24.6431C29.0168 24.4501 29.3207 24.4501 29.5162 24.6431C29.6899 24.8365 29.6899 25.1372 29.5162 25.3305ZM29.1686 22.2588C28.1264 22.2588 27.2797 21.4212 27.2797 20.3902C27.2797 19.3592 28.1264 18.5216 29.1686 18.5216C30.2112 18.5216 31.0579 19.3592 31.0579 20.3902C31.0579 21.3996 30.2112 22.2588 29.1686 22.2588Z" fill="white"/>
</svg>
