<svg width="20" height="21" viewBox="0 0 20 21" fill="none" xmlns="http://www.w3.org/2000/svg">
<path d="M5 12.5684C6.38071 12.5684 7.5 11.4491 7.5 10.0684C7.5 8.68765 6.38071 7.56836 5 7.56836C3.61929 7.56836 2.5 8.68765 2.5 10.0684C2.5 11.4491 3.61929 12.5684 5 12.5684Z" stroke="white" stroke-linecap="round" stroke-linejoin="round"/>
<path d="M13.75 18.1934C15.1307 18.1934 16.25 17.0741 16.25 15.6934C16.25 14.3126 15.1307 13.1934 13.75 13.1934C12.3693 13.1934 11.25 14.3126 11.25 15.6934C11.25 17.0741 12.3693 18.1934 13.75 18.1934Z" stroke="white" stroke-linecap="round" stroke-linejoin="round"/>
<path d="M13.75 6.94336C15.1307 6.94336 16.25 5.82407 16.25 4.44336C16.25 3.06265 15.1307 1.94336 13.75 1.94336C12.3693 1.94336 11.25 3.06265 11.25 4.44336C11.25 5.82407 12.3693 6.94336 13.75 6.94336Z" stroke="white" stroke-linecap="round" stroke-linejoin="round"/>
<path d="M11.6472 5.79492L7.10254 8.71646" stroke="white" stroke-linecap="round" stroke-linejoin="round"/>
<path d="M7.10254 11.4199L11.6472 14.3415" stroke="white" stroke-linecap="round" stroke-linejoin="round"/>
</svg>
