<svg width="50" height="37" viewBox="0 0 50 37" fill="none" xmlns="http://www.w3.org/2000/svg">
<path d="M18.0239 34.1C32.2149 34.1 39.9754 22.0977 39.9754 11.6897C39.9754 11.3488 39.9686 11.0095 39.9536 10.6716C41.4601 9.55986 42.7694 8.17245 43.8021 6.59307C42.4197 7.22036 40.9321 7.64265 39.3715 7.83306C40.9644 6.85795 42.1873 5.31545 42.7642 3.47661C41.2736 4.37878 39.6228 5.03448 37.8651 5.38849C36.4572 3.85755 34.4529 2.89999 32.2335 2.89999C27.9729 2.89999 24.5179 6.42733 24.5179 10.7753C24.5179 11.3934 24.5856 11.9945 24.718 12.5712C18.3057 12.2418 12.6199 9.10765 8.81457 4.34192C8.15199 5.5059 7.76993 6.85799 7.76993 8.3007C7.76993 11.0333 9.13199 13.4457 11.2032 14.8569C9.93745 14.817 8.74838 14.4623 7.70911 13.8718C7.70797 13.9049 7.70797 13.9371 7.70797 13.9724C7.70797 17.7869 10.3674 20.9717 13.8976 21.6934C13.2493 21.8738 12.5672 21.9706 11.8632 21.9706C11.3668 21.9706 10.8832 21.9207 10.4132 21.8285C11.3954 24.958 14.2436 27.2354 17.6204 27.299C14.9798 29.412 11.6533 30.6705 8.03808 30.6705C7.4161 30.6705 6.80165 30.6344 6.19775 30.5615C9.61226 32.7958 13.6667 34.0995 18.0243 34.0995" fill="#1DA1F2"/>
</svg>
